<?xml version="1.0" standalone="no"?>
<!DOCTYPE svg PUBLIC "-//W3C//DTD SVG 20010904//EN"
 "http://www.w3.org/TR/2001/REC-SVG-20010904/DTD/svg10.dtd">
<svg version="1.0" xmlns="http://www.w3.org/2000/svg"
 width="400.000000pt" height="400.000000pt" viewBox="0 0 400.000000 400.000000"
 preserveAspectRatio="xMidYMid meet">
<metadata>
Created by potrace 1.11, written by Peter Selinger 2001-2013
</metadata>
<g transform="translate(0.000000,400.000000) scale(0.100000,-0.100000)"
fill="#000000" stroke="none">
<path d="M0 2000 l0 -2000 2000 0 2000 0 0 2000 0 2000 -2000 0 -2000 0 0
-2000z m2749 734 c20 -25 21 -39 21 -271 l0 -244 53 40 c118 90 250 128 407
118 346 -20 588 -359 500 -701 -26 -102 -69 -176 -150 -256 -112 -112 -237
-163 -400 -163 -108 0 -184 18 -275 66 -57 31 -165 126 -199 177 -17 24 -17
24 -28 5 -22 -42 -145 -152 -204 -182 -34 -18 -90 -40 -125 -49 -77 -20 -213
-22 -289 -4 -49 11 -159 61 -201 92 -14 9 -24 6 -55 -19 -96 -75 -207 -108
-335 -100 -157 10 -288 59 -376 139 -92 86 -130 191 -140 391 -4 81 -10 126
-16 124 -28 -9 -49 -60 -63 -148 -19 -129 -46 -214 -92 -285 -93 -143 -237
-214 -438 -214 -95 0 -95 -1 -92 231 l3 194 53 6 c29 4 63 14 77 23 52 34 58
55 85 284 7 62 19 110 35 141 33 67 131 154 201 180 75 28 234 44 410 39 121
-3 145 -6 162 -22 20 -17 21 -31 24 -295 l3 -278 28 -36 c36 -47 75 -67 129
-67 100 0 153 58 162 178 13 157 56 265 143 362 99 109 198 140 451 140 l142
0 0 190 c0 254 -12 240 209 240 l160 0 20 -26z"/>
<path d="M2150 1958 c-57 -39 -75 -72 -75 -137 0 -48 5 -64 28 -95 36 -46 75
-66 130 -66 152 0 207 210 77 297 -45 31 -115 31 -160 1z"/>
<path d="M3132 1960 c-48 -30 -72 -75 -72 -140 0 -163 186 -220 284 -87 16 21
21 43 21 87 0 66 -18 99 -75 138 -43 29 -112 30 -158 2z"/>
</g>
</svg>
