<svg xmlns="http://www.w3.org/2000/svg" viewBox="0 0 3405.74 1600"><defs><style>.a{fill:#fff;}</style></defs><title>maya-logo-wide-whitewhite</title><path class="a" d="M528,837.74c-50.06-4.54-100.07-12.09-150.2-13-82.72-1.44-151.68-18.14-210.81-88.26-46-54.58-46.68-127.37-94.23-177.38-2.11-2.22,1-9.66,2-14.57,11.11-49.75,26.47-92.26,36-142.31,5.46-28.62,15-35.67,40.48-17.86,105,73.4,207.71,138.78,312.74,212.15,12.3,8.59,26.64,19,32.15,31.86C541.3,733.92,604.79,835.25,556,959.69c-17.1,43.59-17.45,93.62-26.93,140.4-2.15,10.64-8.92,21.32-16.15,29.78-25.3,29.6-52.56,57.56-77.43,87.5-16.46,19.83-28.38,20.49-43.49-1.25-35-50.28-71.39-99.53-106.57-149.66-5.4-7.7-13.06-22.14-10-26.17C309.84,994.65,314,926.08,385.27,907.6c50-13,96.71-38.28,144.89-58.08Zm-68.45-96.89C369,644.41,268.53,528,178,431.55c29.79,155.53,155.06,247.86,282.24,308.59l10.46,10.59,10.47,10.45-.64.66-10.42-10.5Zm.52,164c-56.15,13.82-118.74,18.29-128.31,99.67l128.1-99.92,20.23-10.12.5.49Q470.34,899.88,460.08,904.84Zm71.25-133.31c-20.35-87.15-55.05-162-141.62-206.38-56.41-29-116.35-80.55-171.63-112.78C319.36,555.22,430.63,668.08,531.91,770.93Zm-8.93,44.58c2.05-3.87-11.89-13.74-9.83-17.61-68.74-44.57-175.55-112.62-247-152.27-37.54-20.83-59.25,18.66-93.09,48.44C277.06,728.63,427.73,785.37,522.4,816.11Zm-387.09-396c-58,105-39.56,143.86,87.05,172.1C191.06,530.31,163.75,476.31,135.31,420.08Zm319.49,586.7c-16.56,23.18,8.87,71.88,37.52,72,7,0,18.24-13.23,20.55-22.18,12.69-49.12,23.22-98.79,34.49-148.27l-11.72-5.47C508.55,937.43,480.29,971.12,454.8,1006.78ZM192.57,722.62c30.94,51.07,58.89,80.78,113.06,79.67,48.43-1,97,6.64,145.57,10.47l1.6-8.61Zm213.9,350.14c-.83-8.66-16.86-22.11-26.25-22.4-19.18-.6-38.59,6.24-57.91,10,3.89,12,5.33,25.66,12.12,35.68,18.41,27.16,39.09,52.77,58.87,79l14.43-3.81C407.73,1138.37,409.61,1105.33,406.47,1072.76Zm112.28-192.7C463.52,919.74,384.29,987.41,323.6,1031,422.4,1040.7,482.61,946.43,518.75,880.06ZM120.91,578.75l-9.79,9.38,42.93,81.22L219.2,631q-3.47-8-6.91-16ZM426.31,1057c0,37.43-1,88.58-1,126.43C507.25,1131.89,493.28,1103.15,426.31,1057Z"/><path class="a" d="M254.86,468.79l15.39,5.13"/><path class="a" d="M495.9,638,501,653.42"/><path class="a" d="M429.23,817.53l-56.41-5.12"/><path class="a" d="M295.89,807.28l-46.16-5.13"/><path class="a" d="M116.39,617.52q7.69,18,15.38,35.9"/><path class="a" d="M357.43,766.25l15.39,5.13"/><path class="a" d="M378,771.38l25.64,10.25"/><path class="a" d="M408.72,781.63l25.64,10.26"/><path class="a" d="M460,797l20.52,5.13"/><path class="a" d="M331.79,956l30.77-30.78"/><path class="a" d="M367.69,925.23l46.16-20.51"/><path class="a" d="M419,904.72l25.64-10.26"/><path class="a" d="M357.43,694.45l15.39,5.13"/><path class="a" d="M557.45,904.72l-5.13,15.39"/><path class="a" d="M547.19,945.75l-5.13,15.38"/><path class="a" d="M121.52,407.25l-10.26,20.51"/><path class="a" d="M106.13,463.66,101,479.05"/><path class="a" d="M95.87,515q-2.57,7.69-5.12,15.38"/><path class="a" d="M121.52,571.36l15.38,5.13"/><path class="a" d="M142,576.49,188.19,597"/><path class="a" d="M347.18,1043.19H316.4"/><path class="a" d="M1112.31,543.48l-25-135.51a23.85,23.85,0,1,0-40.88-16.69c0,.64,0,1.28.09,1.92L710.67,626.13a8.46,8.46,0,0,0-3.09,3.94L632.43,820.71a35.24,35.24,0,0,0-2,55l46.49,234a20.84,20.84,0,0,0,18.63,36.79l71.44,78a21.62,21.62,0,0,0-1.13,6.91,21.89,21.89,0,0,0,43.78,0,21.67,21.67,0,0,0-2.73-10.56l96.55-126.86c.62.06,1.24.09,1.88.09a22.11,22.11,0,0,0,3.5-43.94l-43.71-98.57a8.54,8.54,0,0,0-4-4.17L688.28,854.63a34.89,34.89,0,0,0-.21-12.34l260.08-20.77a8.43,8.43,0,0,0,5.5-2.67l87.45-93.66a23,23,0,0,0,24.07-37.2l42.37-101.6a22.26,22.26,0,0,0,4.77-42.91Zm-42-167.2a15,15,0,1,1-15,15A15,15,0,0,1,1070.26,376.28Zm-5.55,39.91a3.65,3.65,0,0,1,1.25-1.45,24.3,24.3,0,0,0,4.3.39h.34a3.72,3.72,0,0,1,1.09,2l23.46,127a22.28,22.28,0,0,0-12.89,20.18,22,22,0,0,0,.38,4.09L981.13,609.3a26.07,26.07,0,0,0-7.6-7.56ZM976.4,623.55a17,17,0,1,1-17-17A17,17,0,0,1,976.4,623.55Zm70.08-199.11L963,597.8a26.61,26.61,0,0,0-3.59-.25,26,26,0,0,0-24.56,34.52L712.17,770.58a3.71,3.71,0,0,1-4.72-5.67l333-344.69A3.71,3.71,0,0,1,1046.48,424.44ZM665.81,773.73,722.1,639.67a3.7,3.7,0,0,1,1.35-1.72L989.68,449.27a3.71,3.71,0,0,1,4.79,5.62L671.94,777.64A3.71,3.71,0,0,1,665.81,773.73Zm-32.87,75.32a20.5,20.5,0,1,1,20.5,20.5A20.5,20.5,0,0,1,632.94,849.05Zm24.23,59a3.71,3.71,0,0,1,6.71-2.8l84.31,116a26.85,26.85,0,0,0-3,32.78l-45.59,52.19a3.66,3.66,0,0,1-2.79,1.27,20.87,20.87,0,0,0-2.27-.77,3.66,3.66,0,0,1-1.37-2.22Zm31.75,232.25a13.5,13.5,0,1,1,13.5-13.5A13.5,13.5,0,0,1,688.92,1140.29Zm82.55,72.07-64.71-74.8a20.77,20.77,0,0,0-1.66-23.92l47.63-51.79a26.86,26.86,0,0,0,11.56,4.44l13.6,143.19a3.64,3.64,0,0,1-1.21,3.14c-.36.21-.7.42-1,.65A3.64,3.64,0,0,1,771.47,1212.36Zm-21.05-172.77a17.5,17.5,0,1,1,17.5,17.5A17.5,17.5,0,0,1,750.42,1039.59Zm37.29,206.92a15,15,0,1,1,15-15A15,15,0,0,1,787.71,1246.51Zm10.38-34.26a21.64,21.64,0,0,0-9.11-2.59l-13.75-144.13a27.08,27.08,0,0,0,17.76-16l90.21,22.11c0,.16,0,.31,0,.47a22,22,0,0,0,5.15,14.17ZM893.27,1064q.39-.57.84-1.11a14.51,14.51,0,1,1-1.11,16.88,14.19,14.19,0,0,1-1.37-2.86,13.55,13.55,0,0,1-.57-2.1,14,14,0,0,1-.26-2.7A14.49,14.49,0,0,1,893.27,1064ZM725.2,892.21l124.39,68.55a3.65,3.65,0,0,1,1.74,1.81L890,1035a3.71,3.71,0,0,1-5.77,4.35l-163.07-141A3.71,3.71,0,0,1,725.2,892.21Zm-36.61-1.06,193.72,160.94c7.12,3.71,4.55,10.39.74,9.45l-88.18-22.64a27,27,0,0,0-37.23-24.23L678.48,898.43C672.7,890.07,678,882.88,688.59,891.15Zm334-162.48-78.15,75.14A3.71,3.71,0,0,1,942,805L733.63,824.44a3.71,3.71,0,0,1-1.49-7.22l286.57-94.6A3.71,3.71,0,0,1,1022.59,728.67Zm3.46-18.55L688.89,818.38a3.71,3.71,0,0,1-3.23-6.6L941,641.88a25.93,25.93,0,0,0,31.09,4.36l55.56,46.38a23,23,0,0,0-1.58,17.5Zm22,9.64a16.5,16.5,0,1,1,16.5-16.5A16.5,16.5,0,0,1,1048,719.76Zm42.08-135.66-35.72,97.06a22.91,22.91,0,0,0-19.45,3.21l-54.53-45.49a25.79,25.79,0,0,0,5-15.33,26.2,26.2,0,0,0-.3-4l100.17-40.33a3.63,3.63,0,0,1,2.69,0,21.8,21.8,0,0,0,2.12,2.07A3.63,3.63,0,0,1,1090.08,584.1Zm14.44-5.77a14,14,0,1,1,14-14A14,14,0,0,1,1104.52,578.33Z"/><path class="a" d="M1931,774.11V984.19c0,6.56-4.37,10.94-10.94,10.94h-43.76c-6.57,0-10.94-4.38-10.94-10.94V781.41c0-62-31.37-92.64-78.05-92.64-71.49,0-101.39,57.62-101.39,89V984.19c0,6.56-4.38,10.94-11,10.94h-43.76c-6.57,0-10.94-4.38-10.94-10.94V781.41c0-62-31.37-92.64-78-92.64-66.38,0-101.39,78.65-101.39,94V984.19c0,6.56-4.38,10.94-10.95,10.94h-43.76c-6.57,0-10.94-4.38-10.94-10.94V648.65c0-6.56,4.37-10.94,10.94-10.94H1427c6.56,0,10.21,4.38,10.94,10.94l2.92,48.87c25.53-37.93,64.92-67.83,118.89-67.83,51.79,0,93.37,24.07,113.07,70.75,24.8-39.39,67.83-70.75,129.83-70.75C1879.25,629.69,1931,678.56,1931,774.11Z"/><path class="a" d="M2425.51,648.65V984.19c0,6.56-4.38,10.94-10.94,10.94h-38.66c-6.57,0-10.22-4.38-10.95-10.94l-3.64-43c-27,35.75-67.84,59.09-121.82,59.09-101.39,0-174.33-82.43-174.33-183.09,0-104.31,72.94-186.74,174.33-186.74,54,0,95.56,24.81,122.55,62.74l2.91-44.5c.73-6.56,4.38-10.94,10.95-10.94h38.66C2421.13,637.71,2425.51,642.09,2425.51,648.65Zm-62.73,167.77c0-69.3-48.88-126.19-116.71-126.19S2127.9,743.48,2127.9,816.42c0,70,50.33,124,118.17,124S2362.78,886.45,2362.78,816.42Z"/><path class="a" d="M2897.45,650.11,2709.25,1125c-2.19,5.83-7.29,8.75-13.13,8.75h-43.76c-8,0-12.4-4.37-8.76-12.4l50.33-124.73L2556.8,650.11c-2.92-8,.73-12.4,8.75-12.4h44.5c5.83,0,10.94,2.92,13.13,8.75L2726.76,920l103.58-273.54c2.19-5.83,7.29-8.75,13.13-8.75h45.22C2896.72,637.71,2900.36,642.09,2897.45,650.11Z"/><path class="a" d="M3349,648.65V984.19c0,6.56-4.38,10.94-10.95,10.94h-38.66c-6.56,0-10.21-4.38-10.94-10.94l-3.64-43c-27,35.75-67.84,59.09-121.82,59.09-101.39,0-174.33-82.43-174.33-183.09,0-104.31,72.94-186.74,174.33-186.74,54,0,95.56,24.81,122.55,62.74l2.91-44.5c.73-6.56,4.38-10.94,10.94-10.94H3338C3344.59,637.71,3349,642.09,3349,648.65Zm-62.74,167.77c0-69.3-48.87-126.19-116.7-126.19s-118.17,53.25-118.17,126.19c0,70,50.33,124,118.17,124S3286.23,886.45,3286.23,816.42Z"/></svg>