<?xml version="1.0" encoding="UTF-8"?>
<svg width="540px" height="180px" viewBox="0 0 540 180" version="1.1" xmlns="http://www.w3.org/2000/svg" xmlns:xlink="http://www.w3.org/1999/xlink">
    <!-- Generator: Sketch 50 (54983) - http://www.bohemiancoding.com/sketch -->
    <title>Group 2</title>
    <desc>Created with Sketch.</desc>
    <defs></defs>
    <g id="Logo" stroke="none" stroke-width="1" fill="none" fill-rule="evenodd">
        <g id="Artboard-Copy-7" transform="translate(-20.000000, -29.000000)">
            <g id="Group-2" transform="translate(20.000000, 30.000000)">
                <g id="Group">
                    <path d="M3.42140738,176 L2.88,176 C1.28941992,176 3.98885737e-15,174.71058 -4.4408921e-16,173.12 L0,134.472404 C0,122.081984 10.0943651,112 22.5,112 L33.1504449,112 C39.6838771,112 45,117.309603 45,123.835022 L45,134.472404 C45,157.370949 26.3480722,176 3.42140738,176 Z" id="path-1-path" fill="#90A4AE"></path>
                    <path d="M72.8078033,179 L25.92163,179 C42.3733394,170.742276 53.6953755,153.732126 53.6953755,134.030154 L53.6953755,123.481177 C53.6953755,111.958818 44.3788659,102.615553 32.8850417,102.615553 L24,102.615553 L24,77.1594116 C24,43.9863139 50.9168025,17 83.9999996,17 C117.085194,17 144,43.9883167 144,77.1594116 L144,107.614651 C144.001997,146.976535 112.065386,179 72.8078033,179 Z M139.056839,69.2642025 C138.307763,55.430562 127.083606,43.9883169 113.298608,43.0269519 C112.631431,42.9808866 111.972244,42.9568524 111.315054,42.9568524 C97.0166889,42.9568524 85.2492022,53.792236 83.7110992,67.7180073 C82.1729962,53.792236 70.4075071,42.9568524 56.1071442,42.9568524 C55.4459596,42.9568524 54.7787825,42.9808866 54.1076103,43.0269519 C40.5483334,43.9783027 29.422056,55.0720531 28.4033124,68.6633494 C27.2747044,83.7267358 38.1093415,96.460815 52.3617636,98.3915562 L58.3543726,98.6739571 L69.0831404,98.6739571 C72.0594696,98.6739571 74.9159466,99.8596406 77.02135,101.970638 L81.6699342,106.631573 C82.793151,107.757774 84.6166645,107.760193 85.7428656,106.636976 C85.7446692,106.635177 85.7464703,106.633376 85.7482691,106.631573 L90.3968534,101.970638 C92.5022568,99.8596406 95.3567362,98.6739571 98.3350629,98.6739571 L112.871135,98.6739571 C127.99648,97.7526491 139.8998,84.8242941 139.056839,69.2642025 Z" id="Combined-Shape" fill="#ECEFF1"></path>
                    <circle id="Oval" fill="#90A4AE" cx="53" cy="71" r="11"></circle>
                    <circle id="Oval-Copy" fill="#90A4AE" cx="111" cy="71" r="11"></circle>
                    <path d="M60.3050912,0.929707223 L80,23.4329127 L35,42 L55.5703988,1.52169541 C56.2909958,0.103709149 58.02466,-0.461636586 59.4426463,0.258960365 C59.7702926,0.425464769 60.0630412,0.653143269 60.3050912,0.929707223 Z" id="Triangle-2" fill="#ECEFF1"></path>
                    <path d="M114.305091,0.929707223 L134,23.4329127 L89,42 L109.570399,1.52169541 C110.290996,0.103709149 112.02466,-0.461636586 113.442646,0.258960365 C113.770293,0.425464769 114.063041,0.653143269 114.305091,0.929707223 Z" id="Triangle-2-Copy" fill="#ECEFF1" transform="translate(111.500000, 21.000000) scale(-1, 1) translate(-111.500000, -21.000000) "></path>
                </g>
                <path d="M184.272,55.44 L187.404,55.44 L187.404,81 L184.272,81 L184.272,61.416 L184.2,61.416 L175.884,75.852 L173.76,75.852 L165.444,61.416 L165.372,61.416 L165.372,81 L162.24,81 L162.24,55.44 L165.408,55.44 L174.804,71.964 L174.876,71.964 L184.272,55.44 Z M208.86,71.964 C208.86,72.432 208.788,73.044 208.788,73.152 L195.288,73.152 C195.684,76.428 197.988,78.552 201.156,78.552 C203.352,78.552 205.008,77.544 206.088,76.176 L208.14,77.94 C206.628,79.884 204.252,81.216 201.048,81.216 C196.08,81.216 192.336,77.58 192.336,72.252 C192.336,66.96 195.972,63.252 200.724,63.252 C205.62,63.252 208.86,66.924 208.86,71.964 Z M200.868,65.952 C198.132,65.952 195.936,67.752 195.396,70.74 L205.98,70.74 C205.512,67.86 203.676,65.952 200.868,65.952 Z M226.788,54.504 L229.704,54.504 L229.704,81 L226.932,81 L226.932,78.228 L226.86,78.228 C225.456,80.1 223.332,81.216 220.812,81.216 C215.952,81.216 212.208,77.724 212.208,72.36 C212.208,67.176 215.808,63.252 220.776,63.252 C223.152,63.252 225.312,64.26 226.752,66.096 L226.788,66.096 L226.788,54.504 Z M221.064,78.552 C224.16,78.552 226.896,76.068 226.896,72.36 C226.896,68.76 224.412,65.952 221.1,65.952 C217.788,65.952 215.16,68.472 215.16,72.36 C215.16,75.888 217.5,78.552 221.064,78.552 Z M243.168,81.216 C239.964,81.216 236.652,79.992 234.096,77.256 L236.112,74.88 C237.948,77.148 240.72,78.264 243.204,78.264 C246.336,78.264 248.424,76.788 248.424,74.34 C248.424,71.46 246.12,70.704 242.7,69.408 C238.92,68.004 235.068,66.384 235.068,61.956 C235.068,58.14 238.524,55.224 242.88,55.188 C245.724,55.188 248.532,56.232 250.98,58.176 L249.072,60.624 C247.056,58.932 244.788,58.104 242.88,58.104 C240.504,58.104 238.344,59.4 238.344,61.812 C238.308,64.26 240.612,65.124 243.78,66.384 C248.1,68.04 251.7,69.228 251.7,74.016 C251.7,78.732 247.56,81.216 243.168,81.216 Z M261.096,81.216 C257.964,81.216 256.524,79.308 256.524,75.78 L256.524,65.988 L254.292,65.988 L254.292,63.468 L256.524,63.468 L256.524,57.492 L259.44,57.168 L259.44,63.468 L265.272,63.468 L265.272,65.988 L259.44,65.988 L259.44,75.348 C259.44,77.436 259.944,78.48 261.6,78.48 C262.644,78.48 263.724,78.048 264.552,77.58 L265.344,80.136 C264.372,80.676 263.148,81.216 261.096,81.216 Z M282.084,63.468 L285,63.468 L285,81 L282.192,81 L282.192,78.228 L282.156,78.228 C280.752,80.1 278.592,81.216 276.036,81.216 C271.176,81.216 267.432,77.724 267.432,72.36 C267.432,67.176 271.032,63.252 276,63.252 C278.412,63.252 280.572,64.26 282.048,66.096 L282.084,66.096 L282.084,63.468 Z M276.288,78.552 C279.456,78.552 282.192,76.068 282.192,72.36 C282.192,68.76 279.708,65.952 276.324,65.952 C273.012,65.952 270.384,68.472 270.384,72.36 C270.384,75.888 272.724,78.552 276.288,78.552 Z M299.04,63.252 C299.328,63.252 299.58,63.252 299.76,63.288 L299.76,66.528 C299.364,66.492 298.896,66.456 298.608,66.456 C295.296,66.456 293.28,69.012 293.28,72.54 L293.28,81 L290.364,81 L290.364,63.468 L293.28,63.468 L293.28,66.564 L293.316,66.564 C294.612,64.476 296.664,63.252 299.04,63.252 Z M324.636,67.824 L335.184,67.824 L335.184,77.94 C332.808,79.956 329.172,81.18 325.248,81.18 C317.904,81.18 312.468,76.176 312.468,68.256 C312.468,60.696 317.436,55.188 325.14,55.188 C328.596,55.188 332.16,56.376 334.896,59.22 L332.664,61.128 C330.612,59.184 328.092,58.176 325.104,58.176 C319.74,58.176 315.744,62.136 315.744,68.256 C315.744,74.016 319.524,78.264 325.248,78.264 C327.804,78.264 330.144,77.688 332.052,76.32 L332.052,70.704 L324.636,70.704 L324.636,67.824 Z M356.028,71.964 C356.028,72.432 355.956,73.044 355.956,73.152 L342.456,73.152 C342.852,76.428 345.156,78.552 348.324,78.552 C350.52,78.552 352.176,77.544 353.256,76.176 L355.308,77.94 C353.796,79.884 351.42,81.216 348.216,81.216 C343.248,81.216 339.504,77.58 339.504,72.252 C339.504,66.96 343.14,63.252 347.892,63.252 C352.788,63.252 356.028,66.924 356.028,71.964 Z M348.036,65.952 C345.3,65.952 343.104,67.752 342.564,70.74 L353.148,70.74 C352.68,67.86 350.844,65.952 348.036,65.952 Z M368.448,81.216 C362.976,81.216 359.376,77.292 359.376,72.252 C359.376,67.212 362.976,63.252 368.448,63.252 C373.596,63.252 377.448,66.924 377.448,72.252 C377.448,77.58 373.596,81.216 368.448,81.216 Z M368.448,78.552 C371.832,78.552 374.496,75.96 374.496,72.252 C374.496,68.508 371.832,65.952 368.448,65.952 C364.776,65.952 362.328,68.76 362.328,72.252 C362.328,75.744 364.812,78.552 368.448,78.552 Z M390.624,63.252 C390.912,63.252 391.164,63.252 391.344,63.288 L391.344,66.528 C390.948,66.492 390.48,66.456 390.192,66.456 C386.88,66.456 384.864,69.012 384.864,72.54 L384.864,81 L381.948,81 L381.948,63.468 L384.864,63.468 L384.864,66.564 L384.9,66.564 C386.196,64.476 388.248,63.252 390.624,63.252 Z M407.544,63.468 L410.424,63.468 L410.424,79.668 C410.424,84.744 407.94,88.344 401.82,88.344 C399.192,88.344 396.78,87.696 394.692,86.436 L395.376,83.736 C397.428,84.888 399.192,85.572 401.676,85.572 C405.636,85.572 407.58,83.268 407.58,80.424 L407.58,77.976 L407.508,77.976 C406.14,79.668 404.088,80.676 401.568,80.676 C396.888,80.676 393.072,77.22 393.072,72 C393.072,67.032 396.672,63.252 401.424,63.252 C403.764,63.252 405.96,64.188 407.472,65.916 L407.544,65.916 L407.544,63.468 Z M401.784,77.94 C405.312,77.94 407.652,75.348 407.652,71.856 C407.652,68.328 405.096,65.988 401.784,65.988 C398.436,65.988 396.06,68.508 396.06,71.892 C396.06,75.636 398.652,77.94 401.784,77.94 Z M431.232,71.964 C431.232,72.432 431.16,73.044 431.16,73.152 L417.66,73.152 C418.056,76.428 420.36,78.552 423.528,78.552 C425.724,78.552 427.38,77.544 428.46,76.176 L430.512,77.94 C429,79.884 426.624,81.216 423.42,81.216 C418.452,81.216 414.708,77.58 414.708,72.252 C414.708,66.96 418.344,63.252 423.096,63.252 C427.992,63.252 431.232,66.924 431.232,71.964 Z M423.24,65.952 C420.504,65.952 418.308,67.752 417.768,70.74 L428.352,70.74 C427.884,67.86 426.048,65.952 423.24,65.952 Z M440.628,81.216 C437.496,81.216 436.056,79.308 436.056,75.78 L436.056,65.988 L433.824,65.988 L433.824,63.468 L436.056,63.468 L436.056,57.492 L438.972,57.168 L438.972,63.468 L444.804,63.468 L444.804,65.988 L438.972,65.988 L438.972,75.348 C438.972,77.436 439.476,78.48 441.132,78.48 C442.176,78.48 443.256,78.048 444.084,77.58 L444.876,80.136 C443.904,80.676 442.68,81.216 440.628,81.216 Z M455.964,81.216 C450.492,81.216 446.892,77.292 446.892,72.252 C446.892,67.212 450.492,63.252 455.964,63.252 C461.112,63.252 464.964,66.924 464.964,72.252 C464.964,77.58 461.112,81.216 455.964,81.216 Z M455.964,78.552 C459.348,78.552 462.012,75.96 462.012,72.252 C462.012,68.508 459.348,65.952 455.964,65.952 C452.292,65.952 449.844,68.76 449.844,72.252 C449.844,75.744 452.328,78.552 455.964,78.552 Z M489.372,63.468 L492.324,63.468 L486.24,81 L483.504,81 L479.544,68.22 L479.508,68.22 L475.512,81 L472.848,81 L466.764,63.468 L469.716,63.468 L474.18,76.572 L474.252,76.572 L478.248,63.468 L480.768,63.468 L484.836,76.572 L484.908,76.572 L489.372,63.468 Z M505.464,63.252 C509.244,63.252 511.764,65.592 511.764,70.596 L511.764,81 L508.848,81 L508.848,71.424 C508.848,67.32 507.12,65.952 504.564,65.952 C501.252,65.952 499.056,68.292 499.056,72.252 L499.056,81 L496.14,81 L496.14,63.468 L499.056,63.468 L499.056,66.528 L499.092,66.528 C500.568,64.44 502.872,63.252 505.464,63.252 Z M173.868,125.18 C166.956,125.18 161.124,120.68 161.124,112.328 C161.124,105.056 165.66,99.188 173.868,99.188 C177.396,99.188 181.068,100.628 183.84,104.084 L181.5,106.028 C179.556,103.58 176.82,102.176 173.868,102.176 C168.036,102.176 164.4,106.388 164.4,112.328 C164.4,118.412 168.468,122.192 173.868,122.192 C177.18,122.192 179.7,120.608 181.5,118.376 L183.84,120.356 C181.608,123.128 178.368,125.18 173.868,125.18 Z M203.208,115.964 C203.208,116.432 203.136,117.044 203.136,117.152 L189.636,117.152 C190.032,120.428 192.336,122.552 195.504,122.552 C197.7,122.552 199.356,121.544 200.436,120.176 L202.488,121.94 C200.976,123.884 198.6,125.216 195.396,125.216 C190.428,125.216 186.684,121.58 186.684,116.252 C186.684,110.96 190.32,107.252 195.072,107.252 C199.968,107.252 203.208,110.924 203.208,115.964 Z M195.216,109.952 C192.48,109.952 190.284,111.752 189.744,114.74 L200.328,114.74 C199.86,111.86 198.024,109.952 195.216,109.952 Z M216.96,107.252 C220.74,107.252 223.26,109.592 223.26,114.596 L223.26,125 L220.344,125 L220.344,115.424 C220.344,111.32 218.616,109.952 216.06,109.952 C212.748,109.952 210.552,112.292 210.552,116.252 L210.552,125 L207.636,125 L207.636,107.468 L210.552,107.468 L210.552,110.528 L210.588,110.528 C212.064,108.44 214.368,107.252 216.96,107.252 Z M233.484,125.216 C230.352,125.216 228.912,123.308 228.912,119.78 L228.912,109.988 L226.68,109.988 L226.68,107.468 L228.912,107.468 L228.912,101.492 L231.828,101.168 L231.828,107.468 L237.66,107.468 L237.66,109.988 L231.828,109.988 L231.828,119.348 C231.828,121.436 232.332,122.48 233.988,122.48 C235.032,122.48 236.112,122.048 236.94,121.58 L237.732,124.136 C236.76,124.676 235.536,125.216 233.484,125.216 Z M256.272,115.964 C256.272,116.432 256.2,117.044 256.2,117.152 L242.7,117.152 C243.096,120.428 245.4,122.552 248.568,122.552 C250.764,122.552 252.42,121.544 253.5,120.176 L255.552,121.94 C254.04,123.884 251.664,125.216 248.46,125.216 C243.492,125.216 239.748,121.58 239.748,116.252 C239.748,110.96 243.384,107.252 248.136,107.252 C253.032,107.252 256.272,110.924 256.272,115.964 Z M248.28,109.952 C245.544,109.952 243.348,111.752 242.808,114.74 L253.392,114.74 C252.924,111.86 251.088,109.952 248.28,109.952 Z M269.376,107.252 C269.664,107.252 269.916,107.252 270.096,107.288 L270.096,110.528 C269.7,110.492 269.232,110.456 268.944,110.456 C265.632,110.456 263.616,113.012 263.616,116.54 L263.616,125 L260.7,125 L260.7,107.468 L263.616,107.468 L263.616,110.564 L263.652,110.564 C264.948,108.476 267,107.252 269.376,107.252 Z M284.208,125 L284.208,109.988 L282.048,109.988 L282.048,107.468 L284.208,107.468 L284.208,103.94 C284.208,100.16 286.008,98.252 289.104,98.252 C290.868,98.252 292.236,98.792 293.208,99.368 L292.56,101.888 C291.444,101.312 290.436,100.988 289.5,100.988 C288.06,100.988 287.088,101.888 287.088,104.192 L287.088,107.468 L292.056,107.468 L292.056,109.988 L287.088,109.988 L287.088,125 L284.208,125 Z M303.108,125.216 C297.636,125.216 294.036,121.292 294.036,116.252 C294.036,111.212 297.636,107.252 303.108,107.252 C308.256,107.252 312.108,110.924 312.108,116.252 C312.108,121.58 308.256,125.216 303.108,125.216 Z M303.108,122.552 C306.492,122.552 309.156,119.96 309.156,116.252 C309.156,112.508 306.492,109.952 303.108,109.952 C299.436,109.952 296.988,112.76 296.988,116.252 C296.988,119.744 299.472,122.552 303.108,122.552 Z M325.284,107.252 C325.572,107.252 325.824,107.252 326.004,107.288 L326.004,110.528 C325.608,110.492 325.14,110.456 324.852,110.456 C321.54,110.456 319.524,113.012 319.524,116.54 L319.524,125 L316.608,125 L316.608,107.468 L319.524,107.468 L319.524,110.564 L319.56,110.564 C320.856,108.476 322.908,107.252 325.284,107.252 Z M368.844,99.44 L372.192,99.44 L364.02,125 L360.996,125 L355.092,104.048 L355.056,104.048 L349.044,125 L346.02,125 L337.848,99.44 L341.196,99.44 L347.496,119.852 L347.568,119.852 L353.328,99.44 L356.748,99.44 L362.508,119.924 L362.544,119.924 L368.844,99.44 Z M389.436,115.964 C389.436,116.432 389.364,117.044 389.364,117.152 L375.864,117.152 C376.26,120.428 378.564,122.552 381.732,122.552 C383.928,122.552 385.584,121.544 386.664,120.176 L388.716,121.94 C387.204,123.884 384.828,125.216 381.624,125.216 C376.656,125.216 372.912,121.58 372.912,116.252 C372.912,110.96 376.548,107.252 381.3,107.252 C386.196,107.252 389.436,110.924 389.436,115.964 Z M381.444,109.952 C378.708,109.952 376.512,111.752 375.972,114.74 L386.556,114.74 C386.088,111.86 384.252,109.952 381.444,109.952 Z M394.116,125 L394.116,98.504 L397.032,98.504 L397.032,125 L394.116,125 Z M403.116,125 L403.116,98.504 L406.032,98.504 L406.032,125 L403.116,125 Z M420.9,107.252 C425.832,107.252 429.468,111.176 429.468,116.36 C429.468,121.724 425.688,125.216 420.864,125.216 C418.308,125.216 416.148,124.1 414.744,122.228 L414.672,122.228 L414.672,125 L411.9,125 L411.9,98.504 L414.816,98.504 L414.816,110.096 L414.852,110.096 C416.328,108.26 418.488,107.252 420.9,107.252 Z M420.576,122.552 C424.14,122.552 426.48,119.888 426.48,116.36 C426.48,112.472 423.888,109.952 420.54,109.952 C417.192,109.952 414.708,112.76 414.708,116.36 C414.708,120.068 417.444,122.552 420.576,122.552 Z M449.376,115.964 C449.376,116.432 449.304,117.044 449.304,117.152 L435.804,117.152 C436.2,120.428 438.504,122.552 441.672,122.552 C443.868,122.552 445.524,121.544 446.604,120.176 L448.656,121.94 C447.144,123.884 444.768,125.216 441.564,125.216 C436.596,125.216 432.852,121.58 432.852,116.252 C432.852,110.96 436.488,107.252 441.24,107.252 C446.136,107.252 449.376,110.924 449.376,115.964 Z M441.384,109.952 C438.648,109.952 436.452,111.752 435.912,114.74 L446.496,114.74 C446.028,111.86 444.192,109.952 441.384,109.952 Z M455.532,104.228 C454.344,104.228 453.444,103.328 453.444,102.176 C453.444,101.06 454.344,100.124 455.532,100.124 C456.684,100.124 457.62,101.06 457.62,102.176 C457.62,103.328 456.684,104.228 455.532,104.228 Z M454.056,125 L454.056,107.468 L456.972,107.468 L456.972,125 L454.056,125 Z M472.128,107.252 C475.908,107.252 478.428,109.592 478.428,114.596 L478.428,125 L475.512,125 L475.512,115.424 C475.512,111.32 473.784,109.952 471.228,109.952 C467.916,109.952 465.72,112.292 465.72,116.252 L465.72,125 L462.804,125 L462.804,107.468 L465.72,107.468 L465.72,110.528 L465.756,110.528 C467.232,108.44 469.536,107.252 472.128,107.252 Z M497.004,107.468 L499.884,107.468 L499.884,123.668 C499.884,128.744 497.4,132.344 491.28,132.344 C488.652,132.344 486.24,131.696 484.152,130.436 L484.836,127.736 C486.888,128.888 488.652,129.572 491.136,129.572 C495.096,129.572 497.04,127.268 497.04,124.424 L497.04,121.976 L496.968,121.976 C495.6,123.668 493.548,124.676 491.028,124.676 C486.348,124.676 482.532,121.22 482.532,116 C482.532,111.032 486.132,107.252 490.884,107.252 C493.224,107.252 495.42,108.188 496.932,109.916 L497.004,109.916 L497.004,107.468 Z M491.244,121.94 C494.772,121.94 497.112,119.348 497.112,115.856 C497.112,112.328 494.556,109.988 491.244,109.988 C487.896,109.988 485.52,112.508 485.52,115.892 C485.52,119.636 488.112,121.94 491.244,121.94 Z M516.876,104.228 C515.688,104.228 514.788,103.328 514.788,102.176 C514.788,101.06 515.688,100.124 516.876,100.124 C518.028,100.124 518.964,101.06 518.964,102.176 C518.964,103.328 518.028,104.228 516.876,104.228 Z M515.4,125 L515.4,107.468 L518.316,107.468 L518.316,125 L515.4,125 Z M533.472,107.252 C537.252,107.252 539.772,109.592 539.772,114.596 L539.772,125 L536.856,125 L536.856,115.424 C536.856,111.32 535.128,109.952 532.572,109.952 C529.26,109.952 527.064,112.292 527.064,116.252 L527.064,125 L524.148,125 L524.148,107.468 L527.064,107.468 L527.064,110.528 L527.1,110.528 C528.576,108.44 530.88,107.252 533.472,107.252 Z M169.656,169.216 C166.452,169.216 163.14,167.992 160.584,165.256 L162.6,162.88 C164.436,165.148 167.208,166.264 169.692,166.264 C172.824,166.264 174.912,164.788 174.912,162.34 C174.912,159.46 172.608,158.704 169.188,157.408 C165.408,156.004 161.556,154.384 161.556,149.956 C161.556,146.14 165.012,143.224 169.368,143.188 C172.212,143.188 175.02,144.232 177.468,146.176 L175.56,148.624 C173.544,146.932 171.276,146.104 169.368,146.104 C166.992,146.104 164.832,147.4 164.832,149.812 C164.796,152.26 167.1,153.124 170.268,154.384 C174.588,156.04 178.188,157.228 178.188,162.016 C178.188,166.732 174.048,169.216 169.656,169.216 Z M190.392,169.216 C185.352,169.216 181.716,165.58 181.716,160.252 C181.716,154.96 185.352,151.252 190.5,151.252 C193.128,151.252 195.828,152.332 197.556,154.384 L195.54,156.148 C194.46,154.816 192.732,153.952 190.644,153.952 C187.116,153.952 184.668,156.544 184.668,160.252 C184.668,163.996 187.116,166.552 190.644,166.552 C192.696,166.552 194.532,165.652 195.612,164.464 L197.628,166.264 C196.152,167.92 193.524,169.216 190.392,169.216 Z M211.02,151.252 C214.836,151.252 217.392,153.484 217.392,158.488 L217.392,169 L214.476,169 L214.476,159.316 C214.476,155.356 212.748,153.952 210.192,153.952 C206.7,153.952 204.504,156.256 204.504,160.18 L204.504,169 L201.588,169 L201.588,142.504 L204.504,142.504 L204.504,154.348 L204.576,154.348 C206.016,152.332 208.32,151.252 211.02,151.252 Z M230.604,169.216 C225.132,169.216 221.532,165.292 221.532,160.252 C221.532,155.212 225.132,151.252 230.604,151.252 C235.752,151.252 239.604,154.924 239.604,160.252 C239.604,165.58 235.752,169.216 230.604,169.216 Z M230.604,166.552 C233.988,166.552 236.652,163.96 236.652,160.252 C236.652,156.508 233.988,153.952 230.604,153.952 C226.932,153.952 224.484,156.76 224.484,160.252 C224.484,163.744 226.968,166.552 230.604,166.552 Z M252.096,169.216 C246.624,169.216 243.024,165.292 243.024,160.252 C243.024,155.212 246.624,151.252 252.096,151.252 C257.244,151.252 261.096,154.924 261.096,160.252 C261.096,165.58 257.244,169.216 252.096,169.216 Z M252.096,166.552 C255.48,166.552 258.144,163.96 258.144,160.252 C258.144,156.508 255.48,153.952 252.096,153.952 C248.424,153.952 245.976,156.76 245.976,160.252 C245.976,163.744 248.46,166.552 252.096,166.552 Z M265.848,169 L265.848,142.504 L268.764,142.504 L268.764,169 L265.848,169 Z M284.964,169 L284.964,143.44 L300.624,143.44 L300.624,146.32 L288.132,146.32 L288.132,154.852 L298.392,154.852 L298.392,157.732 L288.132,157.732 L288.132,166.12 L301.38,166.12 L301.38,169 L284.964,169 Z M315.348,151.252 C319.128,151.252 321.648,153.592 321.648,158.596 L321.648,169 L318.732,169 L318.732,159.424 C318.732,155.32 317.004,153.952 314.448,153.952 C311.136,153.952 308.94,156.292 308.94,160.252 L308.94,169 L306.024,169 L306.024,151.468 L308.94,151.468 L308.94,154.528 L308.976,154.528 C310.452,152.44 312.756,151.252 315.348,151.252 Z M338.388,151.468 L341.556,151.468 L334.428,169 L331.62,169 L324.456,151.468 L327.588,151.468 L332.988,165.292 L333.096,165.292 L338.388,151.468 Z M346.92,148.228 C345.732,148.228 344.832,147.328 344.832,146.176 C344.832,145.06 345.732,144.124 346.92,144.124 C348.072,144.124 349.008,145.06 349.008,146.176 C349.008,147.328 348.072,148.228 346.92,148.228 Z M345.444,169 L345.444,151.468 L348.36,151.468 L348.36,169 L345.444,169 Z M362.868,151.252 C363.156,151.252 363.408,151.252 363.588,151.288 L363.588,154.528 C363.192,154.492 362.724,154.456 362.436,154.456 C359.124,154.456 357.108,157.012 357.108,160.54 L357.108,169 L354.192,169 L354.192,151.468 L357.108,151.468 L357.108,154.564 L357.144,154.564 C358.44,152.476 360.492,151.252 362.868,151.252 Z M374.46,169.216 C368.988,169.216 365.388,165.292 365.388,160.252 C365.388,155.212 368.988,151.252 374.46,151.252 C379.608,151.252 383.46,154.924 383.46,160.252 C383.46,165.58 379.608,169.216 374.46,169.216 Z M374.46,166.552 C377.844,166.552 380.508,163.96 380.508,160.252 C380.508,156.508 377.844,153.952 374.46,153.952 C370.788,153.952 368.34,156.76 368.34,160.252 C368.34,163.744 370.824,166.552 374.46,166.552 Z M397.284,151.252 C401.064,151.252 403.584,153.592 403.584,158.596 L403.584,169 L400.668,169 L400.668,159.424 C400.668,155.32 398.94,153.952 396.384,153.952 C393.072,153.952 390.876,156.292 390.876,160.252 L390.876,169 L387.96,169 L387.96,151.468 L390.876,151.468 L390.876,154.528 L390.912,154.528 C392.388,152.44 394.692,151.252 397.284,151.252 Z M429.684,151.252 C433.68,151.252 435.84,153.556 435.84,158.74 L435.84,169 L432.924,169 L432.924,159.532 C432.924,155.572 431.592,153.952 428.82,153.952 C426.12,153.952 423.924,156.364 423.924,160.288 L423.924,169 L421.008,169 L421.008,159.496 C421.008,155.608 419.568,153.952 416.832,153.952 C413.988,153.952 411.756,156.364 411.756,160.288 L411.756,169 L408.876,169 L408.876,151.468 L411.756,151.468 L411.756,154.492 L411.792,154.492 C413.232,152.404 415.428,151.252 417.696,151.252 C420.396,151.252 422.34,152.368 423.276,154.708 L423.312,154.708 C424.716,152.476 427.02,151.252 429.684,151.252 Z M456.468,159.964 C456.468,160.432 456.396,161.044 456.396,161.152 L442.896,161.152 C443.292,164.428 445.596,166.552 448.764,166.552 C450.96,166.552 452.616,165.544 453.696,164.176 L455.748,165.94 C454.236,167.884 451.86,169.216 448.656,169.216 C443.688,169.216 439.944,165.58 439.944,160.252 C439.944,154.96 443.58,151.252 448.332,151.252 C453.228,151.252 456.468,154.924 456.468,159.964 Z M448.476,153.952 C445.74,153.952 443.544,155.752 443.004,158.74 L453.588,158.74 C453.12,155.86 451.284,153.952 448.476,153.952 Z M470.22,151.252 C474,151.252 476.52,153.592 476.52,158.596 L476.52,169 L473.604,169 L473.604,159.424 C473.604,155.32 471.876,153.952 469.32,153.952 C466.008,153.952 463.812,156.292 463.812,160.252 L463.812,169 L460.896,169 L460.896,151.468 L463.812,151.468 L463.812,154.528 L463.848,154.528 C465.324,152.44 467.628,151.252 470.22,151.252 Z M486.744,169.216 C483.612,169.216 482.172,167.308 482.172,163.78 L482.172,153.988 L479.94,153.988 L479.94,151.468 L482.172,151.468 L482.172,145.492 L485.088,145.168 L485.088,151.468 L490.92,151.468 L490.92,153.988 L485.088,153.988 L485.088,163.348 C485.088,165.436 485.592,166.48 487.248,166.48 C488.292,166.48 489.372,166.048 490.2,165.58 L490.992,168.136 C490.02,168.676 488.796,169.216 486.744,169.216 Z M500.244,169.216 C497.364,169.216 495.096,168.244 493.368,166.696 L494.88,164.5 C496.248,165.76 497.76,166.588 500.244,166.588 C502.332,166.588 503.556,165.508 503.556,164.248 C503.556,162.736 501.936,162.232 499.38,161.368 C496.536,160.36 494.124,159.172 494.124,155.968 C494.124,153.268 496.572,151.252 499.92,151.252 C502.008,151.252 503.988,151.828 505.932,153.412 L504.42,155.716 C502.872,154.384 501.252,153.916 499.776,153.916 C498.444,153.916 497.076,154.708 497.076,155.968 C497.076,157.336 498.516,157.984 500.388,158.704 C504.096,160.144 506.544,160.756 506.508,164.212 C506.508,166.948 504.456,169.216 500.244,169.216 Z" id="MedStar-Georgetown-C" fill="#FFFFFF"></path>
                <path d="M193.621,1.21 L202.343,1.21 L191.465,36 L183.968,36 L178.137,13.117 L178.088,13.117 L172.012,36 L164.515,36 L153.637,1.21 L162.359,1.21 L168.239,22.574 L168.337,22.574 L173.727,1.21 L182.351,1.21 L187.643,22.574 L187.741,22.574 L193.621,1.21 Z M206.263,36 L206.263,1.21 L214.544,1.21 L214.544,36 L206.263,36 Z M231.498,36.49 C227.039,36.49 222.433,34.726 218.66,30.904 L223.511,24.926 C226.157,27.817 229.293,29.091 231.694,29.091 C234.536,29.091 235.614,27.817 235.614,26.249 C235.614,24.338 234.389,23.505 230.42,22.182 C225.128,20.369 219.885,17.87 219.885,11.059 C219.885,5.277 224.932,0.818 231.253,0.72 C235.81,0.671 239.926,2.386 243.356,5.277 L238.701,11.353 C235.761,9.001 233.507,8.021 231.547,8.021 C229.587,8.021 228.362,9.05 228.362,10.716 C228.313,12.284 229.587,13.068 233.409,14.538 C239.534,16.89 244.189,18.507 244.189,25.318 C244.189,33.501 237.084,36.49 231.498,36.49 Z M248.55,36 L248.55,1.21 L271.237,1.21 L271.237,8.511 L256.586,8.511 L256.586,15.175 L268.15,15.175 L268.15,22.378 L256.586,22.378 L256.586,28.699 L272.266,28.699 L272.266,36 L248.55,36 Z" id="WISE" fill="#FFFFFF"></path>
            </g>
        </g>
    </g>
</svg>