<?xml version="1.0" encoding="UTF-8"?>
<svg width="100px" height="32px" viewBox="0 0 100 32" version="1.1" xmlns="http://www.w3.org/2000/svg" xmlns:xlink="http://www.w3.org/1999/xlink">
    <!-- Generator: Sketch 64 (93537) - https://sketch.com -->
    <title>Group</title>
    <desc>Created with Sketch.</desc>
    <g id="Page-1" stroke="none" stroke-width="1" fill="none" fill-rule="evenodd">
        <g id="Group" transform="translate(-0.000001, -0.000000)" fill="#FFFFFF" fill-rule="nonzero">
            <path d="M13.2293816,31.0810839 C11.1211377,31.0810839 9.39566167,29.356157 9.39566167,27.2473639 L9.39566167,8.4011241 C9.39566167,6.29288019 11.1205885,4.56740418 13.2293816,4.56740418 C15.3376255,4.56740418 17.0631015,6.29233102 17.0631015,8.4011241 L17.0631015,27.2473639 C17.0631015,29.356157 15.3376255,31.0810839 13.2293816,31.0810839 Z" id="Path"></path>
            <path d="M22.6255924,28.8069922 C20.5173485,28.8069922 18.7918725,27.0820653 18.7918725,24.9732722 L18.7918725,6.1270324 C18.7918725,4.01878848 20.5167994,2.29331248 22.6255924,2.29331248 C24.7338363,2.29331248 26.4593124,4.01823932 26.4593124,6.1270324 L26.4593124,24.9732722 C26.4587632,27.0815161 24.7338363,28.8069922 22.6255924,28.8069922 Z" id="Path"></path>
            <path d="M3.83371992,26.5136797 C1.72547601,26.5136797 0,24.7887528 0,22.6799598 L0,3.83371992 C0,1.72547601 1.72492684,0 3.83371992,0 C5.94196384,0 7.66743984,1.72492684 7.66743984,3.83371992 L7.66743984,22.6799598 C7.66689068,24.7887528 5.94196384,26.5136797 3.83371992,26.5136797 Z" id="Path"></path>
            <path d="M30.1700193,3.93202043 L38.2943644,3.93202043 C39.156004,8.42693485 40.6771907,12.8625395 41.8831567,16.9137287 C43.0600171,12.8625395 44.5817529,8.42693485 45.4428434,3.93202043 L52.4479904,3.93202043 C50.3518281,11.975089 47.4527868,19.0724958 45.1847359,27.1748742 L37.4047173,27.1748742 C35.4238796,19.0724958 32.2661816,11.9756382 30.1700193,3.93202043 Z" id="Path"></path>
            <path d="M78.7178409,3.93202043 L78.7178409,27.1748742 L71.4254807,27.1748742 L71.4254807,16.6473837 C70.3633958,19.4267071 69.1288732,24.8387268 68.6406656,27.1748742 L62.7843715,27.1748742 C62.2961639,24.8387268 60.8035338,19.4272563 59.7123433,16.6473837 L59.7123433,27.1748742 L53.2525169,27.1748742 L53.2525169,3.93202043 L62.5833772,3.93202043 C62.5257149,5.02595684 64.9376469,12.4484692 65.9997318,15.405722 C67.0332601,12.4484692 69.444643,5.02595684 69.4160864,3.93202043 L78.7178409,3.93202043 Z" id="Path"></path>
            <path d="M99.9348254,12.8921944 C99.9348254,21.4086431 93.0444539,21.7634036 90.4320766,21.7634036 L87.8482559,21.7634036 L87.8482559,27.1748742 L80.5850014,27.1748742 L80.5850014,3.93202043 L90.4326258,3.93202043 C94.3651954,3.93202043 99.9348254,5.02650601 99.9348254,12.8921944 Z M87.8482559,15.0213065 L90.4320766,15.0213065 C91.0921728,15.0213065 92.9011219,14.9619967 92.9011219,12.8921944 C92.9011219,10.9404624 91.4364992,10.6741175 90.4320766,10.6741175 L87.8482559,10.6741175 L87.8482559,15.0213065 Z" id="Shape"></path>
        </g>
    </g>
</svg>