<svg width="122" height="62" xmlns="http://www.w3.org/2000/svg"><g fill="#11DBD9" fill-rule="nonzero"><path d="M12.327.923c1.265.437.586 2.433-.71 1.965-2.776-.998-6.107-1.528-8.143.749-1.666 1.777-2.098 5.052.123 6.986 2.684 2.433 6.51 1.903 6.725 5.209.093 1.746-1.419 3.025-3.085 3.15-2.005.124-4.503-.375-6.54-1.872-1.079-.78.124-2.464 1.204-1.684 2.375 1.747 6.54 2.059 6.354.5-.123-1.467-3.177-1.217-6.046-3.744C-2.264 8.222.451.331 6.805.02c1.851-.094 3.363.156 5.522.904z"/><path d="M.542 21.352c-1.192-.625-.22-2.468 1.004-1.843 4.83 2.561 11.384 1.905 11.384-3.874 0-4.28-5.645-5.06-7.245-6.34-2.509-1.969-1.191-7.497 6.618-4.343 1.223.5.47 2.437-.816 1.906-4.735-1.906-5.55.031-4.516.843C8.131 8.576 15 9.825 15 15.635c0 5.717-5.08 8.403-10.945 6.997a13.068 13.068 0 0 1-3.513-1.28zM23 14.432V1.062C23 .47 23.467 0 24.028 0c.591 0 1.059.469 1.059 1.062v13.37c0 3.31 4.826 3.31 4.826 0V1.062C29.913.47 30.35 0 30.973 0 31.532 0 32 .469 32 1.062v13.37c0 6.09-9 6.09-9 0z"/><path d="M37 15.143c0 11.825-18 11.793-18 0V1.095C19 .483 19.48 0 20.057 0c.608 0 1.089.483 1.089 1.095v14.048c0 9.022 13.74 9.022 13.74 0V1.095c0-.612.449-1.095 1.057-1.095C36.52 0 37 .483 37 1.095v14.048zM49.028 19h-2.019C46.46 19 46 18.52 46 17.913c0-.576.459-1.056 1.01-1.056h2.018c3.027 0 4.954-2.335 4.954-5.373 0-3.006-1.927-5.341-4.954-5.341h-1.01v7.484c0 .608-.428 1.087-1.009 1.087-.55 0-1.009-.48-1.009-1.087v-8.54C46 4.48 46.459 4 47.01 4h2.018C53.218 4 56 7.294 56 11.484 56 15.706 53.217 19 49.028 19z"/><path d="M44.118 22.922c0 .588-.474 1.078-1.075 1.078-.569 0-1.043-.49-1.043-1.078V1.078C42 .49 42.474 0 43.043 0h6.323C56.226 0 61 5.094 61 11.984 61 18.906 56.226 24 49.366 24h-2.118c-.57 0-1.043-.49-1.043-1.078 0-.62.474-1.11 1.043-1.11h2.118c5.659 0 9.516-4.114 9.516-9.828 0-5.682-3.857-9.796-9.516-9.796h-5.248v20.734z"/><path d="M87.956 8.398c.16.567-.128 1.164-.703 1.322-.576.188-1.215-.126-1.375-.692a10.017 10.017 0 0 0-3.709-5.002 10.473 10.473 0 0 0-6.011-1.887c-13.333 0-13.333 19.69 0 19.69 2.27 0 4.348-.691 6.011-1.887a9.755 9.755 0 0 0 3.709-5.001c.16-.566.8-.85 1.375-.692.575.157.863.786.703 1.353a12.094 12.094 0 0 1-4.476 6.07C81.402 23.12 78.908 24 76.158 24c-16.21 0-16.21-24 0-24 2.75 0 5.244.85 7.322 2.296 2.078 1.51 3.677 3.617 4.476 6.102z"/><path d="M70.152 15.975c-.31-.56-.124-1.187.372-1.517.528-.297 1.15-.132 1.429.429.496.857 1.18 1.616 1.987 2.078a4.714 4.714 0 0 0 2.608.792c1.49 0 2.826-.627 3.757-1.683.994-1.022 1.584-2.474 1.584-4.09 0-1.584-.59-3.036-1.584-4.058-.931-1.023-2.267-1.683-3.757-1.683-.962 0-1.832.264-2.608.76-.807.494-1.49 1.22-1.987 2.077-.28.561-.9.76-1.429.462-.496-.297-.683-.99-.372-1.55.652-1.22 1.583-2.244 2.701-2.936A6.997 6.997 0 0 1 76.548 4c2.08 0 3.943.89 5.31 2.342A8.426 8.426 0 0 1 84 11.984c0 2.21-.838 4.19-2.142 5.64C80.49 19.11 78.628 20 76.548 20c-1.304 0-2.577-.396-3.695-1.056a8.054 8.054 0 0 1-2.701-2.969zM8.028 57H6.009C5.46 57 5 56.52 5 55.913c0-.576.459-1.056 1.01-1.056h2.018c3.027 0 4.954-2.335 4.954-5.373 0-3.006-1.927-5.341-4.954-5.341h-1.01v7.484c0 .608-.428 1.087-1.009 1.087-.55 0-1.009-.48-1.009-1.087v-8.54C5 42.48 5.459 42 6.01 42h2.018C12.218 42 15 45.294 15 49.484 15 53.706 12.217 57 8.028 57z"/><path d="M3.118 60.922c0 .588-.474 1.078-1.075 1.078C1.474 62 1 61.51 1 60.922V39.078C1 38.49 1.474 38 2.043 38h6.323C15.226 38 20 43.094 20 49.984 20 56.906 15.226 62 8.366 62H6.248c-.57 0-1.043-.49-1.043-1.078 0-.62.474-1.11 1.043-1.11h2.118c5.659 0 9.516-4.114 9.516-9.828 0-5.682-3.857-9.796-9.516-9.796H3.118v20.734zM30 60.922c0 .588-.448 1.078-.985 1.078-.567 0-1.015-.49-1.015-1.078V39.078c0-.588.448-1.078 1.015-1.078.537 0 .985.49.985 1.078v21.844zM26 60.922c0 .588-.448 1.078-.985 1.078-.567 0-1.015-.49-1.015-1.078V39.078c0-.588.448-1.078 1.015-1.078.537 0 .985.49.985 1.078v21.844zM53 59.438c0 .383-.228.734-.587.925-8.146 4.404-18.248-.446-18.41-10.147-.164-9.095 8.472-14.296 17.596-11.424 1.564.478.88 2.52-.652 2.01-7.658-2.425-14.892 1.755-14.761 9.382.13 8.041 8.342 11.647 14.63 8.616v-8.808c0-1.404 2.184-1.404 2.184 0v9.446z"/><path d="M51.371 42.824c1.277.596.415 2.478-.862 1.945-1.15-.502-2.49-.722-4.024-.69-7.28.282-7.057 10.851.064 10.788v-5.363c0-1.38 2.172-1.38 2.172 0v6.336c0 1.129-1.47 1.16-2.268 1.16-9.707 0-10.154-14.646-.031-14.991 1.884-.063 3.512.22 4.95.815zM65 60.922c0 .588-.448 1.078-.985 1.078-.567 0-1.015-.49-1.015-1.078V39.078c0-.588.448-1.078 1.015-1.078.537 0 .985.49.985 1.078v21.844zM60 60.922c0 .588-.448 1.078-.985 1.078-.567 0-1.015-.49-1.015-1.078V39.078c0-.588.448-1.078 1.015-1.078.537 0 .985.49.985 1.078v21.844zM84.039 42c.54 0 .961.474.961 1.075 0 .569-.42 1.012-.961 1.012h-4.026v15.838c0 .6-.45 1.075-1.022 1.075-.54 0-.991-.474-.991-1.075v-16.85c0-.6.45-1.075.991-1.075h5.048zM69.084 40C68.478 40 68 39.545 68 39c0-.576.478-1 1.084-1H83.98c.574 0 1.021.424 1.021 1 0 .545-.447 1-1.02 1H69.083zM69.017 44.087A1.004 1.004 0 0 1 68 43.075c0-.6.449-1.075 1.017-1.075h4.966c.568 0 1.017.474 1.017 1.075v16.85c0 .6-.449 1.075-1.017 1.075-.539 0-1.017-.474-1.017-1.075V44.087h-3.949zM93 55c-.545 0-1-.482-1-1.094 0-.61.455-1.061 1-1.061h1.455l-.91-2.38c-.181-.547.061-1.19.546-1.383a1.006 1.006 0 0 1 1.333.547l1.485 3.86c.06.128.091.257.091.417 0 .612-.485 1.094-1.06 1.094H93zM90.97 60.341c-.187.53-.776.78-1.334.593-.527-.25-.774-.843-.558-1.374l.744-1.904c.186-.375.59-.656.961-.656H97.2c.465 0 .868.343.992.75l.743 1.81c.186.531-.03 1.125-.557 1.374-.527.188-1.147-.03-1.364-.593l-.496-1.218h-5.021l-.527 1.218z"/><path d="M86.122 60.328c-.262.545-.883.8-1.44.609-.523-.257-.817-.865-.62-1.41l8.93-21.838c.228-.576.883-.833 1.406-.608.327.096.523.352.622.608l8.897 21.839c.23.544-.033 1.152-.589 1.409-.556.192-1.21-.064-1.439-.609l-7.883-19.437-7.884 19.437zM120.914 59.812c.625 0 1.086.49 1.086 1.11A1.07 1.07 0 0 1 120.914 62h-12.796c-.625 0-1.118-.49-1.118-1.078V39.078c0-.588.493-1.078 1.118-1.078.593 0 1.086.49 1.086 1.078v20.734h11.71z"/><path d="M112 39.043c0-.569.466-1.043 1.025-1.043.59 0 1.056.474 1.056 1.043v15.839h6.894c.59 0 1.025.474 1.025 1.075 0 .569-.435 1.043-1.025 1.043h-7.95A1.043 1.043 0 0 1 112 55.957V39.043z"/></g></svg>
