<svg width="637" height="99" xmlns="http://www.w3.org/2000/svg"><path d="M23.92 79.2c-.16.32-.32.48-.8.48.16-.16.8-.8.8-.48zM53.2 65.92c.64-.48 1.44-.64 2.24-.96-.16.8-1.6.96-2.24.96zm2.56-.16c.16-.16.32-.32.64-.32.16.48-.32.32-.64.32zm-.32.48c-.32 0-.48-.16-.64-.16 0-.48.64-.32.64.16zm-21.76 0c.32 0 .32.16.48.16 0 .32-.8.16-.48-.16zm16.8.64c0 .8-.64.64-1.28.8.32-.48.8-.64 1.28-.8zm-1.76.8c-.16.16-.32.48-.64.48 0-.48.32-.48.64-.48zm-.96 1.6h-.32v-.32h.32v.32zm-2.56.32h-.48v-.32c.16 0 .16 0 .16-.16h.32v.48zm-5.44.16h-.32v-.32c.16 0 .16 0 .16-.16h.32v.32c-.16 0-.16 0-.16.16zm3.2.32c0-.32.32-.32.8-.32-.16.32-.48.64-.8.32zm-.48 1.76c.16-.48-.32-.32-.48-.48-.16.48 0 .64.48.48zm-18.4-.16c0-.16.16-.16.16-.32h.32c0 .32-.16.32-.48.32zm16.16.96l.96-.48h-.96v.48zm-18.4-.16c0-.16.16-.16.16-.32h.32c0 .32-.16.32-.48.32zm15.36.32c-.32-.64.64 0 .64-.48.48.16-.16.64-.64.48zm-1.28 1.76c.32-.16.8-.16.8-.64h-.32c0 .32-.48.32-.48.64zm-2.56 0l.076-.147c.145-.264.342-.493.884-.493 0 .48-.32.64-.96.64zm-14.88.64h-.32v-.32h.32v.32zm11.52.96c0-.64.64-.48.96-.32-.16.16-.48.32-.96.32zm-14.72.32c.16-.32.48-.48.8-.16-.16.16-.64.32-.8.16zm11.36 0h-.32v-.32h.32v.32zm2.4.32v-.32c.16 0 .16 0 .16-.16.32 0 .16.8-.16.48zm-4.8.48c-.16 0-.16-.32-.32-.32.16-.32.8-.32 1.28-.16-.32.32-.8.32-.96.48zm3.52 0c0-.32.48-.32.64-.16 0 .16-.48.16-.64.16zm-14.88.64c.32-.32 0-.16 0-.64.16-.16.8 0 1.12.16-.32.32-.48.64-1.12.48zm10.56 0h-.32v-.32h.32v.32zm-11.04.8c-.64 0-.96-.32-.96-.96.48.16 1.12.16.96.96zm6.72.8c-.32-.48.64-.8.8-1.28.32 0 .32.48.32.8-.64-.48-.64.32-1.12.48zm6.08-.96c0-.32.32-.32.64-.32.16.48-.32.32-.64.32zm-4.8 1.28c-.32 0-.32-.16-.32-.48.16 0 .32.16.32.48zm3.52.64c.48 0 .64 0 .64-.48l-.147.002c-.264.01-.493.072-.493.478zm-6.24.64h-.48v-.32c.16 0 .16 0 .16-.16h.32v.48zm-2.08 1.12c-.16-.64.48-.64.48-1.12h.64c0 .32-.16.32-.16.64-.8-.48-.32.48-.96.48zm-8.32-.8c-.32 0-.64 0-.64.32.32 0 .64 0 .64-.32zm7.84.32c.48 0 .32.8-.16.8 0-.32 0-.64.16-.8zm-6.24.64H8.4v-.32c.16 0 .16 0 .16-.16h.32v.48zm10.4.16v-.48h-.32c0 .16 0 .16-.16.16v.32h.48zm-11.2.48c-.16 0-.16-.16-.32-.16v-.32c.32 0 .32.16.32.48zm.8.48c-.48-.16 0-.64.48-.48 0 .32-.48.16-.48.48zM7.6 84.8c.48 0 .96-.16.8-.8.8 0 1.44-.32 1.6-.96.32 0 .32.16.48.16-.32.8-1.28.96-1.76 1.44 0 .16.16 0 .48 0 0 .96-1.44.96-1.6.16zm5.44-1.44c-.32 0-.32.16-.64.16 0-.64.48-.48.64-.16zm-11.2.96v.48c.48-.16.32-1.12.64-1.44-.8.32-1.28.96-1.92 1.44.48.48.64-.48 1.28-.48zm10.24 0c-.16-.32.16-.32.48-.32 0 .16-.16.32-.48.32zm-6.56.8c-.16-.48 0-.32 0-.96.32 0 .48.32.96.16-.48.16-.32.8-.96.8zm1.12-.16c0-.16.16-.16.16-.32h.32c0 .32-.16.32-.48.32zM9.2 86.4c0-.32-.16-.48-.32-.48 0 .16-.16.32-.16.48h.48zm-4.48.8c.16-.16.16-.64-.16-.64 0 .32-.32.48.16.64zm10.24-4.64v.64c-.32.32-.8.16-1.28.16 0-.6.844-.497 1.213-.745l.067-.055zm28-12.48c0 .8-.96.48-1.28.96-.48-.48.96-.64 1.28-.96zm5.44-1.44c-.32.48-.32-.32-.8-.16 0-.16.16-.16.16-.32h.32c0 .32.16.48.32.48zm-17.6 8.32c.7-.14 1.277-.525 1.84-.833l.24-.127c-.16-.16-.32-.16-.48-.16.16-.48.8-.32.48-1.12.96.8 2.08-.96 2.72 0 .16-.32 0-.96.8-.8-.16-.48.64-.16.48-.8-.32-.16-.48.48-.48-.16.8-.16 1.12.64 1.92.64.16-.48 1.76-.48 1.28-1.12 0 .16-.16.16-.32.16.64-.64 1.6-1.12 2.72-1.28.64-.48 1.12-.16 1.6.16 2.88-1.92 7.04-2.56 10.4-4.64.32.32.48-.16.96 0 .48-.96 1.44-.48 2.08-1.28 3.84-.96 8.32-3.04 12.48-4 7.04-3.04 14.88-4.48 20.64-8.8 0-2.72-.96-3.52-1.76-5.28v-.8c-1.28-2.56-2.56-4.8-5.44-5.6-.64.16-1.6-.16-2.08-.64-3.04 0-7.04-1.76-10.72-1.92-5.6-1.12-12-2.24-17.6-3.2-2.08-.32-4.16-.48-5.92-1.28 6.56-3.68 14.56-6.72 22.56-8.16 5.44-.96 12.48-3.04 17.28.16.96-.48.96.64 1.92.48.64-.64-.32-1.6.16-2.4-2.08-2.56-1.44-6.08-4-8.32-1.44-.48-2.72-1.76-4.48-1.44-.32-.16-.8-.16-1.12-.32-.96 0-1.44.16-2.56 0-2.24.32-3.84.64-5.6.64-4.64 1.28-9.6 2.08-15.04 3.84-6.88 3.04-14.88 5.6-20 10.88-.16.64 0 1.6-.32 2.24 1.92 3.68 3.2 8.16 6.4 10.56 0-.16.32-.16.48-.16 1.28 1.76 4.96 1.44 6.56 2.56.32 0 .32-.32.8-.16 2.56 1.28 5.44.8 7.68 2.08 1.92 0 2.24.32 3.84.16 0 .48.64 0 .8.64 1.6-.32 3.36.64 4.96.32.64.96 3.2.16 3.68 1.12.96-.48 1.44.32 2.56.48-2.72.96-5.44 2.4-7.84 2.72-21.92 7.84-43.2 16.32-60.96 29.12-.16.96-1.28 1.12-1.76 1.92.16.64.8-.16.8.48h.32c.32-.48-.16-1.12.96-1.44.16.32-.8.8 0 .8.96-.64 1.28-1.92 2.4-2.56 0 .64-.48.48-.64.96.8-.64 1.76-.96 2.72-.8-.16-.48.16-.8.16-1.12.32 0 .32.16.48.16.16-.32-.48-.64 0-.64.32.8 1.6-.8 1.92 0-1.44.64-2.24 2.24-3.84 2.4 0 .64-.64.64-.64 1.28-1.76.32-2.4 1.6-3.36 2.56.32.16.64-.48.8 0-.16.16-1.12.32-.48.64.16-.48.16-.16.64-.16 0-.32 0-.8.32-.8v.8c.64.16.8-.8 1.12-.48-.16.48-.8.48-.8 1.12.96-.16 1.28-.8 1.92-1.12.32.16-.32.48.16.64.16-.32.48-.32.64-.16-.16.16-.8.48-.16.64.64-.16 1.12-1.6 1.76-.8-.16-.48.32-.64.16-1.12.48 0 .48-.32 1.12-.16 0 .8.64.96.16 1.76.64.16.64-.32.8-.64-.16 0-.16-.32-.16-.48.48-.16.64-.32 1.12-.48.16.8-.96.16-.8.96.8 0 1.12-1.28 1.76-.48V84c.96 0 1.44-.64 1.44-1.12.96.16 1.76-.16 2.88-.16.16-.64.64-1.12 1.28-1.28.48 0 .16.64.64.48.16-.16.48-.16.8-.32.16-.32-.48-.48 0-.64.32-.32.32 0 .64.16.32-.32-.32-.32-.16-.8.427-.284.853-.569 1.392-.629l.208-.011c-.32.48-.96.48-1.12 1.12.64 0 .8-.8 1.6-.32 0-.64.64-.64 1.12-.96 0 .32 0 .48.32.48s.32-.16.64-.16c0-.32-.16-.32-.16-.64.8-.32 1.12-.32 1.76-.32.48-.16-.32-.32-.16-.64 1.28.16 1.76-1.28 2.4-1.12 0 .48-.96.64-.48.96.64-.64 1.28-.48 1.76-1.12zM154 .8c0-.16 0-.16.16-.16V.32c-.32-.16-.32.16-.32.48h.16zm-.16 0c-.16 0-.16.16-.32.16v.64c.48.16.16-.64.32-.8zm-.48.8c-1.12.16-.48 2.24-1.44 2.88-.48-.16-.48-.8-1.12-.64v.96c-1.92 0-.96 3.04-2.88 3.36-.32 1.6-1.6 2.4-1.76 4.32-1.28.64-.96 3.04-2.4 3.68-2.88 5.6-6.08 11.04-9.6 16.16-1.28 3.04-3.68 5.28-4.96 8.48-2.88 3.68-5.6 7.52-8.8 10.88.16.32-.32.32-.16.8-5.44 5.6-9.76 12.32-16.8 16.48 0-.32-.16-.64-.32-.64 0 .48 0 1.12-.64.96-.16-1.76.8-3.04 0-3.68.64-.32.16-1.6.96-1.6 0 .8-.16 2.72-.32 4 1.28-1.92.8-5.6 1.76-7.68-.32-2.24.96-2.88.8-4.96.48 0 .16-.64.48-.64h.64c.16-1.12 0-1.28-.32-1.92.32-.48.8-.48.8-1.12-1.12-.8.16-2.4.48-3.2.32 0 0 .64.48.64 2.88-7.68 4.64-16.16 9.92-21.28.64.64 1.6-.16 2.4 0 .16-.48.16-.8.16-1.28-1.76-1.76-3.2-3.68-5.76-4.32-.32-.32-.32-.8-.64-1.12-1.28 0-1.28-1.28-2.4-1.28-1.44.64-3.52.48-4.32 1.92-.16-.16-.16-.48-.48-.32-1.76 2.24-3.2 4.96-4.64 8-.8 1.76-1.28 3.2-2.08 5.28-.16.32-.64.64-.8 1.12-.16.32 0 .96-.16 1.44-.16.32-.64.8-.8 1.28-.48 1.28-.48 2.72-.96 4.16-.64 2.08-1.6 4.16-2.08 6.4-.48 1.92-.64 3.84-1.12 5.92-1.28 5.92-3.52 15.2.96 18.72 0 .32-.32.48.16.64.16-.32.32-.48.48-.64 0 .32.64.16.64.8.32-.16.64-.32.96-.32 0 .32.48.16.32.64 3.04.96 5.92 2.24 8.8 2.56.48-.48 1.76-.64 2.24 0 1.12-1.12 3.04-1.28 4.48-1.92.16-.32.16-.64.48-.64 4.96-2.24 7.68-6.56 11.36-9.92 1.6-3.68 5.6-4.96 6.08-9.44.96.64.48-2.08 1.44-.8.8-1.76 1.76-3.36 2.56-4.96 1.76-.64 1.12-2.72 2.72-3.36.96-2.88 3.84-5.44 5.28-8.64.16-.64-.32-.8-.16-1.28.16.48.96-.16.96-.64-.16-.64-.48.64-.64.16 1.12-2.72 3.2-4.64 4.16-7.52.48-.48 1.6-1.44.96-1.92-.48.48-.32 1.6-1.28 1.6 2.24-4.64 4.32-8.64 5.92-14.24-.8-.16-.64.8-1.28.96.48-2.08 1.76-4.48 2.4-6.88-.64.64-.8-.16-1.12.32 0 .64.16.32.32 1.12-.64.16-.32-.64-.8-.48 0 .96.48 2.08-.8 2.08 0 .48-.16.96-.64 1.28.48-2.88 2.24-4.96 1.92-7.68.48-.16.32.16.64 0-.48-.48.16-.96-.48-1.28-.32.32-.32.96-.64 1.44-.16-1.44 1.12-2.4.48-3.2zm.8 1.6c.16-.32-.48-.8-.48-.32.16 0 .16.32.48.32zm.32 1.44c.32 0 .32-.16.48-.32-.32 0-.64-.16-.48.32zm-3.52.64V4.8c.48-.32.48.64 0 .48zm3.68.16v-.32h-.32v.32h.32zm-3.36.96c-.64-.16.16-.96.48-.96 0 .48-.48.48-.48.96zm-.16 1.12h-.32v-.64h.32v.64zm3.52.32c.16-.32.16-.64-.16-.64-.16.16-.16.48.16.64zm-2.08 2.72v-.32h-.32v.32h.32zm-3.2 15.2c.32-.16 1.28-.96.48-1.12 0 .48-.64.32-.48 1.12zm-6.72 12.96h-.48c-.16-.48.16-.48.16-.64.16 0 .32.32.32.64zM141.2 40c0-.32.32-.48.64-.32 0 .16-.32.32-.64.32zm-2.4 4.32c-.32-.16-.32-.32-.32-.64h.48c0 .32-.16.32-.16.64zm-1.44 1.12c.64 0 0 .32.32.8-.48.16-.32-.64-.32-.8zm-2.56 4.96h-.32v-.48h.48c0 .16-.16.16-.16.48zm-26.88.64c0-.48-.32-.64-.48-.64 0 .16-.32.16-.16.64h.64zM106 52.16h-.32v-.32h.32v.32zm26.24 1.44c0-.48.16-.96.64-.8-.16.32 0 .96-.64.8zm-25.92.8H106v-.32h.32v.32zm-1.44 2.4c-.48-.16-.16-.96.32-.8.16.48-.48.32-.32.8zm-.64 1.76c-.16-.48 0-.8 0-1.44.32-.16.64 0 .8.16-.16.48-.16 1.28-.8 1.28zm0 2.72c-.48 0-.32-.32-.64-.32.32-.64.16-.96.48-1.76.64 0 .32 1.12.16 2.08zm-.32.8c-.32-.16-.32-.32-.32-.64.32 0 .32.16.32.64zm-.64 1.6c.16-.64 0-.64 0-1.12.32 0 .32-.32.64-.16 0 .64 0 1.28-.64 1.28zm21.28 1.28c-1.12-.64.32-1.6.96-1.76 0 .96-1.12.64-.96 1.76zm-4 4c-.48-.16.16-.48.16-.64.48.16-.16.48-.16.64zm-3.68 3.68c-.48-.32 0-.96.48-.8-.16.32-.32.48-.48.8zm-2.08 1.28c-.48-.16.16-.48 0-.64.48-.16.64 0 .64.48-.32 0-.64-.16-.64.16zm-.96.8c-.64-.16-.32-.8 0-.96.16 0 .32.16.64.16-.16.32-.48.32-.64.8zm-.48.16h-.32v-.32h.32v.32zm-16.96.16c.32 0 .32-.32.32-.48h-.16s0 .16-.16.16v.32zm62.08-53.12c0-.16.16-.16.16-.48-.32.16-.8.16-.64.48h.48zm-7.68 7.04c.128 0 .154-.102.24-.143l.08-.017c0-.16 0-.32-.16-.32-.16.16-.16.32-.16.48zm-3.68 8.96c.16-.16.32-.96 0-1.12.16.48-.48.96 0 1.12zm-10.08 23.84c.8-.64 1.12-1.6 1.6-2.56-.64.8-1.44 1.44-1.6 2.56zm-3.68 4.48c-.48-.16.16-.64 0-1.12.64 0 .16 1.12 0 1.12zm-4.48 7.36c-.16-.16-.64 0-.48-.48.32 0 .48.16.48.48zm28.16-50.56c-1.12 1.28-2.56 3.04-3.84 3.36 1.138-.996 2.15-2.118 3.371-3.029l.469-.331zm-20.16 43.04c0 .32.16.8-.32.64 0-.284 0-.442.225-.586l.095-.054zm18.151-.814l-.016-.006c-.12-.07.13-.3.265-.3 0 .32.32.32.32.48-5.12 3.2-12.64 5.28-17.6 6.56-.64-.32-1.28.16-1.76-.16-.32.16 0 .8-.48.64-.32 0-.48-.16-.48-.32 1.12-2.24 1.28-4.32 2.56-6.72 0 .64.32.16.48 0 0-.64-.32 0-.64-.16.16-.48.64-.64.64-1.28-.64.16-.64 1.6-1.12 1.28.32-1.28 1.92-2.24 1.12-3.84.48.16.16-.48.48-.64-.16.32.16.32.32.32.16-.16 0-.64-.16-.96-1.12.8-1.44 2.08-2.24 3.04-.16-.8.48-.64.32-1.44-.48-.48-.64.8-.96.32.32-.48.8-.8.8-1.76-1.12.8-1.28 3.04-2.4 3.04.32.64 0 1.12-.64 1.12-.16-.32.64-.8.16-1.12-.16.32-.16.64-.48.8-.32-.8.32-.8.32-1.44-.8 1.28-2.4 1.92-2.08 3.2-.32.32-.48-.16-.8.16 0 1.92-1.28 2.24-1.6 3.52-.16 0-.16-.32-.48-.32 0 .64-.32.8-.16 1.28-1.6.48-.64 1.92-.96 3.04.8.64 1.76 1.28 2.56 1.44 0 .48-.64.16-.48.64.48.32.48.8 1.12.96 1.92 3.36 5.92 5.12 10.4 4.96.96-.64 3.2 0 4-.8 3.52-.16 6.4-1.12 9.44-2.56 3.84-1.28 7.04-2.24 10.08-4.64 1.44 0 2.88-1.28 4.32-2.24 5.92-2.4 9.76-5.92 15.36-8.8 2.4-2.24 4.96-4.16 7.84-6.08 5.28-4.96 10.4-10.08 14.72-16v-.8c3.2-4 5.28-9.92 4.8-15.2-1.28-3.84-3.52-8.16-6.4-11.04-1.12-.96-2.4-1.28-3.52-2.08-.8-.32-.96-.96-1.6-1.28-2.08-.64-4.16-1.6-6.4-1.92-2.08-.16-4.16.32-6.24-.16-.8.48-2.4.32-3.36.16-.48.48-.48.48-1.12.16-.48.48.32.48.48.8-5.44.8-9.44 3.2-14.72 5.12 0 .48.16.32 0 .64-.64.16-1.12.32-1.6 0-.16 1.44-2.08 1.12-2.24 2.4-1.28.16-2.4.8-3.04 2.08-.16 0-.16-.32-.48-.32-.32.48-1.44.64-.96 1.44-.64 0-.64.8-1.44.64 0-.16.16-.16.16-.48-.48 0-.8.64-.48.8 0-.16.32-.16.32 0-.32.16-.48.48-.8.48-.48.48-.8 1.12-1.44 1.12 0-.48.64-.32.64-.96-2.4 1.92-4.8 3.84-6.4 6.24.8-.16 1.12-1.6 1.92-1.44-.64.8-1.28 1.44-2.08 1.92 0 .32 0 .64-.32.48-.16 0-.16-.16 0-.32-.64 0-.48.64-.48 1.12-.32.16-.32-.16-.48-.16 0 1.76-1.76 3.2-2.08 5.12.8 0 .32-1.28 1.12-1.28-1.92 3.52-2.88 8.32.8 10.4-.32.48.48.96.8 1.12 1.76-.16 3.04-.96 3.52-2.56-.48-.32-.48-1.12-1.12-1.28.32-.32 0-.32 0-.8 1.76-3.84 3.84-7.36 6.72-10.24 3.04-3.04 6.88-5.6 11.2-7.68.96-.48 2.08-1.28 3.2-1.76 3.2-1.28 7.04-2.56 11.04-3.2 0-.32.64-.32.96-.64.64.48 2.56 0 4.16 0 3.84 0 7.68 0 11.36 1.92.96 4.96-1.6 10.88-4.32 14.24-5.6 8.96-13.76 15.2-22.08 21.44-5.12 3.2-10.24 6.88-15.68 8.96 1.28-6.4 5.12-10.4 7.36-16 2.56-3.68 4.16-8.32 7.04-11.84-.96-2.88-3.36-4.48-5.12-6.56-.96-.16-1.76.8-2.4.16-.16.32-.32.64-.8.48-4.64 8.32-9.92 16.16-14.08 24.8-.16 1.76-1.44 4-.32 5.6.32.32.48-.16.8.16.463 1.545 1.524 4.432 3.036 4.773l.075.013zM232.56 21.6c.32-.16.32-.48-.16-.64-.16.32 0 .48.16.64zm-15.36 40c-.32-.96.16-2.56-.64-3.2.64-2.4.8-5.6 1.28-8.8.48-.16.32-.8.64-.96 0-.64.32-.8.16-1.6 1.44-2.24 1.92-5.44 3.68-7.2v-.8c2.72-2.88 4.48-6.56 8-8.64.16.8.48 1.28.64 1.76.48-.16.8-.32 1.12-.48.32.8-.32.64 0 1.44.48-.48 1.12-1.28 1.92-.96 1.12-2.56 2.88-4.32 5.28-5.6 1.6-1.92 6.08-3.52 9.12-2.08-.96 8.32-6.4 12.48-9.6 18.56-1.12.8-1.6 2.4-2.72 3.2-.16.16.16.32 0 .48-5.44 5.76-9.92 12.64-18.88 14.88zm4.8-34.72h-.32v-.48h.48c.16.32-.16.32-.16.48zm-3.52 3.04c.32.16.32.32.32.48-.32.16-.32-.16-.32-.48zm12.64 1.12h-.32v-.32h.32v.32zm-.16 1.76c.32-.16.48-.48 0-.64v.64zm-15.52 2.4h-.48v-.32c.16 0 .16 0 .16-.16h.32v.48zm-2.24.48v-.32h-.32v.32h.32zm-.64 1.44v-.32h-.32v.32h.32zm41.28 3.36c0-.48.48-.48.32-.96.8 0 .16.96-.32.96zM210.16 44v-.32c.16 0 .16 0 .16-.16.32 0 .32.8-.16.48zm-1.76 7.04c-.96-1.76.48-4.48.96-6.56.64 1.92-1.28 4.16-.96 6.56zm1.6-4.96c-.16-.48.48-.48.32-.96.64.16.16.96-.32.96zm40.16-.32c.32.16.32.32.32.48-.32.16-.32-.16-.32-.48zM209.84 48h-.32v-.32h.32V48zm38.72.64h-.48v-.32c.32 0 .64 0 .48.32zm-40.96 4c.16-.64.32-.96.32-1.44.32.32.16 1.44-.32 1.44zm-.8-.16c-.16-.32.48-.64 0-.96 0 .16-.32.96 0 .96zm36.96.8h-.32v-.32h.32v.32zm-37.12.8c0-.32.16-.64.48-.64 0 .32 0 .8-.48.64zm35.2.48c-.32 0 0-.64.32-.64.16.48-.32.32-.32.64zm-3.04 4.16c-.32 0 0-.48-.16-.8.32.32.48.64.16.8zm-31.04 0h-.32v-.32h.32v.32zM234 65.28v-.32h-.32v.32h.32zm-4.8 2.4h-.32v-.32h.32v.32zm-15.52-30.24c0 .48-.16.8-.48.96 0-.427.126-.727.38-.9l.1-.06zm-1.12 2.24c.16.48.16.8-.32.8-.144-.144-.029-.547.229-.743l.091-.057zm15.2 28.64c-.32 0-.48.32-.64-.16.32-.16.64-.48.64.16zm-16-27.52h.32c.16.96-.16 1.6-.8 1.76 0-.8.48-.96.48-1.76zm0 0c-.96.16-1.12 1.44-.96 2.24-.96-.16-.64.96-.96 1.28-.64-2.24 2.24-4.64 2.08-7.04-1.6 4.16-4.16 8.96-4.16 13.28-.32.16-.16.64-.48.64.32 1.12 0 1.6-.64 2.08 0-.16.16-.48-.16-.48-.48 1.76.64 4.16 0 5.6.16 1.6.96 2.72 1.92 3.36 0 .32-.32.48-.48.8.96-.32.64.16.48.8.64-.32.8 0 .96-.64.32.32.8 1.12.16 1.28 1.843 2.611 5.603 4.338 7.741 5.32l.185.086-.016-.016c-.06-.09-.03-.27.09-.27 1.536.46 3.957 1.07 5.139.268l.141-.108v.48c1.76-.8 3.52-.64 4.96-1.44.32-.64.96-.32 1.76-.32.32-.32-.16-1.28.64-1.44.16.64-.32 1.12.16 1.12.16-.48 0-1.12.64-1.44.48.32.48.48.96.16.16-.16-.48-.64 0-.8.64.32.48-.16 1.28 0 0-.96 1.12-1.6 1.76-1.44.64-1.12 2.08-1.6 2.88-2.56 0 .16.16.32.16.32.16-.8.96-1.44 1.44-1.28 1.76-3.04 5.28-4.96 6.4-8.16.32-.16.64-.16.8-.32 1.28-2.24 2.56-3.36 3.84-5.6 0 .16.32.16.32.16-.16-.8.8-.64.48-1.44.8-.16 1.6-1.12 1.6-2.4.64.16.64-.16.8-.48-.16.16-.16 0-.32-.32 1.28-.32 1.12-1.92 2.08-2.4 1.6-3.36 5.44-8.48 3.84-13.76-1.28-1.28-2.4-2.88-4.48-3.68-1.28-1.44-3.2-2.4-5.12-3.52v-.48c-1.28 0-1.92-1.12-3.2-.8-.16 0-.32-.16-.32-.48-.96.48-1.44-.32-2.56-.32-.32.32.16.64-.48.8-.32-.8-1.6.16-2.4-.32 0 1.28-2.4.48-3.2 1.28.32 0 .64 0 .64.16 0 .32-.32.32-.8.32.16-.32 0-.48-.32-.48-.48.48 1.12 1.6-.32 1.44.16-.16.16-.16.16-.48-.64-.16-1.12.32-1.76.16-.16.32.16.48 0 .96-.48 0-.48.64-1.12.64 0-.32 0-.48-.32-.64-.16.32-.48.8 0 .96-.48.32-.8.8-1.44.96-.32.16-.48 0-.64-.32-3.68 0-6.08 1.12-8.8 2.72 0 .64-.48.96-1.28.96-.32.64-.48 1.6-1.6 1.6-.64 1.12-1.12 2.4-2.56 2.88.16 1.6-1.92 1.6-1.6 2.88h-.64c.16.96-.32 1.12-.8 1.44.48.8-.16.8-.32 1.44.32.48.48-.32.64.16-.32.32-.48.96-.96 1.28 0-.8.64-.96 0-1.6 0 1.44-1.6 2.08-.64 3.04-.16.32 0 .8-.48.8 0-.32.32-.32.16-.64-.16 0-.32-.16-.64-.32 0 .48.32.48.32.8-.32.16-.32.48-.64.48v.8zM312.4 21.92c0-.16.16-.16.16-.48-.32.16-.8.16-.64.48h.48zm-7.68 7.04c.128 0 .154-.102.24-.143l.08-.017c0-.16 0-.32-.16-.32-.16.16-.16.32-.16.48zm-3.68 8.96c.16-.16.32-.96 0-1.12.16.48-.48.96 0 1.12zm-10.08 23.84c.8-.64 1.12-1.6 1.6-2.56-.64.8-1.44 1.44-1.6 2.56zm-3.68 4.48c-.48-.16.16-.64 0-1.12.64 0 .16 1.12 0 1.12zm-4.48 7.36c-.16-.16-.64 0-.48-.48.32 0 .48.16.48.48zm28.16-50.56c-1.12 1.28-2.56 3.04-3.84 3.36 1.138-.996 2.15-2.118 3.371-3.029l.469-.331zM290.8 66.08c0 .32.16.8-.32.64 0-.284 0-.442.225-.586l.095-.054zm18.151-.814l-.016-.006c-.12-.07.13-.3.265-.3 0 .32.32.32.32.48-5.12 3.2-12.64 5.28-17.6 6.56-.64-.32-1.28.16-1.76-.16-.32.16 0 .8-.48.64-.32 0-.48-.16-.48-.32 1.12-2.24 1.28-4.32 2.56-6.72 0 .64.32.16.48 0 0-.64-.32 0-.64-.16.16-.48.64-.64.64-1.28-.64.16-.64 1.6-1.12 1.28.32-1.28 1.92-2.24 1.12-3.84.48.16.16-.48.48-.64-.16.32.16.32.32.32.16-.16 0-.64-.16-.96-1.12.8-1.44 2.08-2.24 3.04-.16-.8.48-.64.32-1.44-.48-.48-.64.8-.96.32.32-.48.8-.8.8-1.76-1.12.8-1.28 3.04-2.4 3.04.32.64 0 1.12-.64 1.12-.16-.32.64-.8.16-1.12-.16.32-.16.64-.48.8-.32-.8.32-.8.32-1.44-.8 1.28-2.4 1.92-2.08 3.2-.32.32-.48-.16-.8.16 0 1.92-1.28 2.24-1.6 3.52-.16 0-.16-.32-.48-.32 0 .64-.32.8-.16 1.28-1.6.48-.64 1.92-.96 3.04.8.64 1.76 1.28 2.56 1.44 0 .48-.64.16-.48.64.48.32.48.8 1.12.96 1.92 3.36 5.92 5.12 10.4 4.96.96-.64 3.2 0 4-.8 3.52-.16 6.4-1.12 9.44-2.56 3.84-1.28 7.04-2.24 10.08-4.64 1.44 0 2.88-1.28 4.32-2.24 5.92-2.4 9.76-5.92 15.36-8.8 2.4-2.24 4.96-4.16 7.84-6.08 5.28-4.96 10.4-10.08 14.72-16v-.8c3.2-4 5.28-9.92 4.8-15.2-1.28-3.84-3.52-8.16-6.4-11.04-1.12-.96-2.4-1.28-3.52-2.08-.8-.32-.96-.96-1.6-1.28-2.08-.64-4.16-1.6-6.4-1.92-2.08-.16-4.16.32-6.24-.16-.8.48-2.4.32-3.36.16-.48.48-.48.48-1.12.16-.48.48.32.48.48.8-5.44.8-9.44 3.2-14.72 5.12 0 .48.16.32 0 .64-.64.16-1.12.32-1.6 0-.16 1.44-2.08 1.12-2.24 2.4-1.28.16-2.4.8-3.04 2.08-.16 0-.16-.32-.48-.32-.32.48-1.44.64-.96 1.44-.64 0-.64.8-1.44.64 0-.16.16-.16.16-.48-.48 0-.8.64-.48.8 0-.16.32-.16.32 0-.32.16-.48.48-.8.48-.48.48-.8 1.12-1.44 1.12 0-.48.64-.32.64-.96-2.4 1.92-4.8 3.84-6.4 6.24.8-.16 1.12-1.6 1.92-1.44-.64.8-1.28 1.44-2.08 1.92 0 .32 0 .64-.32.48-.16 0-.16-.16 0-.32-.64 0-.48.64-.48 1.12-.32.16-.32-.16-.48-.16 0 1.76-1.76 3.2-2.08 5.12.8 0 .32-1.28 1.12-1.28-1.92 3.52-2.88 8.32.8 10.4-.32.48.48.96.8 1.12 1.76-.16 3.04-.96 3.52-2.56-.48-.32-.48-1.12-1.12-1.28.32-.32 0-.32 0-.8 1.76-3.84 3.84-7.36 6.72-10.24 3.04-3.04 6.88-5.6 11.2-7.68.96-.48 2.08-1.28 3.2-1.76 3.2-1.28 7.04-2.56 11.04-3.2 0-.32.64-.32.96-.64.64.48 2.56 0 4.16 0 3.84 0 7.68 0 11.36 1.92.96 4.96-1.6 10.88-4.32 14.24-5.6 8.96-13.76 15.2-22.08 21.44-5.12 3.2-10.24 6.88-15.68 8.96 1.28-6.4 5.12-10.4 7.36-16 2.56-3.68 4.16-8.32 7.04-11.84-.96-2.88-3.36-4.48-5.12-6.56-.96-.16-1.76.8-2.4.16-.16.32-.32.64-.8.48-4.64 8.32-9.92 16.16-14.08 24.8-.16 1.76-1.44 4-.32 5.6.32.32.48-.16.8.16.463 1.545 1.524 4.432 3.036 4.773l.075.013zm46.169 8.654c0-.48-.48-.64-.48-.96.48.16.32-.32.64-.32-.16.48.48.96 0 1.28h-.16zm32.32-49.44h-.32v-.32h.32v.32zm-2.4 4.8c-.48-.32.48-.48.16-.96.64 0 0 .8-.16.96zm-.64.8c0-.32.16-.48.48-.48-.16.16 0 .64-.48.48zm-1.28 2.56c.16-.64.8-.96.8-1.76.48.16-.16 1.76-.8 1.76zm-1.44 1.12c-.48-.32.48-.48.16-1.12.32 0 .32.16.48.16.16.64-.64.48-.64.96zm-.48.8v-.48c.48-.32.48.64 0 .48zm-.32 1.92c-.16 0-.32-.32-.48-.32.32-.32.48-.8.96-.96 0 .48-.48.8-.48 1.28zm-1.44 1.6c.32-.16 0-.8.48-.64-.32.16 0 .8-.48.64zm.8 1.92c.32 0 .96-1.12.32-1.12.16.64-.32.64-.32 1.12zm-.96-.48v-.48c.48-.32.48.64 0 .48zm-.64 1.28c0-.48.16-.96.64-.96-.16.32-.16.8-.64.96zm-.64.16c-.16-.48.32-.32.32-.64.32 0 0 .8-.32.64zm2.24-.32v-.32h-.32v.32h.32zm-1.6.8h-.32v-.32h.32v.32zm-1.12 2.08c.16-.8-.32-1.12-.16-1.92.64.32.32.16.96 0-.16.64-.48 1.28-.8 1.92zm-.64.32c-.96 0 0-1.28.48-1.28-.16.48-.48.64-.48 1.28zm1.92-.32c0-.16 0-.16.16-.16 0-.16 0-.48-.32-.32 0 .16 0 .48.16.48zm-1.6.64c-.16 0-.16-.32-.16-.48.32-.16.32.16.32.32-.16 0-.16 0-.16.16zm.96.64c0-.16 0-.16.16-.16v-.32c-.32-.16-.32.16-.32.48h.16zm-.32.64c0-.32.16-.32.16-.64h-.16s-.48.64 0 .64zm-.48.32c0 .32-.16.48-.16.64.48.16.48-.64.16-.64zm-12.32.96c-.16-.16-.32-.32-.32-.64.48 0 .48.48.32.64zm8.96.48h-.32v-.32c.16 0 .16-.16.16-.16h.32v.32c-.16 0-.16 0-.16.16zm-.8-.16h-.32v-.32h.32v.32zm-7.04.32c.16-.16 0-.64.48-.48-.16.16 0 .64-.48.48zm10.4.32c-.32 0-.16.48-.32.64.48.16.32-.32.32-.64zm-3.2.8h-.32v-.32h.32v.32zm-1.6.96c.16-.16 0-.64.48-.48-.16.16 0 .64-.48.48zm-8.16 1.44h-.32v-.32h.32v.32zm6.88 3.04c.16-.96.48-1.44.96-2.4.765.612-.958 1.517-.27 2.435l.109.124-.077-.058c-.173-.101-.448-.101-.722-.101zm-8.8-1.28c.32-.32.16-.96.8-.96-.16.48-.32.96-.8.96zm-.64 1.28c.16-.48.32-1.12.96-1.12-.16.32-.48.48-.48.96 0 .32.32-.32.64 0-.16.64-.96.48-1.12.16zm9.12.16c.48-.16.32.16.64.32-.16.32-.8 0-.64-.32zm-1.28 1.28c0-.32.32-.64.16-1.12.32 0 .32.16.48.16-.32.16-.16.8-.64.96zm.32.96c-.16-.48.32-.48.32-.8.16.32.16.8.48 1.12-.64.16-.32-.48-.8-.32zm-8.32-.16v-.32c.16 0 .16-.16.16-.16.32-.16.16.64-.16.48zm7.68.64c-.64 0-.32-.32-.16-.64.48.16.16.16.16.64zm-8.48-.48c.16 0 .16.32.32.32-.16.48-.64-.16-.32-.32zm7.2 2.24c-.64-.48.32-1.44 1.12-1.44.16.64-.48.32-.32.96-.64-.32-.64 0-.8.48zm-7.36-.64v-.32c.16 0 .16-.16.16-.16.32-.16.16.64-.16.48zm.8.8c-.16-.32.16-.32.48-.32 0 .16-.16.32-.48.32zm7.04.16h-.32v-.32h.32v.32zM357.04 60c.48 0 .8-.96.48-1.28 0 .48-.48.8-.48 1.28zm1.92.48h-.32c0-.16 0-.32-.16-.32 0-.32.32-.16.64-.16-.16.16-.16.16-.16.48zm1.92.48c.16-.32.16-.64.64-.48-.32.16-.32.48-.64.48zm-4.066.328l.066-.008c-.16-.48.48-.96-.16-.8a7.8 7.8 0 00-.48 1.12c.443.148.34-.25.574-.312zm1.826-.008H358v-.64c.32 0 .64.32.64.64zm8.8 1.76c.16-.48.48-.8.64-1.28-.16 0-.48-.64-.64-.16.64.32-.64.96 0 1.44zm-9.92-.96c-.48 0 0-.64 0-.64.32 0 0 .48 0 .64zm2.72.64c-.32-.16-.16-.8.32-.64.16.48-.32.32-.32.64zm4.64.48c0-.48 0-.64.48-.64 0 .32 0 .64-.48.64zm-5.76 1.92h-.32v-.32h.32v.32zm-2.88.96c-.48 0 0-.8-.64-.64-.16.16-.16.8-.32.96.48 0 .96 0 .96-.32zm8.64.32c-.16 0-.16 0-.16.16.16.64.96-.96.16-.16zm-1.28 2.08c-.16-.8.48-.64.48-1.12-.16 0-.16-.16-.48-.16 0 .48-.96 1.12 0 1.28zm-9.12-.48s0 .16-.16.16v.32c.32.16.48-.64.16-.48zm7.84 2.08c.64 0 1.12-1.12.8-1.44 0 .16-.16.16-.32.16 0 .64-.32.96-.48 1.28zm-6.88-.96c.16-.32.16-.48.64-.48 0 .32-.32.32-.64.48zm1.6.32h-.48c0-.16.16-.32.16-.48.32-.16.32.16.32.48zm-3.68.96c.32-.48.8-.8.96-1.44-.64.16-.8.8-.96 1.44zm1.6.48c-.32-.16-.16-.8.32-.64.16.48-.32.32-.32.64zm-1.6-.48c-.16.16-.32.32-.32.64.48.16.32-.32.32-.64zm5.28 1.76c-.16 0-.16-.48-.16-.64.48.16.16.16.16.64zm2.56.96c.16-.48.8-1.12.48-1.44 0 .48-1.12.8-.48 1.44zm-5.28.16c0-.32.16-.32.16-.64.48-.16.48.96-.16.64zm1.76.48v-.48c.48-.32.48.64 0 .48zm3.36-.16v-.32h-.32v.32h.32zm-1.28 1.12v-.32h-.32v.32h.32zm-3.36 1.44c.16-.48.48-.96.64-1.6.8-.16-.16 1.28.48.64.48.16-.16.48-.16.64-.48-.8-.32.32-.96.32zm-1.6.16c-.64-.16.64-1.12.48-1.76.48.48-.16 1.44-.48 1.76zm-1.12 3.04v-.32h-.32v.32h.32zm1.44-5.44c-.48 1.28-1.12 2.4-1.6 3.68.48 0 .32-.8.96-.48.32.64-.64.96-.64 1.6.8-.48.16.48.8.48.48-1.12.96-2.08 1.76-2.88 0 .32-.16.48-.16.64.64.16.32-.64.8-.64.16.32-.48.8 0 .96.8-1.28 1.28-2.72 2.4-3.52-.48 0-.96-.8-.64-.96.16.32.48.32.96.32-.32-.64-.16-1.6.48-1.76.32.48-.8.8 0 .8.16-.48.8-1.12 0-1.28.32-.32.32 0 .8 0 .16-.64-.32-.48-.32-.96.8.16.48-.48 1.28-.32.16-.48.16-.8 0-1.28.48 0 .48-.96.96-.32-.16-1.76.48-2.72 1.44-3.68.16 1.44-.64 1.76-1.28 2.72 1.28 0 1.6-1.28 2.08-2.08-.8-.16 0-.96-.64-1.44.8-.32 1.12-.16.96.48.48-.16.96-.96.48-1.6h.64c-.32-.8.32-.96-.16-1.6.16-.16.48-.16.96-.16 0-.32 0-.64-.16-.64 0 .64-.48 0-.64 0-.48.64-.32 2.08-1.44 2.24.64-1.12 1.12-2.56 1.76-3.36.16.16-.16.8.16.8.32-.8.32-.16.8 0 .48-.64 0-1.92 1.28-1.92 0-.48-.64-.96-.16-1.12.16.16.48 0 .48.32-.16.64.16 1.76-.8 1.76.48 1.28-1.28 1.44-.8 2.56.16-.32.64-.32.96-.48.48-2.56 1.6-4.48 2.88-6.24 0-.96.48-2.56 1.6-2.88-.16-.64 0-1.92.8-1.92 0-1.28.48-1.92 1.12-2.56-.8 0 .16-.8.16-.96.16 0 .16.32.32.32.32-.32-.16-.64-.32-.8.16-.16.32-.48.48-.64.16.16-.16.8.16.8.16-.48.48-.8.64-1.28-.48-.32-.48.64-.64.16 0-.48.32-.64.48-.8-.16.48.48.16.48.64-3.36 7.84-7.52 15.04-10.56 23.2.96-1.12 1.12-3.2 2.4-4.16 1.28-4.16 3.68-7.36 4.96-11.52 2.143-3.06 2.968-7.44 5.276-10.335l.261-.311-.039.067c-.058.123-.058.27-.058.499.8-.16.32-1.12.16-1.44.8-.8.8-2.4 1.6-3.2.16.16 0 .8-.16 1.12.64-.96 1.76-2.4 1.6-3.68-.48.64-.48 2.4-1.28 2.24.64-1.28.8-2.88 1.92-3.68 0 .48-.48.64-.48 1.28 1.44-2.24 2.24-4.8 3.36-7.04 0-.48-.32-.32-.16-.8.32 0 .32.16.64.16 1.28-2.72 2.24-5.76 4.32-7.68.16-1.6-1.92-1.76-2.88-2.72v-.8c-.64-.48-1.6-.8-1.76-1.92-.96 0-1.28-.8-2.24-.8.32-.64-1.28-.64-1.28-1.44-1.28-.16-1.92-.16-3.04 0-2.56 4.48-4.48 10.4-6.88 15.68-1.44 1.44-1.6 4.16-3.04 5.6 0 .32.16.32.16.64-2.72 3.84-3.68 8.64-6.4 12.48.32 1.28-1.44 2.08-.96 3.52-.64.32-1.28 1.28-.96 2.08h-.48c0 .32.48.8-.16.8v.64c-.16.16-.48.16-.8.16.32 1.6-1.92 2.08-.96 3.36-.32.16-.32.64-.48.8-.48-.32-.8.32-.8.96.96-.48.32.32.96.48 0 .32 0 .64-.32.64v-.64c-.96.32-.64 1.92-1.6 2.4-.48 1.12-.64 1.6-.96 2.88.64-.48.8-1.44 1.28-1.92.32-.16-.16.64.48.48.48 0 .32-1.44.8-.96-.16.48-.32.64 0 1.12-.64.16-.96.64-1.12 1.12-.48-.32-1.44.48-.96 1.28.64.16 0-.64.48-.64.16 0 .32.16.48.48-.16.32-.48.32-.8.48-.32 1.92-1.6 3.68-2.4 5.44.16.32.48-.32.64.16-.64.64-1.12 1.28-1.12 2.08 0-.16.48-.8.64-.32-.8.96-1.12 2.24-1.44 3.84.8-.32.96-.96.96-1.92 1.28.16.16-.96 1.28-.96zm4.48-15.2c0 .48-.32.48-.16 1.12-.8 0-.32-.96.16-1.12zM422.64 8c.64-.8 2.24-.48 2.88-.48-.8.64-1.76.48-2.88.48zm-7.04 4.16v-.32h-.32v.32h.32zm-.16 2.56h-.32v-.32h.32v.32zm-4.16 2.72c-.32 0 0-.64.32-.48 0 .16-.16.32-.32.48zm-.64.8c.16-.32.64-.16.64-.64.48.32-.16 1.12-.64.64zm-.96 1.12c.32-.16.48-.64.8-.8 0 .48-.16.8-.8.8zm-1.44 1.6c-.32-.32.64-.8.48-1.44.48 0 .16.64.16.96-.16.16-.48.16-.64.48zm-1.6 1.28c.8-.16 0-.64.32-.96.32 0 .32.32.48.32 0 .48-.32.8-.96.96 0-.16.16-.16.16-.32zm-1.44 1.6c.32-.16.16-.64.48-.48.16.32 0 .48-.48.48zm-1.76-.32c-.32 0-.48.32-.48.64.64.16.32-.48.48-.64zm-4.16 3.68c.32-.16.8-.32.8-.64-.32-.32-.64.16-.8.64zm1.12.48c-.16-.32.48-1.12.96-1.12-.16.48-.64.8-.96 1.12zm-2.24.64c.8 0 .96-.64 1.12-1.12-.32.32-.8.64-1.12 1.12zm-.96.96l-.014.103c.003-.032.008-.066.014-.103zm-.8 1.6c.16 0 .48-.8 0-.8 0 .32-.48.64 0 .8zm-.48.16h-.48c.16.32 0 .48-.16.64.64.16.48-.48.64-.64zm-1.28 1.76c.32-.16.64-.32.48-.8-.32-.16-.8.48-.48.8zm-.64 0c0 .32-.16.32-.32.48.64.16.96-.32.32-.48zm-.64 1.44c0-.32.64-.64-.16-.64.16.32 0 .64.16.64zm25.92-.16c.16-.16.48-.32.64-.32 0 .32-.16.32-.64.32zm-26.4.16c0 .32-.16.32-.32.48.32.48.96-.32.32-.48zm.8 1.6h-.32v-.32h.32v.32zm18.4 1.28c-.48-.16.32-.48.16-.64.64.16-.16.48-.16.64zm.16 1.76h-.32v-.32c.16 0 .16 0 .16-.16h.32v.32s0 .16-.16.16zm11.52 1.28c.32-.16.8-.16 1.12-.32.16.64-.64.16-1.12.32zm-12 24.16c-.32-.16.32-.8.48-.48 0 .32-.48.16-.48.48zm-.8.64c-.32 0 0-.8.32-.64.32.48-.16.48-.32.64zm8.8-23.84c0 .16.16.32.16.32.32-.32.48-.64.64-.96.8.16 1.12-.16 1.76-.16.32.32 0 .32.16.64 1.44.16 3.68-1.12 4.32-.16-1.44.48-2.24 1.44-3.04 2.56-.48-.32-.8 1.12-1.6.64-1.12 1.6-2.72 2.72-4.48 3.84.16 0 .16.16.16.32-9.76 6.24-17.76 14.4-30.24 17.92-.16-.48-.16-1.12.32-1.44 0-.64.32-.8.16-1.44 2.72-6.88 5.76-12.32 9.92-17.6 5.12-7.36 11.04-14.08 17.44-20.16 3.36-4 8-6.72 12.48-9.6.96-.32 1.92-.64 2.56-1.12 1.6.8 4.64.8 5.12-1.28-1.28-.96-1.6-2.72-2.88-3.52 0-.32.32-.32.16-.64-.48-.96-1.92 0-2.08-1.44-.64.48-.96-.32-1.28-.8-2.08.16-5.28-.32-7.36.64 0 .32.32.32.32.48-2.56 2.56-6.56 3.2-8.64 6.24-2.56 1.28-5.44 4.48-7.2 6.72-1.44.64-2.56 2.88-4.16 4 .16.8-.8 1.28-1.12 1.12.15-.597.856-.498.95-1.132l.01-.146v-.002c-.48.16-1.44.64-2.08.96 0 .96.64-.64.8 0-3.2 4.48-7.52 7.68-10.24 12.48-1.44.8-2.08 2.24-3.52 3.2.16.48-.16.64-.16 1.12-.8.32-.96 1.28-1.28 2.08-3.84 3.52-5.44 8.32-7.52 13.6.16.8-.16 1.12-.32 1.6 0 .8.16 1.76-.16 2.4.48.64.32 1.76.8 2.08.16.96 0 .96.32 1.6.64.16.48-.48.8-.16-.48.64.64.48.48 1.12-.48.32-.48-.96-.96-.32 2.56 4.32 5.44 8.16 11.36 8.96.8-.8 1.92.16 3.2-.64 0 .16-.16.16-.16.32 5.12-1.28 9.92-3.2 13.76-6.24.32 0 .32.16.48.16 1.6-1.6 4-2.4 5.44-4 3.84-2.08 6.88-4.8 10.08-7.2 1.44-.48 1.92-1.92 3.36-2.24 1.12-1.6 3.04-2.56 4.32-4 1.12-.32 1.44-1.28 2.24-1.92 1.6-.8 2.4-2.56 4.16-3.2.32-.96 1.28-.96 1.6-1.76 1.76-1.12 3.2-2.4 4.48-4 2.08-.64 2.56-2.88 4.64-3.36.32-.32.48-.64.8-.64 0-.16 0-.48.16-.48 0-.96-.8-1.28-1.44-1.92-.48-2.24-1.92-3.68-3.2-5.28-1.76-.16-1.28-2.72-3.68-2.4-1.12 3.68-6.4 1.12-9.12 3.2.16-.16.16-.48-.16-.48-.16.96-1.12.16-1.6.32-.32 0 0 .8-.48.64-.32.16-.32-.32-.8-.16-3.04 2.24-7.84 2.56-12.16 3.68 0 .8.96-.32.96.16-.32.16-.64.64-1.12.32.32.48.16.8-.48.8.16-.32.48-.32.16-.64-.48 0-.96.32-.96.64-.32-.8-.8.8-1.6 0-.16 1.28-1.44.64-2.4 1.28.16.16.64 0 .48.48-.48.64-.8 1.44-1.6 1.76.64.16 1.28-.64 1.44 0 0 .64-.96.32-.96 1.12.32.64 1.12-.16 1.28.48-.48-.16-.48.32-.64.48.96 0 2.4-.16 2.88.8 2.08-.48 4.48-1.12 5.76-.64zm-10.08-21.76c0 .32-.16.48-.32.64-.32 0 0-.8.32-.64zm-3.04 2.88c-.32 0-.48.32-.8.64-.32-.32.8-1.12.8-.96v.32zm29.6 51.68c0-.48-.48-.64-.48-.96.48.16.32-.32.64-.32-.16.48.48.96 0 1.28h-.16zm32.32-49.44h-.32v-.32h.32v.32zm-2.4 4.8c-.48-.32.48-.48.16-.96.64 0 0 .8-.16.96zm-.64.8c0-.32.16-.48.48-.48-.16.16 0 .64-.48.48zm-1.28 2.56c.16-.64.8-.96.8-1.76.48.16-.16 1.76-.8 1.76zm-1.44 1.12c-.48-.32.48-.48.16-1.12.32 0 .32.16.48.16.16.64-.64.48-.64.96zm-.48.8v-.48c.48-.32.48.64 0 .48zm-.32 1.92c-.16 0-.32-.32-.48-.32.32-.32.48-.8.96-.96 0 .48-.48.8-.48 1.28zm-1.44 1.6c.32-.16 0-.8.48-.64-.32.16 0 .8-.48.64zm.8 1.92c.32 0 .96-1.12.32-1.12.16.64-.32.64-.32 1.12zm-.96-.48v-.48c.48-.32.48.64 0 .48zm-.64 1.28c0-.48.16-.96.64-.96-.16.32-.16.8-.64.96zm-.64.16c-.16-.48.32-.32.32-.64.32 0 0 .8-.32.64zm2.24-.32v-.32h-.32v.32h.32zm-1.6.8h-.32v-.32h.32v.32zm-1.12 2.08c.16-.8-.32-1.12-.16-1.92.64.32.32.16.96 0-.16.64-.48 1.28-.8 1.92zm-.64.32c-.96 0 0-1.28.48-1.28-.16.48-.48.64-.48 1.28zm1.92-.32c0-.16 0-.16.16-.16 0-.16 0-.48-.32-.32 0 .16 0 .48.16.48zm-1.6.64c-.16 0-.16-.32-.16-.48.32-.16.32.16.32.32-.16 0-.16 0-.16.16zm.96.64c0-.16 0-.16.16-.16v-.32c-.32-.16-.32.16-.32.48h.16zm-.32.64c0-.32.16-.32.16-.64h-.16s-.48.64 0 .64zm-.48.32c0 .32-.16.48-.16.64.48.16.48-.64.16-.64zm-12.32.96c-.16-.16-.32-.32-.32-.64.48 0 .48.48.32.64zm8.96.48h-.32v-.32c.16 0 .16-.16.16-.16h.32v.32c-.16 0-.16 0-.16.16zm-.8-.16H454v-.32h.32v.32zm-7.04.32c.16-.16 0-.64.48-.48-.16.16 0 .64-.48.48zm10.4.32c-.32 0-.16.48-.32.64.48.16.32-.32.32-.64zm-3.2.8h-.32v-.32h.32v.32zm-1.6.96c.16-.16 0-.64.48-.48-.16.16 0 .64-.48.48zm-8.16 1.44h-.32v-.32h.32v.32zm6.88 3.04c.16-.96.48-1.44.96-2.4.765.612-.958 1.517-.27 2.435l.109.124-.077-.058c-.173-.101-.448-.101-.722-.101zm-8.8-1.28c.32-.32.16-.96.8-.96-.16.48-.32.96-.8.96zm-.64 1.28c.16-.48.32-1.12.96-1.12-.16.32-.48.48-.48.96 0 .32.32-.32.64 0-.16.64-.96.48-1.12.16zm9.12.16c.48-.16.32.16.64.32-.16.32-.8 0-.64-.32zM450 55.36c0-.32.32-.64.16-1.12.32 0 .32.16.48.16-.32.16-.16.8-.64.96zm.32.96c-.16-.48.32-.48.32-.8.16.32.16.8.48 1.12-.64.16-.32-.48-.8-.32zm-8.32-.16v-.32c.16 0 .16-.16.16-.16.32-.16.16.64-.16.48zm7.68.64c-.64 0-.32-.32-.16-.64.48.16.16.16.16.64zm-8.48-.48c.16 0 .16.32.32.32-.16.48-.64-.16-.32-.32zm7.2 2.24c-.64-.48.32-1.44 1.12-1.44.16.64-.48.32-.32.96-.64-.32-.64 0-.8.48zm-7.36-.64v-.32c.16 0 .16-.16.16-.16.32-.16.16.64-.16.48zm.8.8c-.16-.32.16-.32.48-.32 0 .16-.16.32-.48.32zm7.04.16h-.32v-.32h.32v.32zM438.16 60c.48 0 .8-.96.48-1.28 0 .48-.48.8-.48 1.28zm1.92.48h-.32c0-.16 0-.32-.16-.32 0-.32.32-.16.64-.16-.16.16-.16.16-.16.48zm1.92.48c.16-.32.16-.64.64-.48-.32.16-.32.48-.64.48zm-4.066.328l.066-.008c-.16-.48.48-.96-.16-.8-.16.32-.32.64-.48 1.12.443.148.34-.25.574-.312zm1.826-.008h-.64v-.64c.32 0 .64.32.64.64zm8.8 1.76c.16-.48.48-.8.64-1.28-.16 0-.48-.64-.64-.16.64.32-.64.96 0 1.44zm-9.92-.96c-.48 0 0-.64 0-.64.32 0 0 .48 0 .64zm2.72.64c-.32-.16-.16-.8.32-.64.16.48-.32.32-.32.64zm4.64.48c0-.48 0-.64.48-.64 0 .32 0 .64-.48.64zm-5.76 1.92h-.32v-.32h.32v.32zm-2.88.96c-.48 0 0-.8-.64-.64-.16.16-.16.8-.32.96.48 0 .96 0 .96-.32zm8.64.32c-.16 0-.16 0-.16.16.16.64.96-.96.16-.16zm-1.28 2.08c-.16-.8.48-.64.48-1.12-.16 0-.16-.16-.48-.16 0 .48-.96 1.12 0 1.28zM435.6 68s0 .16-.16.16v.32c.32.16.48-.64.16-.48zm7.84 2.08c.64 0 1.12-1.12.8-1.44 0 .16-.16.16-.32.16 0 .64-.32.96-.48 1.28zm-6.88-.96c.16-.32.16-.48.64-.48 0 .32-.32.32-.64.48zm1.6.32h-.48c0-.16.16-.32.16-.48.32-.16.32.16.32.48zm-3.68.96c.32-.48.8-.8.96-1.44-.64.16-.8.8-.96 1.44zm1.6.48c-.32-.16-.16-.8.32-.64.16.48-.32.32-.32.64zm-1.6-.48c-.16.16-.32.32-.32.64.48.16.32-.32.32-.64zm5.28 1.76c-.16 0-.16-.48-.16-.64.48.16.16.16.16.64zm2.56.96c.16-.48.8-1.12.48-1.44 0 .48-1.12.8-.48 1.44zm-5.28.16c0-.32.16-.32.16-.64.48-.16.48.96-.16.64zm1.76.48v-.48c.48-.32.48.64 0 .48zm3.36-.16v-.32h-.32v.32h.32zm-1.28 1.12v-.32h-.32v.32h.32zm-3.36 1.44c.16-.48.48-.96.64-1.6.8-.16-.16 1.28.48.64.48.16-.16.48-.16.64-.48-.8-.32.32-.96.32zm-1.6.16c-.64-.16.64-1.12.48-1.76.48.48-.16 1.44-.48 1.76zm-1.12 3.04v-.32h-.32v.32h.32zm1.44-5.44c-.48 1.28-1.12 2.4-1.6 3.68.48 0 .32-.8.96-.48.32.64-.64.96-.64 1.6.8-.48.16.48.8.48.48-1.12.96-2.08 1.76-2.88 0 .32-.16.48-.16.64.64.16.32-.64.8-.64.16.32-.48.8 0 .96.8-1.28 1.28-2.72 2.4-3.52-.48 0-.96-.8-.64-.96.16.32.48.32.96.32-.32-.64-.16-1.6.48-1.76.32.48-.8.8 0 .8.16-.48.8-1.12 0-1.28.32-.32.32 0 .8 0 .16-.64-.32-.48-.32-.96.8.16.48-.48 1.28-.32.16-.48.16-.8 0-1.28.48 0 .48-.96.96-.32-.16-1.76.48-2.72 1.44-3.68.16 1.44-.64 1.76-1.28 2.72 1.28 0 1.6-1.28 2.08-2.08-.8-.16 0-.96-.64-1.44.8-.32 1.12-.16.96.48.48-.16.96-.96.48-1.6h.64c-.32-.8.32-.96-.16-1.6.16-.16.48-.16.96-.16 0-.32 0-.64-.16-.64 0 .64-.48 0-.64 0-.48.64-.32 2.08-1.44 2.24.64-1.12 1.12-2.56 1.76-3.36.16.16-.16.8.16.8.32-.8.32-.16.8 0 .48-.64 0-1.92 1.28-1.92 0-.48-.64-.96-.16-1.12.16.16.48 0 .48.32-.16.64.16 1.76-.8 1.76.48 1.28-1.28 1.44-.8 2.56.16-.32.64-.32.96-.48.48-2.56 1.6-4.48 2.88-6.24 0-.96.48-2.56 1.6-2.88-.16-.64 0-1.92.8-1.92 0-1.28.48-1.92 1.12-2.56-.8 0 .16-.8.16-.96.16 0 .16.32.32.32.32-.32-.16-.64-.32-.8.16-.16.32-.48.48-.64.16.16-.16.8.16.8.16-.48.48-.8.64-1.28-.48-.32-.48.64-.64.16 0-.48.32-.64.48-.8-.16.48.48.16.48.64-3.36 7.84-7.52 15.04-10.56 23.2.96-1.12 1.12-3.2 2.4-4.16 1.28-4.16 3.68-7.36 4.96-11.52 2.143-3.06 2.968-7.44 5.276-10.335l.261-.311-.039.067c-.058.123-.058.27-.058.499.8-.16.32-1.12.16-1.44.8-.8.8-2.4 1.6-3.2.16.16 0 .8-.16 1.12.64-.96 1.76-2.4 1.6-3.68-.48.64-.48 2.4-1.28 2.24.64-1.28.8-2.88 1.92-3.68 0 .48-.48.64-.48 1.28 1.44-2.24 2.24-4.8 3.36-7.04 0-.48-.32-.32-.16-.8.32 0 .32.16.64.16 1.28-2.72 2.24-5.76 4.32-7.68.16-1.6-1.92-1.76-2.88-2.72v-.8c-.64-.48-1.6-.8-1.76-1.92-.96 0-1.28-.8-2.24-.8.32-.64-1.28-.64-1.28-1.44-1.28-.16-1.92-.16-3.04 0-2.56 4.48-4.48 10.4-6.88 15.68-1.44 1.44-1.6 4.16-3.04 5.6 0 .32.16.32.16.64-2.72 3.84-3.68 8.64-6.4 12.48.32 1.28-1.44 2.08-.96 3.52-.64.32-1.28 1.28-.96 2.08h-.48c0 .32.48.8-.16.8v.64c-.16.16-.48.16-.8.16.32 1.6-1.92 2.08-.96 3.36-.32.16-.32.64-.48.8-.48-.32-.8.32-.8.96.96-.48.32.32.96.48 0 .32 0 .64-.32.64v-.64c-.96.32-.64 1.92-1.6 2.4-.48 1.12-.64 1.6-.96 2.88.64-.48.8-1.44 1.28-1.92.32-.16-.16.64.48.48.48 0 .32-1.44.8-.96-.16.48-.32.64 0 1.12-.64.16-.96.64-1.12 1.12-.48-.32-1.44.48-.96 1.28.64.16 0-.64.48-.64.16 0 .32.16.48.48-.16.32-.48.32-.8.48-.32 1.92-1.6 3.68-2.4 5.44.16.32.48-.32.64.16-.64.64-1.12 1.28-1.12 2.08 0-.16.48-.8.64-.32-.8.96-1.12 2.24-1.44 3.84.8-.32.96-.96.96-1.92 1.28.16.16-.96 1.28-.96zm4.48-15.2c0 .48-.32.48-.16 1.12-.8 0-.32-.96.16-1.12zm28.64 40.16c1.28-1.92 2.72-3.36 4.32-4.8.8-1.28.96-2.88 1.6-3.84 0 .32.16.48.32.48.64-.16-.16-.48-.16-.64.8-.16.96-.96 1.6-1.12.32-2.72 2.56-3.52 2.88-6.08.8-.16.96-.8.8-1.6.48-.16.64-.8 1.12-.96 2.24-4.96 5.44-8.8 7.36-13.92.48-.48.8-.96.8-1.76 1.6-1.12 1.92-3.52 3.2-4.8 1.76-4 3.84-7.68 5.92-11.2.32-1.92 1.44-3.2 2.4-4.48v-.8c.32 0 .32-.48.64-.32 1.76-4 3.68-8 5.76-11.68v-.96c2.08-3.36 3.36-7.52 5.44-10.72 1.76.16 3.52-1.28 4.64-.32 1.28-.64 3.84-.96 4.64-.16.64-.8 1.12-.48 2.4-.48 0-.48.16-.64.48-.64.48 0 .32.8.8.64 3.2-1.12 6.72.16 9.76-1.44.32.32.16.96.64.8 1.76-1.44 5.92.64 7.2-1.6.64 0 .32.96.8.96.16-.64.16-.64 0-1.28.8-.16 1.28 0 2.08-.32 0-.96-.64-1.6-.48-2.4-.64-.16-.16.64-.48.64-.32 0-.16-.64-.32-1.12-.48-.16-.8-.16-1.44 0-.48 0 .48.48-.16.48-.48-.48-.64.48-1.12 0 .16-.32.8 0 .64-.48-.96.16-1.92-1.12-2.72-.64 0-.32.32-1.12-.32-.96 0 .32.32.96-.16.96 0-.32-.96 0-1.12-.32.16-.32.48-.48.32-.96-.8-.16-.32.96-.96 1.12-.8 0-1.12.16-1.6-.48.64 0 .64.32.96 0 0-.48 0-1.12-.64-1.28 0 .32.32.48.16.96-.48-.32-.48 0-1.12.16 0-.48.64-.32.32-.96-.64 0-1.28 0-1.92-.32-.48.32-.48.16-1.28.16-.32.32.32.8-.16.96-.48.16-.16-.64-.32-.96-.96.16-.64-.48-.8-.8-.96.32-2.08-.16-3.04 0-.48-.32.16-1.28-.48-1.28-.32.96-1.12.32-1.92.8.16-.32.48-.32.32-.8-.8-.16-.8-.16-1.12.48-.32-.8-.32.16-.8.16 0-.32.32-.32.16-.64-.96.16-.8-.48-1.76.16-.96-.32-2.72-.16-3.84.16-2.08-.16-2.72-.48-4.64.32-8.64-.32-17.6 1.6-26.88 2.4-4.64 0-11.36 1.44-14.88-1.12h-2.24c-1.28.48-1.92 1.6-2.56 2.72.16.8-.16 1.12-.16 1.92.16.32.48.32.48.64-.32 2.24.32 4.8.64 6.88.8.32 1.28.96 1.44 1.6 4.32.32 8.64-1.44 12.48-.64 1.92-.96 3.84-.48 6.24-.8l.48-.48c.16 0 .16.16.16.32 2.08-.8 3.68.32 5.92-.96.8.32 2.56.16 3.84 0-.8 1.6-1.12 3.68-2.88 4.48-.8 2.56-2.56 4.8-3.04 7.36-2.4 2.56-3.36 6.88-5.76 9.6v.96c-1.28 1.6-2.08 3.52-2.88 5.6-2.4 3.04-3.52 7.52-6.08 10.56-.32 1.76-1.6 2.56-1.76 4.64-.32.16-.32.48-.8.64 0 .64 0 1.28-.48 1.44.16.32.32.8.16 1.28-.64.8-.96 2.24-2.24 2.56.8 1.28-.96 1.92-.48 3.04.8-.16.8-.96 1.28-1.28-.32 2.08-2.72 3.52-2.88 6.4-.48 0-.64.48-.8.8.48.32.96-.8 1.44-.96-1.12 2.56-2.4 4.8-3.84 7.2 1.28.8.96-1.76 1.76-1.28-.16.48-.32 1.12-.48 1.76.8.96-.16 2.72-.96 3.36 0 1.76-1.12 3.36-1.92 4.96.32 1.44-.16 2.08-.48 3.04.8.16.8-.48 1.28-.48.48.64.48.96.32 1.76h.96zM531.6 8.96c-.64-.48-1.76-.32-1.92.16.64.32 1.92.32 1.92-.16zm-3.84.64c.16-.16.48-.32.64-.32.16.48-.32.48-.64.32zm7.52 1.28l-.014.102.014-.102zm3.04.96c.32-.16.32-.64-.16-.64-.16.16 0 .48.16.64zm1.76 1.6c-.16 0 0-.32-.16-.64.8 0 .16.32.16.64zm2.24 0c-.32 0-.48-.16-.48-.48.16.16.64 0 .48.48zm2.88 1.28c.16-.32.96-.16.96 0 0 .32-.8.16-.96 0zm-4.16 2.08l-.014.102.014-.102zM476.4 70.4h-.32c.16-.16 0-.16-.16-.16.16-.16.32-.16.32-.32.32 0 .16.32.16.48zm-4 5.76c.32-.48.64-.96.64-1.6-.48 0-1.28 1.28-.64 1.6zm1.76-.32s-.16-.16-.32-.16v-.32c.48 0 .32.16.32.48zm-1.44 2.24c.16-.64.64-.8.48-1.76.32-.16.48-.16.8-.16-.32.8-.32 1.76-1.28 1.92zm-.8-1.12v-.32c-.16-.48-.64.48 0 .32zm-2.24 5.92c.32-1.28 1.28-1.76 1.44-2.88h-.48c0 .96-1.6 2.08-.96 2.88zm1.28 3.04c-.32 0-.16-.16-.32-.48.32 0 .48.16.32.48zm-1.6 1.44c.8 0 .64-.8.8-1.12-.64 0-.8.48-.8 1.12zm-.64-.32c.16-.16.48-.8-.16-.64.16.32 0 .64.16.64zM574 14.4h-.32v-.32h.32v.32zm.32 1.28c-.64 0-.48-.64-.32-.96.64-.16.16.64.32.96zm-.16 2.08c0-.32 0-.64.16-.8.32 0 .32 1.12-.16.8zm-.16 3.36c0-.16 0-.16.16-.16v-.32c-.32 0-.32.32-.32.48h.16zm-.48.96c-.16 0-.16-.32-.16-.64.48-.16.32.48.16.64zm-15.04 2.88c.16-.16 0-.64.48-.48 0 .32-.16.48-.48.48zm13.28.64c-.16-.64.32-.64.32-1.12.64 0 .16 1.12-.32 1.12zm-16.16 2.08c0-.32.16-.64.64-.64-.16.32-.16.8-.64.64zm15.04 2.24h-.32v-.32h.32v.32zM551.12 32c0-.16.16-.16.16-.32h.32c0 .32-.16.32-.48.32zm-3.04 2.56c-.48-.16 0-.64.48-.48.32.64-.48.16-.48.48zm-.64.8c-.48-.48.96-.96.96-.16-.48 0-.8-.48-.96.16zm21.6.8h-.32v-.32h.32v.32zM570 36c-.16.32-.32.8-.48.96.48.16.8-.8.48-.96zm-1.76.96c-.32 0 0-.64.32-.48.16.32-.32.32-.32.48zm17.92.48c-.32 0-.8 0-.8.32.32 0 .64 0 .8-.32zm4.48.8c0-.16.48-.16.32-.48-.32-.16-.64.48-.32.48zm-.8-.16c-.8 0-2.24-.32-2.72.32.96 0 2.08.16 2.72-.32zm-21.28.48h-.32v-.32h.32v.32zm27.2.16v-.32h-.32v.32h.32zm-1.28-.16h-.32c0 .16-.16.16-.16.32.32 0 .48 0 .48-.32zm-.96.48c0-.32-.16-.32-.48-.32v.32h.48zm-2.72.32c.32-.16 1.12 0 1.12-.48-.32.16-1.12 0-1.12.48zm1.6-.16c.32 0 .48-.16.48-.32-.32 0-.48 0-.48.32zm-11.84.16c0-.32 1.28-.8 1.28-.16-.32-.32-.64.32-1.28.16zm8.16 1.6c.32-.32.96-.16 1.12-.64-.32 0-.32-.32-.32-.64.32-.16.8-.16.96-.48-.64-.32-1.6.16-1.12.96-.64-.16-.96.48-.64.8zm-9.44-1.6c.32 0 .64-.16 1.12-.16 0 .32-1.28.8-1.12.16zm2.72 0c.16.16.32.16.32.48-.48.16-.48-.16-.32-.48zm-3.2.48c-.32 0-.32-.16-.64-.16 0-.48.8-.32.64.16zm-4.8-.32c.16 0 .16.16.32.16-.16.32-.8.16-.32-.16zm2.88.8c-.16 0-.16-.32-.32-.32.16 0 1.44-.96 1.44 0-.32-.32-.8.16-1.12.32zm4.16.16h-.8c.16-.32.16-.64.48-.8.32 0 .32.48.32.8zm-.96.32c-.32-.16-.64-.16-.8 0-.48-.64.64 0 .48-.8.16.16.16.48.32.8zm-4.32-.32h-.32v-.32h.32v.32zm7.04 1.12c-.96-1.12 1.6-1.12 2.56-1.44.32.16.48.48.64.96-.64-.64-1.6-.48-2.24 0 0 .32-.48.32-.48 0l-.48.48zm-.8-1.12h-.32v-.32h.32v.32zm8.96.16c0-.32-.16-.32-.48-.32v.32h.48zm-13.12.16c-.48-.64.8-.48.8.16-.48.16-.48-.64-.8-.16zm-.32.64c-.48 0-.64-.32-.64-.8.16 0 .32 0 .32-.16.32.16.16.64.32.96zm-4-.48h-.32v-.32h.32v.32zm-6.4.16c0-.32.16-.32.48-.32 0 .16-.16.32-.48.32zm14.72.8c-.48 0-.32-.8-.64-1.12.64 0 .48.64.64 1.12zm4.8-1.12c0 .16 0 .16-.16.16v.32c.32.32.48-.48.16-.48zm-1.76.16c.48.16.48.64.8.8-.32.32-.8-.32-.8-.8zm10.24.32c-.32-.32-.64 0-.64.48.48 0 .64 0 .64-.48zm-6.88.64c0-.32.8-.16.64-.64-.32 0-1.12.32-.64.64zm-8.32-.32h-.48v-.32c.32 0 .48 0 .48.32zm.8.48c.32-.16 0-.8.48-.64 0 .48 0 .64-.48.64zm2.88.16c-.16-.64.64-.32.64-.8.48.32-.32.8-.64.8zm10.56-.32c0-.64-.48-.48-.64-.16.32 0 .48 0 .64.16zm-21.44.16c-.16 0-.16-.32-.16-.48.32 0 .32.16.32.32-.16 0-.16 0-.16.16zm-31.36.16h-.32v-.32h.32v.32zm38.56 0h-.48v-.32c.32 0 .48 0 .48.32zm6.56.16h-.32v-.32h.32v.32zm-8.16 0c0-.16.48-.16.48 0 .16.32-.64.32-.48 0zm2.56.48c-.16 0-.16-.16-.16-.32.16-.16.32 0 .48 0 0 .16-.32.16-.32.32zm13.76-.32h-.32c0 .16-.16.16-.16.32.32 0 .48 0 .48-.32zm-10.56.64c-.48-.16 0-.64.48-.48.32.64-.48.16-.48.48zm-4.48-.16h-.32v-.32h.32v.32zm5.12.8c0-.48.8-.64 1.12-.32 0 .48-.8.64-1.12.32zm-9.76.16v-.32c.16 0 .16 0 .16-.16.32 0 .16.8-.16.48zm5.28.64c-.32-.48.48-.16.48-.48.64.16.16.64-.48.48zm-7.04 0h-.32v-.32c.16 0 .16 0 .16-.16h.32v.32c-.16 0-.16 0-.16.16zm16.96-.16c-.16-.64-1.92 0-2.4.16 1.12.16 1.6-.32 2.4-.16zm-11.68.16h-.32v-.32h.32v.32zm7.52-.32h.64c0 .48-.96.8-.64 0zm-7.2.64c.16-.32.32-.48.8-.48 0 .48-.32.48-.8.48zm-9.28.32h-.32v-.32c.16 0 .16 0 .16-.16.32.16.32.32.16.48zm1.28-.16h-.32v-.32h.32v.32zm-32.16-.16l.48.96c-.64.16-.48-.48-.48-.96zm38.72.64c-.16 0-.16-.32-.16-.64.32 0 .32.48.16.64zm-5.92.16h-.32v-.32c.16 0 .16 0 .16-.16.32.16.32.32.16.48zm4.32.32c-.48-.48.8-.64 1.12-.8 0 .64-.8.64-1.12.8zm-37.6 0c-.16 0-.16-.32-.16-.64.48-.16.32.48.16.64zm36.64.16h-.32v-.32h.32v.32zm8.48.16c0-.32 0-.48-.32-.48 0 .32.16.48.32.48zm4-.48c-.8.16-1.6.32-2.24.64.8 0 1.92 0 2.24-.64zm-48.8.64c-.16 0-.16-.16-.32-.16 0-.16.16-.16.16-.32.16 0 .16.16.32.16 0 .16-.16.16-.16.32zm41.6.96c1.44-.16 2.88-.32 3.84-.8-.16 0-.48-.16-.64-.32-.16.32-.32.64-.96.48 0-.16.64-.64.16-.8-.32.32-.64 1.12-.96.32-.32.32-.48.8-.8.96-.32-.16 0-.8-.48-.64 0 .32-.32.32-.16.8zm-4.32.64c-.16-.64-.64 0-.64-.96.8.32.16-.32.48-.64.16 0 .16.48.16.64.8 0 1.28-.48 2.24-.48 0 .8-1.28.32-.64 1.28-.48.48-1.28-.16-1.6.16zm-38.56-.96c0-.48.64-.48 1.12-.48-.16.48-.8.32-1.12.48zm37.76.48h-.32v-.32h.32v.32zm1.44.16c0-.32.48-.16.48-.48-.32 0-.96.32-.48.48zm-1.28.32h-.32v-.32h.32v.32zm-2.24.8c-.32-.16-.96-.16-.96-.8.32 0 .32.16.32.32.16 0 .48 0 .48-.16.16 0 .16.16.16.32v.32zm6.24-.64l-.13-.014c.041.004.084.008.13.014zm-8.48 1.28c-.16-.48.32-.48.16-.96.64-.16.32 1.28-.16.96zm5.92-.64c.32 0 .48-.16.64-.32-.32 0-.64 0-.64.32zm-4.96.32c-.32 0 0-.64.32-.48 0 .16-.32.32-.32.48zm1.6.32h-.32c0 .16-.16.16-.16.32.32 0 .48 0 .48-.32zm-6.08.8c-.16-.48.32-.32.32-.64.16 0 .32.32.48.32-.16.32-.48.64-.8.32zm1.28.48c-.16 0-.32 0-.32-.32.16 0 .64-.32.64 0 0 .16-.32.16-.32.32zm-1.92.32c.16-.32.64-.64.8-.32 0 .32-.48.32-.8.32zm-13.44 4.16c-.32 0-.64 0-.64.32.32 0 .8.16.64-.32zm-3.68.96c0-.32.32-.32.64-.32.16.48-.32.32-.64.32zm-3.04.96s.32-.32.48-.16c.32.32-.96.64-.48.16zm-1.12.48v-.32h.8c.16.48-.48.32-.8.32zm-5.6 1.92c0-.32.48-.16.48-.48.48.16 0 .64-.48.48zm-3.2.96s.32-.32.48-.16c.32.32-.64.8-.48.16zm-.64.16s.32-.32.48-.16c.32.32-.64.8-.48.16zm23.04 8.8c0-.48.8-.32.64.16-.32.16-.48-.16-.64-.16zm-2.08 3.68c-.16 0-.16-.32-.16-.48-.16 0-.16 0-.16.16-.16 0-.16-.16-.16-.32.16 0 .16 0 .16-.16.32.16.32.48.8.32 0 .32-.48.16-.48.48zm-1.6 4.64c-.16.16-.16.48-.16.8.48.32.48-.8.16-.8zm-2.08 2.88c-.32 0 0-.8.32-.64-.16.32-.16.48-.32.64zm-3.68 5.6c-.64-.32 0-1.92.32-2.4.16.48-.32 1.6-.32 2.4zm-.8.96c.16-.32.32-.48.48-.8.32.32 0 .64.16 1.12-.48.16-.16-.48-.64-.32zm-.64.96V88h-.32v.32h.32zm1.12 2.4c.16-.16.48-1.44-.16-1.44-.16.64 0 .96.16 1.44zm.96-1.12v-.32h-.32v.32h.32zm3.2-8.64c-.32.32 0 1.28-.48 1.44-.16-.64-.16-1.28.48-1.44zm29.92-37.12c.16.64-.32.8-.64.48.12-.12.33-.24.495-.36l.145-.12zm-32.8 2.08c-4.8 1.28-9.12 2.88-13.76 4.32 3.84-5.28 8.16-10.24 12.64-14.88 4.48-4.48 8.96-9.76 13.92-13.28-2.24 8-4.32 14.56-6.72 21.92-2.08.96-4.48 1.12-6.08 1.92zm-4.64-8c0 .48-.16.64-.64.64.16-.32.32-.48.64-.64zm36.48.8c.48 0 .8-.16.96 0 .16.32-1.12.64-.96 0zm0 0c-.16 0-.16 0-.16-.16-2.08-.32-5.12.48-6.56.96-.8-.64-2.24.32-3.04.64-.64-.32-2.24 0-3.04.64-.64 0-1.28-.16-1.44-.16.64-1.92 1.6-4.48 1.76-5.92.48.16.64-.16.96-.32-.16-1.12-.16-2.88.64-3.52.16.64-.32.64-.32 1.12.8 0 .64-.96.96-1.44-.48 0-.48-.64-.64-.96.32 0 .64 0 .8-.32-.16-.16-.64 0-.48-.48 1.12-.64-.32-1.6.96-2.24 0 .32-.32.64-.16 1.12.48-.32.8-1.6.48-2.08-.32.16 0 .8-.32.8-.16-.48 0-1.92.8-1.92.16-.48-.48-.16-.48-.64.32-.32.16 0 .64 0-.16-.32.48-.64 0-.8-.16.16-.16.48-.32.48-.16-1.12 1.12-1.28.64-2.4h-.16c0 .16 0 .16-.16.16.16-.48-.16-1.44.16-1.6.32.32-.16.64.48.64.32-.48.16-1.44-.48-.8 0-.48-.16-1.28.48-1.12-.16.16-.32.8.16.64.32-.48-.32-.64 0-1.12.32 0 .64 0 .8.16-.16-.48-.48-1.28-.16-1.92-.48-.16-.48.64-.8.16.96-.8.64-2.72-.64-2.88-.8-1.92-2.88-2.56-3.84-4.16-1.44-.48-2.24-1.92-3.84-1.76-8.96 4.32-15.2 11.36-21.76 17.92-9.6 9.28-17.44 20.16-25.6 30.72-1.12 0-1.92.96-2.88.64-.64.96-1.92.96-2.4 2.08.32 0 .48.16.48.32a.88.88 0 00-.8.48c.48.32.96.48 1.28.96 0 .32-.48.16-.32.64.16.16.8-.16.8.16-.8.8-.48 2.56-1.12 3.36 1.12.32.8 1.44 1.6 2.08 0-.16.16-.32.48-.32.64 2.24 3.2 2.72 5.12 3.68.8-.16 1.44-.48 1.28-1.6 2.72-1.28 3.04-4.96 7.2-4.96.32-.32.8-.48 1.44-.48 0-.32-.32-.48 0-.48 1.92.32 3.52-1.28 6.24-1.28.16-.32.48-.32.64-.64 1.76-.16 3.04-1.44 4.64-1.12.16-.64-.32-.48-.32-.96.96-.16.16.48.96.48.48-.48-.16-.32-.16-.8.48.16.48-.16.8-.16 0 .32-.16.32-.16.48 1.28 0 1.92-.8 3.2-.48.16-.96 1.12-.96 1.92-.8.48-.48.8-.8 1.76-.8.48-.16-.32-.64.16-.8.64-.16.64.48.96.48.16-.32.96-.16.96-.64h-.96c.48-.32 1.44-.8 2.08-.48-2.72 10.4-4.96 19.04-6.24 30.24.16.96-.16 1.76.16 2.56.16-.64.64-.16.96-.8.16.8-.48 1.12.16 1.44.16-.16.48-.96.64-.64-.16.64-.16.8.32 1.12 0-.32.16-.8.48-.96-.16.32.48.8.48.32-.32-.32 0-1.28.16-1.6.48 0-.16.96.32.96.64-1.44 1.92-3.36 1.28-4.96.443.148.34-.386.574-.47l.066-.01c.32.96-.32.96-.16 1.92.64-.32.32-1.6 1.12-1.76-.48-.16-.48-1.28.32-1.12.16-.48-.64-.32-.48-.96.32-.8 1.76-1.44.96-2.4.32-.96 1.12-.32 1.44-1.28-.48-.16-.8.48-.96 0 .64-.16 0-1.28.96-.8.16-.48-.48-.8 0-1.12.16.96.32 0 .8 0 .16.48-.32.48-.16.96.96-.32.32-1.76 1.28-2.24-.64-.32.48-1.44.16-1.92.32 0 .32.16.48.16-.48-.96.64-1.12 1.12-1.76 0-.48 0-.96-.16-1.28.16 0 .32-.16.48-.16.48-3.36 2.08-7.04 2.56-9.92.16 0 .32-.16.48-.16 0-.32-.32-.32-.16-.8.32 0 .32-.16.48-.16 0-.64-.48-.48-.16-1.12.32.16.48-.16.64-.16 0-.64-.32-1.44 0-1.6.16 0 .16.16.32.16 0-1.28.96-2.24.8-3.2.48 0 .48-.48 1.12-.48 0 .32-.16.32-.16.48.64-.16 1.12 0 1.92 0 0-.16 0-.48.16-.48 0 .16.32.16.48.16v-.48l.127.038c.774.207.208-.526.513-.678 1.44-.8 3.52-.32 4.8-1.44 1.92 0 4-.48 5.92-1.28-.96-.16-1.6.64-2.24.16.16-.8 1.92-.16 2.08-.96-.64-.16-.96.8-1.28 0 1.6-.48 3.84-1.12 5.44-1.12.32-.16.32-.64.64-.8.8.8 1.92 0 3.04 0 .8-1.6 3.84-.48 4.8-1.76-.64-.32-1.12.32-1.76.48-1.28-.48-2.72.16-4.32.32v-.64c.96 0 2.72-.64 3.84-.8 0 .16-.32.32-.32.48.64-.8 2.08-.48 2.88-1.12-.64-.32-1.28.32-2.24.16 0-.32 0-.64-.32-.64 0 .8-.64 0-.8-.16-.32.32.16.32 0 .8-.16 0-.48 0-.48.16-.8-.16-.16.48-.48.48-1.229-.614-.098-1.229-.289-2.126l-.031-.113-.033.123c-.2.569-.776-.246-.927.356.64 0 .16.32.48.64-.8.16-.96.48-1.6.16.32-.32.64-.64.64-1.28-.32-.16-.48.48-.64 0 .96-.64 2.4-.32 3.2-.64-1.28-.8-3.68.48-5.28.32 0-.32.16-.32.16-.48-.64-.16-.16.8-.64.64v-.48c-.48-.16-.64.96-.96.48.96-1.28 3.04-1.44 4.32-.96.48-.32.32-1.28-.32-1.44 0 .32.16.32.16.64-.8.16-2.56.32-2.88.32-.16-.64.64 0 .48-.64-1.12.32-1.12-.32-2.08 0 0 .32.16.32.16.64zm24.96 19.52c.8 0 1.44-1.44 2.08-.48-.96-.16-1.28.96-2.08.48zm-8.96-19.2c-.64-.32.32-.96.64-1.12 0 .48-.64.48-.64 1.12zm-.64.48c0-.32.16-.32.48-.32 0 .16-.16.32-.48.32zm-.48.8c0-.32 0-.48.16-.48.32 0 .16.32 0 .48h-.16zm-1.76 2.4c.16-.64.32-1.12.96-1.12-.16.48-.32.96-.96 1.12zm32.64-.64c.32 0 .48-.16.64-.32-.32 0-.8-.16-.64.32zm5.28.32c.32 0 .48-.16.64-.32-.32-.32-.48 0-.64.32zm-2.24.16c0-.48.8 0 .48-.48-.32-.16-.96.32-.48.48zm-10.88.32c.16-.32.16-.48-.16-.48 0 0 0 .16-.16.16v.32h.32zm2.88 0c0-.32-.16-.48-.48-.32v.32h.48zm9.12 0v-.32h-.32v.32h.32zm-5.6.48c.32-.16.96-.16.96-.64-.32.16-.96.16-.96.64zm-8.64.48c0-.48.48-.48.48-.96-.48 0-1.12.8-.48.96zm11.84-.32c-.32-.16-.32-.48-.16-.64.32 0 .32.32.16.64zm-9.12.16c.48-.32 1.28-.32 1.44-.8-.48.16-1.44 0-1.44.8zm4.8.48c-.48-.8-.96-.16-1.6-.32.32-.64 1.12 0 1.44-.8.16.16.32.96.16 1.12zm-7.04.48c.8-.32 1.76-.32 2.08-.96-1.12-.16-1.76.32-2.08.96zm8.8-.48c.16-.32.48-.48.96-.48-.16.32-.32.48-.96.48zM594.8 44h-.32v-.32h.32V44zm28 .48v-.32c.16 0 .16-.16.16-.16.32-.16.16.64-.16.48zm10.72.32c-.16-.16-.16-.32-.16-.48.32-.16.32 0 .32.32-.16-.16-.16 0-.16.16zm-15.52.32c0-.48 0-.8-.48-.64 0 0 0 .16-.16.16 0 .32.16.48.64.48zm-24.64.32c0-.48.16-.64.64-.64-.16.16-.16.64-.64.64zm33.44-.32c0-.16.16-.16.16-.32h.32c0 .32-.16.32-.48.32zm-11.84.64c.16-.32.64-.32.64-.64.16 0 .32.16.32.48-.32 0-.48.16-.96.16zm5.12-.16c-.16-.48.32-.32.32-.48.32 0 0 .64-.32.48zm-6.72 0c0 .32-.16.48-.48.48 0-.48.16-.64.48-.48zm.16.8c0-.48.64-.32.64-.64.32.16-.16.8-.64.64zm2.08-.16c.16-.32.48-.48.96-.48-.16.32-.32.48-.96.48zm12.8.32c-.48 0 0-.64 0-.64.32 0 0 .48 0 .64zm-35.68 0c0-.32 0-.64.32-.48v.32c-.16 0-.16 0-.16.16h-.16zm24.48-.16h-.32v-.32h.32v.32zm-5.6 1.12c-.48-.32.32-.48.16-.8h.32c0 .16 0 .16.16.16-.16.16-.64.16-.64.64zM610 48c.16-.64.96-.48.96-.96.48.48-.32.96-.96.96zm-2.56.48h-.32v-.32h.32v.32zm-.16.96c0-.8 1.12-.32.96-1.28.8.32-.32 1.28-.96 1.28zm1.76-.96c0-.32.16-.32.48-.32 0 .16-.16.32-.48.32zm17.12.32c-.48-.16.16-.32 0-.64h.64c.16.48-.8 0-.64.64zm-2.72.48c0-.48.64-.48.8-.64.8.32-.32.48-.8.64zm-13.92-.16h-.32v-.32h.32v.32zm-3.52.96c0-.64.64-.48.96-.64 0 .48-.64.48-.96.64zm16 .16v-.64h.48c0 .32 0 .64-.48.64zm-15.2.32c0-.48.48-.48.64-.8.16 0 .16.16.32.16v.32c-.64-.16-.48.32-.96.32zm-2.88 0c-.32-.16-.16-.8.32-.64.16.32-.32.32-.32.64zm16.48 0c0-.32 0-.64.32-.48v.48h-.32zm-16.16.48c.16-.64.8-.96 1.44-.96-.32.48-.8.64-1.44.96zm-1.92 1.12c-.32-.48 1.28-1.28 1.76-1.12-.48.48-1.28.64-1.76 1.12zm19.04-.16c.32 0 .48-.32.64-.48-.32 0-.64 0-.64.48zm-17.6 0c0-.16.16-.16.16-.32h.32c0 .32-.16.32-.48.32zm15.2.96c.48-.16 1.12-.32 1.28-.8-.48.16-1.12.32-1.28.8zm0 0c-.32 0-.32-.16-.48-.16v.32c.16.16.32.16.48-.16zm-31.04 1.12l-.48.48c0-.48.16-.64.48-.48zm23.68.96c-.16-.16-.16-.32-.16-.48.32-.16.32 0 .32.32-.16-.16-.16 0-.16.16zm.16 1.28c-.64-.32.16-.64.32-.8.48.16-.48.32-.32.8zm-2.56 0h-.64c0-.64.8-.64.64 0zm-2.08.96c-.32-.16 0-.8.32-.64.16.32-.32.32-.32.64zm3.2 0v-.32H610v.32h.32zm-26.88 3.68c0-1.28 1.44-2.24 1.92-3.36 0 1.12-1.28 2.24-1.92 3.36zm19.84-.32c0-.48.16-.64.48-.48 0 .32-.16.48-.48.48zm-4.16 3.04c0-.32.16-.16.16-.16.8-.8 0 .8-.16.16zM592.56 68c-.16-.16-.16-.32-.16-.48.32-.16.32 0 .32.32-.16-.16-.16 0-.16.16zm-3.68 2.08c.16-.64.96-.8 1.28-1.12.16 0 .32.16.48.16-.48.16-.96.48-1.76.96zm-7.04 4c.16-.64.48-.16.96-.16-.16.16-.64.32-.96.16zm-1.6.8c0-.32.16-.32.48-.32 0 .16-.16.32-.48.32zm-1.44.64c-.48-.16 0-.64.48-.48.32.48-.48 0-.48.48zm34.08-29.44c0 .32 0 .64-.16.96-.48-.32.16-.64-.16-.96h.32zm-22.08 3.36c.16-.96.64-1.44 1.12-1.92h.16c-.48.64-.8 1.28-1.28 1.92zm-2.08 3.2c.16-1.6 1.28-2.08 1.92-3.2h.16c-.32 1.28-1.44 2.08-2.08 3.2zm0 0c-.16.48-.48.8-.64 1.28-.455-.152-.048-1.165.54-1.271l.1-.009zm-1.76 2.56c-.16 1.12-.64 1.76-1.44 2.24.288-.864.835-1.469 1.292-2.048l.148-.192zm4.96 13.12c-.32-.16-.32.16-.64.16 0-.32.64-.64.64-.16zm-8.32 4.96c0 .16-.16.32-.48.32-.16-.32.48-.64.48-.32zm4.32-2.24c-.32 0-.48 0-.48-.32.16-.16.48-.32.8-.16 0 .16-.32.16-.32.48zm9.12-30.72c0 .32-.16.48-.48.48-.16-.48.32-.32.48-.48zm-4.32 6.24c0 .32-.32.48-.32.8h-.16c0-.48.32-.48.32-.8h.16zm21.92.48c-1.6 0-2.4 1.44-4.16 1.6 1.44-.96 3.2-1.76 4.96-2.4 0 .48-.8.32-.8.8zm5.76 3.52c-.16.64-.8 0-.32-.32.16 0 .16.16.32.32zm-17.12 10.08c0 .16-.16.32-.48.32 0-.32.16-.48.48-.32zm-.8.96c.16-.64.32 0 .8 0 .48-.64 1.12-1.12 1.92-1.44-.16-.48-.32-.8.32-.8-.16.16-.16.32 0 .64 1.31-.873 2.354-1.217 3.374-1.993l.306-.247h.48c.32-.48-.32-.32-.16-.8.64-.16 1.44-1.28 1.76-.64-.16.32-.8.16-.8.8.96-.32 1.76-.96 2.56-1.28-.16-.48-.32-.8.32-.8.32.32-.32.32-.16.8.64-.16.64-.48.48-.96 1.12-.16 1.76-1.44 2.72-1.12 0 .48-1.28.32-.8.96.48-.64 1.6-.64 2.08-1.28-.16-.64-.8.64-1.12 0 4.48-2.56 10.88-4.16 15.36-6.72-.8 0-1.12.32-1.76.48v-.48c-.96.8-1.92.48-2.56 1.28-.32 0-.64-.16-.8-.32 1.12-.8 2.4-1.12 3.84-1.12 0-.32 0-.64.16-.64.64-.16.48.32.96.32-.16-.64.48-.32.32-.8-.32-.16-.8-.16-.96-.32.64-.48 1.44-.16 1.6.48.64.16 0-.8.48-.64.32 0 .8.16 1.12 0-.16-.16-.8-.48-.32-.64.48.64.8 0 1.28-.16 0 .32-.32.48.16.64-.16-1.12.96-.96 1.28-1.6-1.44.48-2.72.32-4 .8 0-.32.48-.32.32-.8-.96-.16-.8.64-1.28.96-1.12-1.12-2.72.8-3.52.8.48-1.6 2.56-1.12 3.36-2.08-.48-.48-.96.16-1.44.32-.48-.48.48-.48 0-.8-1.44.32-2.72.96-4.16 1.44.32-.64 0-.64-.32-.8.48-.16.8-.48.8-1.12-.724 1.158-1.972.875-2.914 1.167l-.139.048c.102.012.173.118.173.225-.32.16-.64.48-.96.16-.16.48-.48.96-.8 1.28-.32-.8.32-.64.48-1.28-.96.16-1.92.48-1.92 1.28-.64.16-.16-.64-.48-.48-.8.48-1.76 1.12-3.04 1.28 0-.32.16-.32.16-.64-.48-.16-.64.16-.96.32.16-.64-1.12-.64-.64-.96.48-.16.48.32.8.48 0-.96 1.12-.8 1.12-1.6-.64 0-.48.8-.96.16-8.64 3.84-17.12 8-25.28 12.48-.48.64-.96 1.28-2.08 1.44-1.28.96-3.04 2.4-4.48 2.72 3.68-5.44 7.36-11.68 11.52-16.8 1.44-3.2 4-4.8 5.12-8 1.6-1.6 3.04-3.36 4-5.44.32 0 .32-.32.64-.16.48-1.6 1.44-2.72 2.4-3.36v-.64c.32-.16.48-.48.8-.48 1.76-3.2 4-5.92 5.76-8.96.32-.48 1.12-.64 1.12-1.44-.32-.48-.64.48-.8-.16.16-.16.64-.16.64-.48-1.6-1.6-2.72-4.48-5.12-4.8.16-.48-.16-.48-.16-.8-.96 0-1.6 0-2.24.16-.32.8-1.12 1.28-1.92 1.6-4.96 7.84-11.52 14.24-16 22.56-.48-.16-.48.32-.8.48-7.36 11.68-16.64 22.08-21.6 35.68.16.8 1.44.96 1.6 2.4 1.12.64 2.08 1.28 2.72 2.56 2.72 2.24 6.56 3.04 9.6.64.48 0 .8-.32 1.12-.32 0-.16.16-.16.16-.32 1.12-.16 1.76-.8 1.6-1.44.32-.16.16.48.48.48 0-.32.16-.32.48-.32.16-.32-.48-.64 0-.8.64-.32 0 .64.64.48.32-.32 0-1.28.8-1.12.16.48-.48 0-.32.64.64 0 .8-.48 1.12-.8 1.12-.64 2.56-1.12 3.2-2.08 0-.32-.32.16-.32-.16.133-.133.267-.267.4-.307l.08-.013c1.12.64 2.56-1.28 3.36-1.92.8.32 1.28-1.12 2.4-.96.16-.48 0-.8.16-.8.32 0 .8.32.96-.16-.16 0-.48 0-.48-.16.16-.16.32-.16.64-.16 0-.32.48-.64.32 0 .96-.16 1.92-.64 1.28-1.44.32 0 .32.32.8.32 0-.48 0-.64.32-.64 0 .16.16.32.32.32-.16-.96 2.08-.32 1.12-1.28z" fill="#FFF" fill-rule="nonzero"/></svg>
