<svg width="120" height="120" xmlns="http://www.w3.org/2000/svg"><g fill="none" fill-rule="evenodd"><circle fill="#E53E61" cx="60" cy="60" r="60"/><path d="M29.056 68.728c.256-.192.576-.256.896-.384-.064.32-.64.384-.896.384zm-18.24 7.552c.192 0 .384-.064.32-.32.32 0 .576-.128.64-.384.128 0 .128.064.192.064-.128.32-.512.384-.704.576 0 .064.064 0 .192 0 0 .384-.576.384-.64.064zm-2.304-.192v.192c.192-.064.128-.448.256-.576-.32.128-.512.384-.768.576.192.192.256-.192.512-.192zm5.248-.704v.256c-.128.128-.32.064-.512.064 0-.228.303-.202.46-.284l.052-.036zm6.336-2.24c.256-.051.471-.184.678-.301l.154-.083c-.064-.064-.128-.064-.192-.064.064-.192.32-.128.192-.448.384.32.832-.384 1.088 0 .064-.128 0-.384.32-.32-.064-.192.256-.064.192-.32-.128-.064-.192.192-.192-.064.32-.064.448.256.768.256.064-.192.704-.192.512-.448 0 .064-.064.064-.128.064.256-.256.64-.448 1.088-.512.256-.192.448-.064.64.064 1.152-.768 2.816-1.024 4.16-1.856.128.128.192-.064.384 0 .192-.384.576-.192.832-.512 1.536-.384 3.328-1.216 4.992-1.6 2.816-1.216 5.952-1.792 8.256-3.52 0-1.088-.384-1.408-.704-2.112v-.32c-.512-1.024-1.024-1.92-2.176-2.24-.256.064-.64-.064-.832-.256-1.216 0-2.816-.704-4.288-.768-2.24-.448-4.8-.896-7.04-1.28-.832-.128-1.664-.192-2.368-.512 2.624-1.472 5.824-2.688 9.024-3.264 2.176-.384 4.992-1.216 6.912.064.384-.192.384.256.768.192.256-.256-.128-.64.064-.96-.832-1.024-.576-2.432-1.6-3.328-.576-.192-1.088-.704-1.792-.576-.128-.064-.32-.064-.448-.128-.384 0-.576.064-1.024 0-.896.128-1.536.256-2.24.256-1.856.512-3.84.832-6.016 1.536-2.752 1.216-5.952 2.24-8 4.352-.064.256 0 .64-.128.896.768 1.472 1.28 3.264 2.56 4.224 0-.064.128-.064.192-.064.512.704 1.984.576 2.624 1.024.128 0 .128-.128.32-.064 1.024.512 2.176.32 3.072.832.768 0 .896.128 1.536.064 0 .192.256 0 .32.256.64-.128 1.344.256 1.984.128.256.384 1.28.064 1.472.448.384-.192.576.128 1.024.192-1.088.384-2.176.96-3.136 1.088-8.768 3.136-17.28 6.528-24.384 11.648-.064.384-.512.448-.704.768.064.256.32-.064.32.192h.128c.128-.192-.064-.448.384-.576.064.128-.32.32 0 .32.384-.256.512-.768.96-1.024 0 .256-.192.192-.256.384.32-.256.704-.384 1.088-.32-.064-.192.064-.32.064-.448.128 0 .128.064.192.064.064-.128-.192-.256 0-.256.128.32.64-.32.768 0-.576.256-.896.896-1.536.96 0 .256-.256.256-.256.512-.704.128-.96.64-1.344 1.024.128.064.256-.192.32 0-.064.064-.448.128-.192.256.064-.192.064-.064.256-.064 0-.128 0-.32.128-.32v.32c.256.064.32-.32.448-.192-.064.192-.32.192-.32.448.384-.064.512-.32.768-.448.128.064-.128.192.064.256.064-.128.192-.128.256-.064-.064.064-.32.192-.064.256.256-.064.448-.64.704-.32-.064-.192.128-.256.064-.448.192 0 .192-.128.448-.064 0 .32.256.384.064.704.256.064.256-.128.32-.256-.064 0-.064-.128-.064-.192.192-.064.256-.128.448-.192.064.32-.384.064-.32.384.32 0 .448-.512.704-.192v-.32c.384 0 .576-.256.576-.448.384.064.704-.064 1.152-.064a.695.695 0 01.512-.512c.192 0 .064.256.256.192.064-.064.192-.064.32-.128.064-.128-.192-.192 0-.256.128-.128.128 0 .256.064.128-.128-.128-.128-.064-.32.16-.107.32-.213.517-.246l.123-.01c-.128.192-.384.192-.448.448.256 0 .32-.32.64-.128 0-.256.256-.256.448-.384 0 .128 0 .192.128.192s.128-.064.256-.064c0-.128-.064-.128-.064-.256.32-.128.448-.128.704-.128.192-.064-.128-.128-.064-.256.512.064.704-.512.96-.448 0 .192-.384.256-.192.384.256-.256.512-.192.704-.448zM69.12 43c-.448.064-.192.896-.576 1.152-.192-.064-.192-.32-.448-.256v.384c-.768 0-.384 1.216-1.152 1.344-.128.64-.64.96-.704 1.728-.512.256-.384 1.216-.96 1.472a59.285 59.285 0 01-3.84 6.464c-.512 1.216-1.472 2.112-1.984 3.392-1.152 1.472-2.24 3.008-3.52 4.352.064.128-.128.128-.064.32-2.176 2.24-3.904 4.928-6.72 6.592 0-.128-.064-.256-.128-.256 0 .192 0 .448-.256.384-.064-.704.32-1.216 0-1.472.256-.128.064-.64.384-.64 0 .32-.064 1.088-.128 1.6.512-.768.32-2.24.704-3.072-.128-.896.384-1.152.32-1.984.192 0 .064-.256.192-.256h.256c.064-.448 0-.512-.128-.768.128-.192.32-.192.32-.448-.448-.32.064-.96.192-1.28.128 0 0 .256.192.256 1.152-3.072 1.856-6.464 3.968-8.512.256.256.64-.064.96 0 .064-.192.064-.32.064-.512-.704-.704-1.28-1.472-2.304-1.728-.128-.128-.128-.32-.256-.448-.512 0-.512-.512-.96-.512-.576.256-1.408.192-1.728.768-.064-.064-.064-.192-.192-.128-.704.896-1.28 1.984-1.856 3.2-.32.704-.512 1.28-.832 2.112-.064.128-.256.256-.32.448-.064.128 0 .384-.064.576-.064.128-.256.32-.32.512-.192.512-.192 1.088-.384 1.664-.256.832-.64 1.664-.832 2.56-.192.768-.256 1.536-.448 2.368-.512 2.368-1.408 6.08.384 7.488 0 .128-.128.192.064.256a.883.883 0 01.192-.256c0 .128.256.064.256.32.128-.064.256-.128.384-.128 0 .128.192.064.128.256 1.216.384 2.368.896 3.52 1.024.192-.192.704-.256.896 0 .448-.448 1.216-.512 1.792-.768.064-.128.064-.256.192-.256 1.984-.896 3.072-2.624 4.544-3.968.64-1.472 2.24-1.984 2.432-3.776.384.256.192-.832.576-.32.32-.704.704-1.344 1.024-1.984.704-.256.448-1.088 1.088-1.344.384-1.152 1.536-2.176 2.112-3.456.064-.256-.128-.32-.064-.512.064.192.384-.064.384-.256-.064-.256-.192.256-.256.064.448-1.088 1.28-1.856 1.664-3.008.192-.192.64-.576.384-.768-.192.192-.128.64-.512.64.896-1.856 1.728-3.456 2.368-5.696-.32-.064-.256.32-.512.384.192-.832.704-1.792.96-2.752-.256.256-.32-.064-.448.128 0 .256.064.128.128.448-.256.064-.128-.256-.32-.192 0 .384.192.832-.32.832a.582.582 0 01-.256.512c.192-1.152.896-1.984.768-3.072.192-.064.128.064.256 0-.192-.192.064-.384-.192-.512-.128.128-.128.384-.256.576-.064-.576.448-.96.192-1.28zM49.472 65.784c-.064-.192 0-.32 0-.576.128-.064.256 0 .32.064-.064.192-.064.512-.32.512zm0 1.088c-.192 0-.128-.128-.256-.128.128-.256.064-.384.192-.704.256 0 .128.448.064.832zm-.384.96c.064-.256 0-.256 0-.448.128 0 .128-.128.256-.064 0 .256 0 .512-.256.512zm8.512.512c-.448-.256.128-.64.384-.704 0 .384-.448.256-.384.704zm4.992-1.28c.32-.256.448-.64.64-1.024-.256.32-.576.576-.64 1.024zm8-15.488c-.448.512-1.024 1.216-1.536 1.344.427-.373.809-.791 1.258-1.142l.278-.202zm-.809 16.887l-.012-.011c-.015-.036.069-.108.117-.108 0 .128.128.128.128.192-2.048 1.28-5.056 2.112-7.04 2.624-.256-.128-.512.064-.704-.064-.128.064 0 .32-.192.256-.128 0-.192-.064-.192-.128.448-.896.512-1.728 1.024-2.688 0 .256.128.064.192 0 0-.256-.128 0-.256-.064.064-.192.256-.256.256-.512-.256.064-.256.64-.448.512.128-.512.768-.896.448-1.536.192.064.064-.192.192-.256-.064.128.064.128.128.128.064-.064 0-.256-.064-.384-.448.32-.576.832-.896 1.216-.064-.32.192-.256.128-.576-.192-.192-.256.32-.384.128.128-.192.32-.32.32-.704-.448.32-.512 1.216-.96 1.216.128.256 0 .448-.256.448-.064-.128.256-.32.064-.448-.064.128-.064.256-.192.32-.128-.32.128-.32.128-.576-.32.512-.96.768-.832 1.28-.128.128-.192-.064-.32.064 0 .768-.512.896-.64 1.408-.064 0-.064-.128-.192-.128 0 .256-.128.32-.064.512-.64.192-.256.768-.384 1.216.32.256.704.512 1.024.576 0 .192-.256.064-.192.256.192.128.192.32.448.384.768 1.344 2.368 2.048 4.16 1.984.384-.256 1.28 0 1.6-.32 1.408-.064 2.56-.448 3.776-1.024 1.536-.512 2.816-.896 4.032-1.856.576 0 1.152-.512 1.728-.896 2.368-.96 3.904-2.368 6.144-3.52.96-.896 1.984-1.664 3.136-2.432 2.112-1.984 4.16-4.032 5.888-6.4v-.32c1.28-1.6 2.112-3.968 1.92-6.08-.512-1.536-1.408-3.264-2.56-4.416-.448-.384-.96-.512-1.408-.832-.32-.128-.384-.384-.64-.512-.832-.256-1.664-.64-2.56-.768-.832-.064-1.664.128-2.496-.064-.32.192-.96.128-1.344.064-.192.192-.192.192-.448.064-.192.192.128.192.192.32-2.176.32-3.776 1.28-5.888 2.048 0 .192.064.128 0 .256-.256.064-.448.128-.64 0-.064.576-.832.448-.896.96-.512.064-.96.32-1.216.832-.064 0-.064-.128-.192-.128-.128.192-.576.256-.384.576-.256 0-.256.32-.576.256 0-.064.064-.064.064-.192-.192 0-.32.256-.192.32 0-.064.128-.064.128 0-.128.064-.192.192-.32.192-.192.192-.32.448-.576.448 0-.192.256-.128.256-.384-.96.768-1.92 1.536-2.56 2.496.32-.064.448-.64.768-.576-.256.32-.512.576-.832.768 0 .128 0 .256-.128.192-.064 0-.064-.064 0-.128-.256 0-.192.256-.192.448-.128.064-.128-.064-.192-.064 0 .704-.704 1.28-.832 2.048.32 0 .128-.512.448-.512-.768 1.408-1.152 3.328.32 4.16-.128.192.192.384.32.448.704-.064 1.216-.384 1.408-1.024-.192-.128-.192-.448-.448-.512.128-.128 0-.128 0-.32.704-1.536 1.536-2.944 2.688-4.096 1.216-1.216 2.752-2.24 4.48-3.072.384-.192.832-.512 1.28-.704 1.28-.512 2.816-1.024 4.416-1.28 0-.128.256-.128.384-.256.256.192 1.024 0 1.664 0l.614.002c1.33.012 2.654.1 3.93.766.384 1.984-.64 4.352-1.728 5.696-2.24 3.584-5.504 6.08-8.832 8.576-2.048 1.28-4.096 2.752-6.272 3.584.512-2.56 2.048-4.16 2.944-6.4 1.024-1.472 1.664-3.328 2.816-4.736-.384-1.152-1.344-1.792-2.048-2.624-.384-.064-.704.32-.96.064-.064.128-.128.256-.32.192-1.856 3.328-3.968 6.464-5.632 9.92-.064.704-.576 1.6-.128 2.24.128.128.192-.064.32.064.18.6.585 1.706 1.162 1.895l.077.016zM94.656 67c-.128-.384.064-1.024-.256-1.28.256-.96.32-2.24.512-3.52.192-.064.128-.32.256-.384 0-.256.128-.32.064-.64.576-.896.768-2.176 1.472-2.88v-.32c1.088-1.152 1.792-2.624 3.2-3.456.064.32.192.512.256.704.192-.064.32-.128.448-.192.128.32-.128.256 0 .576.192-.192.448-.512.768-.384.448-1.024 1.152-1.728 2.112-2.24.64-.768 2.432-1.408 3.648-.832-.384 3.328-2.56 4.992-3.84 7.424-.448.32-.64.96-1.088 1.28-.064.064.064.128 0 .192-2.176 2.304-3.968 5.056-7.552 5.952zm-3.52-4.224c-.384-.704.192-1.792.384-2.624.256.768-.512 1.664-.384 2.624zm1.344-4.096h.128c.064.384-.064.64-.32.704 0-.32.192-.384.192-.704zm0 0c-.384.064-.448.576-.384.896-.384-.064-.256.384-.384.512-.256-.896.896-1.856.832-2.816-.64 1.664-1.664 3.584-1.664 5.312-.128.064-.064.256-.192.256.128.448 0 .64-.256.832 0-.064.064-.192-.064-.192-.192.704.256 1.664 0 2.24.064.64.384 1.088.768 1.344 0 .128-.128.192-.192.32.384-.128.256.064.192.32.256-.128.32 0 .384-.256.128.128.32.448.064.512.713 1.01 2.144 1.69 3.01 2.089l.158.072-.014-.03c-.008-.037.008-.083.046-.083.597.18 1.53.414 2.015.132l.097-.068v.192c.704-.32 1.408-.256 1.984-.576.128-.256.384-.128.704-.128.128-.128-.064-.512.256-.576.064.256-.128.448.064.448.064-.192 0-.448.256-.576.192.128.192.192.384.064.064-.064-.192-.256 0-.32.256.128.192-.064.512 0 0-.384.448-.64.704-.576.256-.448.832-.64 1.152-1.024 0 .064.064.128.064.128.064-.32.384-.576.576-.512.704-1.216 2.112-1.984 2.56-3.264.128-.064.256-.064.32-.128.512-.896 1.024-1.344 1.536-2.24 0 .064.128.064.128.064-.064-.32.32-.256.192-.576.32-.064.64-.448.64-.96.256.064.256-.064.32-.192-.064.064-.064 0-.128-.128.512-.128.448-.768.832-.96.64-1.344 2.176-3.392 1.536-5.504-.512-.512-.96-1.152-1.792-1.472-.512-.576-1.28-.96-2.048-1.408v-.192c-.512 0-.768-.448-1.28-.32-.064 0-.128-.064-.128-.192-.384.192-.576-.128-1.024-.128-.128.128.064.256-.192.32-.128-.32-.64.064-.96-.128 0 .512-.96.192-1.28.512.128 0 .256 0 .256.064 0 .128-.128.128-.32.128.064-.128 0-.192-.128-.192-.192.192.448.64-.128.576.064-.064.064-.064.064-.192-.256-.064-.448.128-.704.064-.064.128.064.192 0 .384-.192 0-.192.256-.448.256 0-.128 0-.192-.128-.256-.064.128-.192.32 0 .384-.192.128-.32.32-.576.384-.128.064-.192 0-.256-.128-1.472 0-2.432.448-3.52 1.088 0 .256-.192.384-.512.384-.128.256-.192.64-.64.64-.256.448-.448.96-1.024 1.152.064.64-.768.64-.64 1.152h-.256c.064.384-.128.448-.32.576.192.32-.064.32-.128.576.128.192.192-.128.256.064-.128.128-.192.384-.384.512 0-.32.256-.384 0-.64 0 .576-.64.832-.256 1.216-.064.128 0 .32-.192.32 0-.128.128-.128.064-.256-.064 0-.128-.064-.256-.128 0 .192.128.192.128.32-.128.064-.128.192-.256.192v.32z" fill="#FFF" fill-rule="nonzero"/></g></svg>
