<svg width="691" height="387" xmlns="http://www.w3.org/2000/svg"><g fill="none" fill-rule="evenodd"><path fill="#FEFEFE" d="M688.943 378.97h-506.36V21.75l506.36 113.187z"/><path stroke="#5411BE" stroke-width="3" fill="#FFF" d="M688.943 378.97h-506.36V21.75l506.36 113.187z"/><path d="M238.018 118.396H202.87a4.923 4.923 0 0 1-4.923-4.926V53.965c0-3.174 2.958-5.52 6.048-4.797l35.148 8.244a4.929 4.929 0 0 1 3.804 4.797v51.26a4.926 4.926 0 0 1-4.93 4.927M238.018 201.63H202.87a4.925 4.925 0 0 1-4.923-4.925V135.91a4.927 4.927 0 0 1 4.923-4.926h35.148a4.93 4.93 0 0 1 4.929 4.926v60.795a4.928 4.928 0 0 1-4.93 4.926M238.018 284.867H202.87a4.925 4.925 0 0 1-4.923-4.926v-60.795a4.927 4.927 0 0 1 4.923-4.926h35.148a4.93 4.93 0 0 1 4.929 4.926v60.795a4.928 4.928 0 0 1-4.93 4.926M299.588 118.396H264.44a4.924 4.924 0 0 1-4.926-4.926V68.572a4.928 4.928 0 0 1 5.742-4.86l35.145 5.898a4.933 4.933 0 0 1 4.113 4.86v39a4.924 4.924 0 0 1-4.926 4.926M299.588 201.63H264.44a4.925 4.925 0 0 1-4.926-4.925V135.91a4.927 4.927 0 0 1 4.926-4.926h35.148a4.927 4.927 0 0 1 4.926 4.926v60.795a4.925 4.925 0 0 1-4.926 4.926M299.588 284.867H264.44a4.925 4.925 0 0 1-4.926-4.926v-60.795a4.927 4.927 0 0 1 4.926-4.926h35.148a4.927 4.927 0 0 1 4.926 4.926v60.795a4.925 4.925 0 0 1-4.926 4.926M361.158 118.396H326.01a4.924 4.924 0 0 1-4.926-4.926V80.965c0-3.174 2.958-5.52 6.051-4.797l35.145 8.244a4.926 4.926 0 0 1 3.804 4.797v24.26a4.925 4.925 0 0 1-4.926 4.927M361.158 201.63H326.01a4.925 4.925 0 0 1-4.926-4.925V135.91a4.927 4.927 0 0 1 4.926-4.926h35.148a4.93 4.93 0 0 1 4.926 4.926v60.795a4.927 4.927 0 0 1-4.926 4.926M361.158 284.867H326.01a4.925 4.925 0 0 1-4.926-4.926v-60.795a4.927 4.927 0 0 1 4.926-4.926h35.148a4.93 4.93 0 0 1 4.926 4.926v60.795a4.927 4.927 0 0 1-4.926 4.926M422.726 201.63H387.58a4.925 4.925 0 0 1-4.926-4.925V135.91a4.927 4.927 0 0 1 4.926-4.926h35.145a4.93 4.93 0 0 1 4.929 4.926v60.795a4.928 4.928 0 0 1-4.93 4.926M422.755 118.396h-35.148a4.923 4.923 0 0 1-4.923-4.926V92.965c0-3.174 2.958-5.52 6.048-4.797l35.148 8.244a4.929 4.929 0 0 1 3.804 4.797v12.26a4.926 4.926 0 0 1-4.93 4.927M422.755 284.867h-35.148a4.925 4.925 0 0 1-4.923-4.926v-60.795a4.927 4.927 0 0 1 4.923-4.926h35.148a4.93 4.93 0 0 1 4.929 4.926v60.795a4.928 4.928 0 0 1-4.93 4.926M484.296 118.396h-35.148a4.923 4.923 0 0 1-4.923-4.926v-11.721l40.887 6.86a4.926 4.926 0 0 1-.816 9.786M484.296 201.63h-35.148a4.925 4.925 0 0 1-4.923-4.925V135.91a4.927 4.927 0 0 1 4.923-4.926h35.148a4.93 4.93 0 0 1 4.929 4.926v60.795a4.928 4.928 0 0 1-4.929 4.926M550.794 122.793l-41.514-2.577a3.716 3.716 0 0 1-3.486-3.711v-3.279l45 9.567zM545.866 201.63h-35.148a4.923 4.923 0 0 1-4.923-4.925V135.91a4.925 4.925 0 0 1 4.923-4.926h35.148a4.93 4.93 0 0 1 4.93 4.926v60.795a4.928 4.928 0 0 1-4.93 4.926M607.437 201.63h-35.148a4.925 4.925 0 0 1-4.926-4.925V135.91a4.927 4.927 0 0 1 4.926-4.926h14.676c.318 0 .639.033.95.093l20.473 4.029a4.926 4.926 0 0 1 3.975 4.836v56.763a4.927 4.927 0 0 1-4.926 4.926M484.296 284.867h-35.148a4.925 4.925 0 0 1-4.923-4.926v-60.795a4.927 4.927 0 0 1 4.923-4.926h35.148a4.93 4.93 0 0 1 4.929 4.926v60.795a4.928 4.928 0 0 1-4.929 4.926M545.866 284.867h-35.148a4.923 4.923 0 0 1-4.923-4.926v-60.795a4.925 4.925 0 0 1 4.923-4.926h35.148a4.93 4.93 0 0 1 4.93 4.926v60.795a4.928 4.928 0 0 1-4.93 4.926M607.437 284.867h-35.148a4.925 4.925 0 0 1-4.926-4.926v-60.795a4.927 4.927 0 0 1 4.926-4.926h35.148a4.93 4.93 0 0 1 4.926 4.926v60.795a4.927 4.927 0 0 1-4.926 4.926M669.932 201.63h-37a4 4 0 0 1-4-4v-57.646l45 9v48.647a4 4 0 0 1-4 4zM632.932 284.865h37a4 4 0 0 0 4-4v-62.647a4 4 0 0 0-4-4h-37a4 4 0 0 0-4 4v62.647a4 4 0 0 0 4 4zM182.582 44.483l506.361 107.694" fill="#EAEAEA"/><path fill="#8352F9" d="M182.655 313.47h506.364v-14.277H182.655z"/><path stroke="#5411BE" stroke-width="3" d="M182.655 313.47h506.364v-14.277H182.655z"/><path fill="#FEFEFE" d="M391.017 378.972h89.64V313.47h-89.64z"/><path stroke="#054E86" stroke-width="3" fill="#EAEAEA" d="M391.017 378.972h89.64V313.47h-89.64z"/><path fill="#5411BE" d="M688.943 138.303l-577.4-121.11 3.212-15.42 574.188 119.475z"/><path stroke="#5411BE" stroke-width="3" d="M688.943 138.303l-577.4-121.11 3.212-15.42 574.188 119.475z"/><path d="M155.605 96.347l10.879-1.437c1.406-.186 2.393 1.356 1.637 2.556l-4.653 7.389a1.675 1.675 0 0 1-2.577.318l-6.225-5.952c-1.017-.972-.459-2.688.94-2.874" fill="#054D83"/><path d="M103.876 305.717c0-13.092-13.416-36.975-22.278-36.975a17.39 17.39 0 0 0-5.697.97l-.006-.013-17.619-11.607-17.4 118.533 61.695 2.523-6.969-50.964c.13-1.35.54-2.655 1.263-3.804 2.748-4.374 7.011-15.309 7.011-18.663" fill="#41A0CD"/><path d="M103.876 305.717c0-13.092-13.416-36.975-22.278-36.975a17.39 17.39 0 0 0-5.697.97l-.006-.013-17.619-11.607-17.4 118.533 61.695 2.523-6.969-50.964c.13-1.35.54-2.655 1.263-3.804 2.748-4.374 7.011-15.309 7.011-18.663z" stroke="#054D83" stroke-width="3"/><path d="M185.389 153.56s-2.838-6.284-5.916-16.517c-2.397-19.35-11.547-42.31-31.54-42.31-.608 0-1.205.028-1.8.07a25.585 25.585 0 0 0-1.802-.07 25.708 25.708 0 0 0-11.844 2.875c-.42.216-.864.384-1.33.474l-16.676 3.33a5.206 5.206 0 0 0-2.103.939l-37.602 28.092s-22.2 16.65-21.15 38.697l-.003.003c-5.406 3.462-40.164 54.399-40.197 54.45C3.463 228.762 1.5 245.12 1.5 257.118c0 6.717 2.139 12.93 5.766 18.012l12.18 38.037c.183.579.249 1.188.189 1.79l-5.31 54.286c-.327 5.7 4.209 10.5 9.915 10.5h43.815c3.864 0 6.51-3.903 5.073-7.494l-2.403-6.003c0-.003-.003-.003-.003-.003l-10.971-12.54a3.738 3.738 0 0 1-.552-4.086s28.023-47.874 34.212-70.974c0-.003.003-.003.003-.003 6.096-9.97 14.286-25.347 17.66-41.4 3.33-7.218 8.149-11.26 10.648-18.6 8.616-25.29 7.254-36.96 12.303-48.372v-.003c.957-5.235 6.228-13 12.633-20.841.003-.003.006-.003.009 0a7.651 7.651 0 0 0 4.224 2.607l6.32 1.413a7.706 7.706 0 0 1 2.107.807l14.997 8.478a7.735 7.735 0 0 0 8.793-.816 7.61 7.61 0 0 0 2.28-8.352" fill="#7AC1EA"/><path d="M185.389 153.56s-2.838-6.284-5.916-16.517c-2.397-19.35-11.547-42.31-31.54-42.31-.608 0-1.205.028-1.8.07a25.585 25.585 0 0 0-1.802-.07 25.708 25.708 0 0 0-11.844 2.875c-.42.216-.864.384-1.33.474l-16.676 3.33a5.206 5.206 0 0 0-2.103.939l-37.602 28.092s-22.2 16.65-21.15 38.697l-.003.003c-5.406 3.462-40.164 54.399-40.197 54.45C3.463 228.762 1.5 245.12 1.5 257.118c0 6.717 2.139 12.93 5.766 18.012l12.18 38.037c.183.579.249 1.188.189 1.79l-5.31 54.286c-.327 5.7 4.209 10.5 9.915 10.5h43.815c3.864 0 6.51-3.903 5.073-7.494l-2.403-6.003c0-.003-.003-.003-.003-.003l-10.971-12.54a3.738 3.738 0 0 1-.552-4.086s28.023-47.874 34.212-70.974c0-.003.003-.003.003-.003 6.096-9.97 14.286-25.347 17.66-41.4 3.33-7.218 8.149-11.26 10.648-18.6 8.616-25.29 7.254-36.96 12.303-48.372v-.003c.957-5.235 6.228-13 12.633-20.841.003-.003.006-.003.009 0a7.651 7.651 0 0 0 4.224 2.607l6.32 1.413a7.706 7.706 0 0 1 2.107.807l14.997 8.478a7.735 7.735 0 0 0 8.793-.816 7.61 7.61 0 0 0 2.28-8.352z" stroke="#054D83" stroke-width="3"/><path d="M185.822 162.39l-.039-.005c.018-.237.04-.474.04-.714 0-5.697-4.618-10.314-10.315-10.314-4.38 0-8.115 2.736-9.609 6.594l-.075-.018-7.974 20.862a4.098 4.098 0 0 1-4.602 2.565c-2.535-.483-5.637-1.158-6.102-1.62a16.777 16.777 0 0 0-4.047-2.973 19.027 19.027 0 0 0-4.959-3.633 18.882 18.882 0 0 0-9.5-4.32c-3.232-2.535-20.623-5.862-23.755-5.862-1.566 0-5.34-.201-8.154-.498a6.456 6.456 0 0 1-4.653-2.74c-3.369-4.844-11.556-15.77-19.14-15.77-10.5 0-19.014 8.508-19.014 19.008 0 .963 22.203 45.342 41.961 43.653.912 0 7.29 1.956 9.91 2.298a18.99 18.99 0 0 0 6.878 1.302h8.775c2.322 0 13.857-.675 13.857-.675l18.97-3.465a7.806 7.806 0 0 0 2.531-.945l22.06-12.975a4.117 4.117 0 0 0 1.964-2.805l4.632-25.011c.144-.54.255-1.095.31-1.665l.05-.273z" fill="#40A0CD"/><path d="M185.822 162.39l-.039-.005c.018-.237.04-.474.04-.714 0-5.697-4.618-10.314-10.315-10.314-4.38 0-8.115 2.736-9.609 6.594l-.075-.018-7.974 20.862a4.098 4.098 0 0 1-4.602 2.565c-2.535-.483-5.637-1.158-6.102-1.62a16.777 16.777 0 0 0-4.047-2.973 19.027 19.027 0 0 0-4.959-3.633 18.882 18.882 0 0 0-9.5-4.32c-3.232-2.535-20.623-5.862-23.755-5.862-1.566 0-5.34-.201-8.154-.498a6.456 6.456 0 0 1-4.653-2.74c-3.369-4.844-11.556-15.77-19.14-15.77-10.5 0-19.014 8.508-19.014 19.008 0 .963 22.203 45.342 41.961 43.653.912 0 7.29 1.956 9.91 2.298a18.99 18.99 0 0 0 6.878 1.302h8.775c2.322 0 13.857-.675 13.857-.675l18.97-3.465a7.806 7.806 0 0 0 2.531-.945l22.06-12.975a4.117 4.117 0 0 0 1.964-2.805l4.632-25.011c.144-.54.255-1.095.31-1.665l.05-.273z" stroke="#064D81" stroke-width="3"/><path d="M66.194 258.092s14.643 36.783 13.5 49.8c-.98 11.166-18.303 39-18.303 39s10.83-24.3 12.603-42c2.127-21.213-7.8-46.8-7.8-46.8" fill="#054D83"/><path d="M66.194 258.092s14.643 36.783 13.5 49.8c-.98 11.166-18.303 39-18.303 39s10.83-24.3 12.603-42c2.127-21.213-7.8-46.8-7.8-46.8z" stroke="#054D83" stroke-width="3" stroke-linecap="round" stroke-linejoin="round"/><path d="M142.015 106.027l-3.738 3.74a2.906 2.906 0 0 0-.798 2.626l.648 3.237a2.904 2.904 0 0 0 3.669 2.22l9.42-2.757c2.37-.693 2.853-3.84.798-5.208l-6.33-4.221a2.911 2.911 0 0 0-3.67.363M163.067 124.041c1.656 2.418-2.697 5.772-6.03 5.772-3.327 0-7.53-3.204-6.027-5.772" fill="#054D83"/><path fill="#FEFEFE" d="M403.674 378.726h64.179v-54.987h-64.179z"/><path stroke="#064E86" stroke-width="3" d="M403.674 378.726h64.179v-54.987h-64.179z"/><path fill="#33BFFD" d="M406.575 375.972h29.274v-49.476h-29.274z"/><path stroke="#FEFEFE" stroke-width="3" d="M406.575 375.972h29.274v-49.476h-29.274z"/><path fill="#33BFFD" d="M435.846 375.972h29.274v-49.476h-29.274z"/><path stroke="#FEFEFE" stroke-width="3" d="M435.846 375.972h29.274v-49.476h-29.274z"/><path fill="#0080C4" d="M431.745 359.187h7.875v-12.75h-7.875z"/><path d="M51.953 354.18c3.348 4.059 6.798 8.055 10.044 12.192.73.93 3.726 4.155 3.432 5.466-.123.543-3.717.29-5.33.282-10.135-.063-20.272-.13-30.409-.192-2.454-.015-6.546.564-8.238-1.767-.92-1.266-.243-4.764-.153-6.192.366-5.817.912-11.628 1.473-17.43.993-10.275 2.223-20.52 3.624-30.747.522-3.804-5.337-5.115-5.862-1.29-2.073 15.14-3.729 30.333-4.91 45.57-.355 4.536-1.594 10.605 1.484 14.55 2.814 3.612 7.332 3.249 11.448 3.288 7.722.075 15.447.099 23.17.147 4.541.03 13.973 2.019 17.948-.93 8.244-6.117-9.288-22.098-12.705-26.244-2.433-2.943-7.476.315-5.016 3.297" fill="#3E9FCD"/><path d="M11.682 224.983c-7.647 10.42-11.877 28.857-7.602 41.41 2.478 7.278 6.183 14.145 8.688 21.489 3.09 9.045 8.139 19.053 7.656 28.773-.192 3.852 5.802 3.51 5.99-.315.34-6.79-2-12.912-4.16-19.242-2.601-7.626-4.9-15.46-8.001-22.905-2.853-6.855-5.697-11.973-5.301-19.785.453-8.916 1.782-18.042 7.188-25.407 2.268-3.087-2.17-7.131-4.458-4.017" fill="#3E9FCD"/><path fill="#D5D5D5" d="M210 380.5l3.216 6.414h64.365l-3.207-6.414z"/><path d="M236.248 369.443a9.797 9.797 0 0 1-9.798 9.798c-5.409 0-9.798-4.386-9.798-9.798s4.39-9.798 9.798-9.798a9.797 9.797 0 0 1 9.798 9.798z" stroke="#344344" stroke-width="3"/><path d="M229.894 369.443a3.44 3.44 0 0 1-3.441 3.441 3.442 3.442 0 1 1 0-6.885 3.443 3.443 0 0 1 3.44 3.444" fill="#53CCFF"/><path d="M268.686 369.443a9.797 9.797 0 0 1-9.798 9.798c-5.41 0-9.798-4.386-9.798-9.798s4.389-9.798 9.798-9.798a9.797 9.797 0 0 1 9.798 9.798z" stroke="#344344" stroke-width="3"/><path d="M262.331 369.443a3.44 3.44 0 0 1-3.44 3.441 3.442 3.442 0 1 1 0-6.885 3.443 3.443 0 0 1 3.44 3.444" fill="#53CCFF"/><path stroke="#344344" stroke-width="3" stroke-linecap="round" stroke-linejoin="round" d="M226.451 369.443l8.868-17.442h17.571l-10.224 17.442zM233.45 347.559l9.216 21.885"/><path d="M256.882 352s2.007-1.188 1.545-3.81c.018-2.067-7.18-.957-7.18-.957l7.642 22.21M237.007 347.559h-6.468" stroke="#344344" stroke-width="3" stroke-linecap="round" stroke-linejoin="round"/></g></svg>
