<svg width="784" height="328" xmlns="http://www.w3.org/2000/svg" xmlns:xlink="http://www.w3.org/1999/xlink"><defs><ellipse id="b" cx="374.974" cy="197.063" rx="89.974" ry="90.063"/><filter x="-9.3%" y="-4.9%" width="114.2%" height="114.2%" filterUnits="objectBoundingBox" id="a"><feMorphology radius="4.8" operator="dilate" in="SourceAlpha" result="shadowSpreadOuter1"/><feOffset dx="-4" dy="4" in="shadowSpreadOuter1" result="shadowOffsetOuter1"/><feGaussianBlur stdDeviation="2" in="shadowOffsetOuter1" result="shadowBlurOuter1"/><feComposite in="shadowBlurOuter1" in2="SourceAlpha" operator="out" result="shadowBlurOuter1"/><feColorMatrix values="0 0 0 0 0 0 0 0 0 0 0 0 0 0 0 0 0 0 0.15 0" in="shadowBlurOuter1"/></filter><ellipse id="d" cx="650.974" cy="197.063" rx="89.974" ry="90.063"/><filter x="-9.3%" y="-4.9%" width="114.2%" height="114.2%" filterUnits="objectBoundingBox" id="c"><feMorphology radius="4.8" operator="dilate" in="SourceAlpha" result="shadowSpreadOuter1"/><feOffset dx="-4" dy="4" in="shadowSpreadOuter1" result="shadowOffsetOuter1"/><feGaussianBlur stdDeviation="2" in="shadowOffsetOuter1" result="shadowBlurOuter1"/><feComposite in="shadowBlurOuter1" in2="SourceAlpha" operator="out" result="shadowBlurOuter1"/><feColorMatrix values="0 0 0 0 0 0 0 0 0 0 0 0 0 0 0 0 0 0 0.15 0" in="shadowBlurOuter1"/></filter></defs><g transform="translate(0 3)" fill="none" fill-rule="evenodd"><path d="M332.043 323.73c189.157 0 512.426 11.179 441.82-52.244-70.605-63.422-234.398-76.096-421.949-50.173C164.364 247.236 0 246.161 0 271.486c0 25.326 142.885 52.244 332.043 52.244z" fill="#D8D8D8" fill-rule="nonzero" opacity=".296"/><path d="M622.234 49.234c13.844-.547 24.393-3.241 31.648-8.083 7.255-4.84 12.3-12.554 15.138-23.138" stroke="#8B572A" stroke-width="9.6" stroke-linecap="round"/><use fill="#000" filter="url(#a)" xlink:href="#b"/><use stroke="#0F3353" stroke-width="9.6" fill="#D8D8D8" xlink:href="#b"/><use fill="#000" filter="url(#c)" xlink:href="#d"/><use stroke="#0F3353" stroke-width="9.6" fill="#D8D8D8" xlink:href="#d"/><path d="M577.846 110.477l1.8 1.801" stroke="#979797" stroke-width="1.2" stroke-linecap="square"/><path d="M460.28 4.803c0 4.095 19.805 67.843 59.416 191.245" stroke="#0F3353" stroke-width="9.6"/><path d="M188.8 37h227.932a4.8 4.8 0 0 1 4.8 4.8v.007a4.8 4.8 0 0 1-4.8 4.8H188.8a4.8 4.8 0 0 1-4.8-4.8V41.8a4.8 4.8 0 0 1 4.8-4.8z" fill="#4A90E2" fill-rule="nonzero"/><rect fill="#386CA9" fill-rule="nonzero" x="328" y="58" width="43.188" height="9.607" rx="4.8"/><path d="M98.8 38h64.588a4.8 4.8 0 0 1 4.8 4.8v.007a4.8 4.8 0 0 1-4.8 4.8H98.8a4.8 4.8 0 0 1-4.8-4.8V42.8a4.8 4.8 0 0 1 4.8-4.8z" fill="#386CA9" fill-rule="nonzero"/><rect fill="#386CA9" fill-rule="nonzero" x="213.15" y="105.674" width="77.978" height="9.607" rx="4.8"/><rect fill="#F0D878" fill-rule="nonzero" x="173.561" y="105.674" width="29.991" height="9.607" rx="4.8"/><path d="M73.8 168h20.391a4.8 4.8 0 0 1 4.8 4.8v.007a4.8 4.8 0 0 1-4.8 4.8H73.8a4.8 4.8 0 0 1-4.8-4.8v-.007a4.8 4.8 0 0 1 4.8-4.8zM82.8 78h45.584a4.8 4.8 0 0 1 4.8 4.8v.007a4.8 4.8 0 0 1-4.8 4.8H82.8a4.8 4.8 0 0 1-4.8-4.8V82.8a4.8 4.8 0 0 1 4.8-4.8zM119.578 230.56h74.376a4.8 4.8 0 0 1 4.8 4.8v.007a4.8 4.8 0 0 1-4.8 4.8h-74.376a4.8 4.8 0 0 1-4.8-4.8v-.006a4.8 4.8 0 0 1 4.8-4.8z" fill="#F0D878" fill-rule="nonzero"/><rect fill="#F0D878" fill-rule="nonzero" x="240.742" y="57.64" width="77.978" height="9.607" rx="4.8"/><path d="M113.58 168.117h157.152a4.8 4.8 0 0 1 4.8 4.8v.007a4.8 4.8 0 0 1-4.8 4.8H113.58a4.8 4.8 0 0 1-4.8-4.8v-.007a4.8 4.8 0 0 1 4.8-4.8zM212.8 231h45.584a4.8 4.8 0 0 1 4.8 4.8v.007a4.8 4.8 0 0 1-4.8 4.8H212.8a4.8 4.8 0 0 1-4.8-4.8v-.007a4.8 4.8 0 0 1 4.8-4.8zM46.8 140h84.4a4.8 4.8 0 0 1 4.8 4.8v.007a4.8 4.8 0 0 1-4.8 4.8H46.8a4.8 4.8 0 0 1-4.8-4.8v-.007a4.8 4.8 0 0 1 4.8-4.8z" fill="#386CA9" fill-rule="nonzero"/><path d="M42.8 194.536h227.932a4.8 4.8 0 0 1 4.8 4.8v.006a4.8 4.8 0 0 1-4.8 4.8H42.8a4.8 4.8 0 0 1-4.8-4.8v-.006a4.8 4.8 0 0 1 4.8-4.8z" fill="#4A90E2" fill-rule="nonzero"/><rect fill="#4A90E2" fill-rule="nonzero" x="141.171" y="78.054" width="237.532" height="9.607" rx="4.8"/><rect fill="#4A90E2" fill-rule="nonzero" x="113.578" y="256.979" width="166.753" height="9.607" rx="4.8"/><path d="M188.8 140h81.574a4.8 4.8 0 0 1 4.8 4.8v.007a4.8 4.8 0 0 1-4.8 4.8H188.8a4.8 4.8 0 0 1-4.8-4.8v-.007a4.8 4.8 0 0 1 4.8-4.8zM27.8 105.674h121.574a4.8 4.8 0 0 1 4.8 4.8v.006a4.8 4.8 0 0 1-4.8 4.8H27.8a4.8 4.8 0 0 1-4.8-4.8v-.006a4.8 4.8 0 0 1 4.8-4.8z" fill="#4A90E2" fill-rule="nonzero"/><ellipse fill="#4A90E2" fill-rule="nonzero" cx="375.578" cy="196.653" rx="75.578" ry="75.653"/><ellipse fill="#4A90E2" fill-rule="nonzero" cx="650.578" cy="196.653" rx="75.578" ry="75.653"/><path stroke="#0F3353" stroke-width="9.6" d="M473.413 49.234l-98.309 146.502h147.004l94.71-146.502z"/><path fill="#BD10E0" fill-rule="nonzero" d="M509 44.4h6v9.7h-6z"/><path fill="#50E3C2" fill-rule="nonzero" d="M519 44.4h6v9.7h-6z"/><path fill="#F8E71C" fill-rule="nonzero" d="M529 44.4h6v9.7h-6z"/><path fill="#B8E986" fill-rule="nonzero" d="M539 44.4h6v9.7h-6z"/><path fill="#7ED321" fill-rule="nonzero" d="M549 44.4h6v9.7h-6z"/><ellipse fill="#0F3353" fill-rule="nonzero" cx="376.596" cy="195.611" rx="15.596" ry="15.611"/><ellipse fill="#0F3353" fill-rule="nonzero" cx="520.393" cy="195.416" rx="23.393" ry="23.416"/><circle fill="#D8D8D8" fill-rule="nonzero" cx="520" cy="195" r="12"/><circle stroke="#D8D8D8" stroke-width="4" fill="#0F3353" fill-rule="nonzero" cx="651" cy="197" r="5"/><ellipse fill="#D8D8D8" fill-rule="nonzero" cx="376.5" cy="196" rx="7.5" ry="8"/><path d="M498.906 12.294l-51.041 8.266c-6.006.973-11.664-3.107-12.636-9.113a11.017 11.017 0 0 1-.142-1.762c0-5.346 4.334-9.68 9.681-9.68 1.486 0 2.951.34 4.283.998 4.522 2.23 10.64 4.104 18.355 5.619 5.325 1.046 15.825 1.665 31.5 1.859 1.288.254.875 3.64 0 3.813z" stroke="#8B572A" stroke-width="4.8" fill="#8B572A" fill-rule="nonzero"/><path d="M618.043 37h2.819a5 5 0 0 1 4.918 4.099l28.389 154.956a2.495 2.495 0 0 1-2.455 2.945 3.754 3.754 0 0 1-3.66-2.92L613.169 43.113A5 5 0 0 1 618.043 37z" fill="#0F3353" fill-rule="nonzero"/><path d="M375 136.002a61.763 61.763 0 0 0-.5-.002c-33.413 0-60.5 27.087-60.5 60.5s27.087 60.5 60.5 60.5c.167 0 .333 0 .5-.002v-6l-.5.002c-30.1 0-54.5-24.4-54.5-54.5s24.4-54.5 54.5-54.5c.167 0 .334 0 .5.002v-6z" fill="#3E7DC5" fill-rule="nonzero"/><circle fill="#3E7DC5" fill-rule="nonzero" cx="709" cy="197" r="3"/><circle fill="#3E7DC5" fill-rule="nonzero" cx="594" cy="197" r="3"/><circle fill="#3E7DC5" fill-rule="nonzero" cx="375" cy="139" r="3"/><circle fill="#3E7DC5" fill-rule="nonzero" cx="375" cy="254" r="3"/><path d="M591.002 197l-.002.5c0 33.413 27.087 60.5 60.5 60.5s60.5-27.087 60.5-60.5c0-.167 0-.333-.002-.5h-6l.002.5c0 30.1-24.4 54.5-54.5 54.5S597 227.6 597 197.5c0-.167 0-.334.002-.5h-6z" fill="#3E7DC5" fill-rule="nonzero"/><circle fill="#3E7DC5" fill-rule="nonzero" transform="matrix(-1 0 0 1 1418 0)" cx="709" cy="197" r="3"/><circle fill="#3E7DC5" fill-rule="nonzero" transform="matrix(-1 0 0 1 1200 0)" cx="600" cy="169" r="3"/><circle fill="#3E7DC5" fill-rule="nonzero" transform="matrix(-1 0 0 1 774 0)" cx="387" cy="253" r="3"/><circle fill="#3E7DC5" fill-rule="nonzero" transform="matrix(-1 0 0 1 798 0)" cx="399" cy="249" r="3"/><circle fill="#3E7DC5" fill-rule="nonzero" transform="matrix(-1 0 0 1 820 0)" cx="410" cy="243" r="3"/><circle fill="#3E7DC5" fill-rule="nonzero" transform="matrix(-1 0 0 1 1188 0)" cx="594" cy="197" r="3"/><circle fill="#3E7DC5" fill-rule="nonzero" transform="matrix(-1 0 0 1 1190 0)" cx="595" cy="183" r="3"/><path d="M711.998 197l.002.5c0 33.413-27.087 60.5-60.5 60.5S591 230.913 591 197.5c0-.167 0-.333.002-.5h6l-.002.5c0 30.1 24.4 54.5 54.5 54.5s54.5-24.4 54.5-54.5c0-.167 0-.334-.002-.5h6z" fill="#3E7DC5" fill-rule="nonzero"/></g></svg>
