<svg width="510" height="221" xmlns="http://www.w3.org/2000/svg"><path d="M307.217 63.29V10c0-5.523 4.477-10 10-10h39.21c5.523 0 10 4.477 10 10v69.554c.315-.314.633-.627.954-.937C383.635 62.872 403.688 55 427.54 55c22.376 0 41.558 8.03 57.548 24.09 15.99 16.06 23.985 35.307 23.985 57.738 0 22.748-8.1 42.126-24.302 58.133-16.2 16.008-35.753 24.012-58.656 24.012s-42.481-8.03-58.735-24.09c-4.896-4.838-9.055-9.974-12.476-15.41a75.172 75.172 0 0 1-7.476 10.723c-7.282 8.74-16.544 15.692-27.784 20.852a87.483 87.483 0 0 1-12.093 4.524c-7.67 2.267-15.816 3.4-24.436 3.4-19.704 0-36.948-5.943-51.73-17.83C217.998 214.38 201.728 221 182.576 221c-22.481 0-50.582-8.162-64.303-24.485-10.66-12.743-15.99-30.436-15.99-53.078v-19.34c-2.308.761-4.132 1.81-5.472 3.148-3.114 3.107-5.093 9.241-5.937 18.403-2.744 30.436-14.565 51.92-35.463 64.452-11.082 6.53-26.808 9.794-47.179 9.794A8.232 8.232 0 0 1 0 211.662v-51.633a2.691 2.691 0 0 1 2.691-2.69c9.5 0 16.28-1.976 20.344-5.925s6.412-10.873 7.045-20.773c.844-16.113 2.348-27.434 4.512-33.963 2.164-6.53 6.57-13.007 13.22-19.43 11.61-11.27 27.705-16.903 48.286-16.903H143.105c5.523 0 10 4.477 10 10V79H153v60h.005c.266 12.748 10.683 23 23.495 23 12.812 0 23.229-10.252 23.495-23H200v-2.023-.149c0-23.063 8.127-42.467 24.38-58.211 16.255-15.745 36.817-16.183 60.67-16.183 7.827 0 15.202.073 22.167.855zM430.797 113c-6.332 0-11.715 2.29-16.148 6.872-4.433 4.58-6.649 10.189-6.649 16.823 0 6.53 2.243 12.112 6.728 16.745 4.486 4.634 9.842 6.951 16.07 6.951 6.332 0 11.741-2.317 16.227-6.95 4.486-4.634 6.728-10.216 6.728-16.746 0-6.634-2.216-12.242-6.649-16.823-4.433-4.581-9.868-6.872-16.306-6.872zm-143 0c-6.332 0-11.715 2.29-16.148 6.872-4.433 4.58-6.649 10.189-6.649 16.823 0 6.53 2.243 12.112 6.728 16.745 4.486 4.634 9.842 6.951 16.07 6.951 6.332 0 11.741-2.317 16.227-6.95 4.486-4.634 6.728-10.216 6.728-16.746 0-6.634-2.216-12.242-6.649-16.823-4.433-4.581-9.868-6.872-16.306-6.872z" fill="#FFF" fill-rule="evenodd"/></svg>
