<svg width="545" height="370" xmlns="http://www.w3.org/2000/svg" xmlns:xlink="http://www.w3.org/1999/xlink"><defs><path d="M39.107 212.217l-25.225-53.581C2.35 134.422-1.991 111.176.856 88.898 3.702 66.14 13.082 46.805 28.995 30.892c13.759-13.76 30.1-22.784 49.022-27.072C96.94-.71 115.868-.086 134.803 5.688c18.935 5.774 35.9 16.158 50.893 31.152 2.52 2.519 4.739 4.977 6.658 7.375-9.103 1.187-15.091 2.377-17.965 3.572-3.592 1.433-7.063 3.824-10.413 7.174-13.879 13.88-13.73 37.6.45 71.16l15.497 35.24c8.051 19.298 12.866 37.153 14.444 53.567 1.458 16.534-.2 31.866-4.974 45.996-4.774 14.13-12.784 26.818-24.03 38.065-13.042 13.042-28.006 21.888-44.891 26.538-17.006 4.531-34.017 4.63-51.033.295-17.257-4.574-32.242-13.218-44.957-25.932-5.278-5.278-11.456-12.174-18.534-20.689 14.135-.7 24.612-4.461 31.432-11.28 12.563-12.564 13.138-31.131 1.727-55.704zM122.5 48c7.456 0 13.5-4.477 13.5-10s-6.044-10-13.5-10S109 32.477 109 38s6.044 10 13.5 10z" id="a"/></defs><g fill="none" fill-rule="evenodd"><g transform="translate(0 40)"><mask id="b" fill="#fff"><use xlink:href="#a"/></mask><use fill="#8352F9" xlink:href="#a"/><path d="M-36 149c37.234 20.922 82.068 31.383 134.5 31.383S195.766 169.922 233 149v190H-36V149z" fill="#5411BE" mask="url(#b)"/></g><g transform="translate(340 5)" stroke="#BABABA"><circle stroke-width="5" fill="#FFF" cx="100" cy="100" r="102.5"/><path d="M12.853 149.386l43.33-43.42a5.314 5.314 0 0 1 8.88 2.339c2.234 8.046 5.17 13.892 8.809 17.537 14.507 14.537 38.027 14.537 52.533 0 10.362-10.383 27.162-10.383 37.524 0l23.318 23.366C195.37 134.72 200 118.005 200 100.205 200 44.863 155.228 0 100 0S0 44.863 0 100.205c0 17.873 4.67 34.652 12.853 49.18z" stroke-width="2" fill="#BABABA" fill-rule="nonzero"/></g><path d="M334.317 317.486v51.45c-4.095.71-7.833 1.064-11.216 1.064-20.03 0-36.72-6.559-50.072-19.676C259.676 337.206 253 320.765 253 301c0-19.233 6.743-35.541 20.23-48.925C286.714 238.692 303.115 232 322.432 232c21.542 0 38.522 6.27 50.94 18.812C385.791 263.354 392 280.482 392 302.197v65.011h-49.939v-61.422c0-7.002-1.713-12.586-5.14-16.751-3.427-4.166-8.034-6.249-13.82-6.249-5.252 0-9.792 1.906-13.62 5.717-3.827 3.811-5.741 8.331-5.741 13.56 0 5.496 1.735 10.016 5.207 13.561 3.472 3.546 7.878 5.318 13.22 5.318 4.361 0 8.411-1.152 12.15-3.456z" fill="#53CCFF" style="mix-blend-mode:darken"/></g></svg>
